<mxfile modified="2024-01-10T17:57:28.013Z" host="Electron" agent="Mozilla/5.0 (Windows NT 10.0; Win64; x64) AppleWebKit/537.36 (KHTML, like Gecko) draw.io/22.1.16 Chrome/120.0.6099.109 Electron/28.1.0 Safari/537.36" etag="PSHNGWgIov79ZH2LYKYd" version="22.1.16" type="device">
  <diagram id="Ht1M8jgEwFfnCIfOTk4-" name="Page-1">
    <mxGraphModel dx="1114" dy="1547" grid="1" gridSize="10" guides="1" tooltips="1" connect="1" arrows="1" fold="1" page="1" pageScale="1" pageWidth="1169" pageHeight="827" math="0" shadow="0">
      <root>
        <mxCell id="0" />
        <mxCell id="1" parent="0" />
        <mxCell id="6KN9IARSyBrbfhyJogQy-27" style="edgeStyle=orthogonalEdgeStyle;rounded=0;orthogonalLoop=1;jettySize=auto;html=1;" parent="1" source="zaps4cjW03-3NY5ab2HI-6" target="zaps4cjW03-3NY5ab2HI-5" edge="1">
          <mxGeometry relative="1" as="geometry" />
        </mxCell>
        <mxCell id="zaps4cjW03-3NY5ab2HI-6" value="&lt;font color=&quot;#232f3e&quot; face=&quot;Verdana&quot; style=&quot;font-size: 14px;&quot;&gt;Devices&lt;/font&gt;" style="outlineConnect=0;gradientColor=none;fontColor=#545B64;strokeColor=none;fillColor=#879196;dashed=0;verticalLabelPosition=bottom;verticalAlign=top;align=center;html=1;fontSize=12;fontStyle=0;aspect=fixed;shape=mxgraph.aws4.illustration_devices;pointerEvents=1;rounded=1;" parent="1" vertex="1">
          <mxGeometry x="226" y="-523.5" width="100" height="73" as="geometry" />
        </mxCell>
        <mxCell id="zaps4cjW03-3NY5ab2HI-18" value="" style="group;rounded=1;" parent="1" vertex="1" connectable="0">
          <mxGeometry x="609" y="-710.5" width="98" height="90" as="geometry" />
        </mxCell>
        <mxCell id="UEzPUAAOIrF-is8g5C7q-151" value="&lt;font face=&quot;Verdana&quot;&gt;&lt;span style=&quot;font-size: 14px;&quot;&gt;PaginationTasks&lt;/span&gt;&lt;/font&gt;" style="outlineConnect=0;fontColor=#232F3E;gradientColor=none;fillColor=#D05C17;strokeColor=none;dashed=0;verticalLabelPosition=bottom;verticalAlign=top;align=center;html=1;fontSize=12;fontStyle=0;aspect=fixed;pointerEvents=1;shape=mxgraph.aws4.lambda_function;rounded=1;" parent="zaps4cjW03-3NY5ab2HI-18" vertex="1">
          <mxGeometry x="20" width="78" height="78" as="geometry" />
        </mxCell>
        <mxCell id="UEzPUAAOIrF-is8g5C7q-159" value="" style="outlineConnect=0;fontColor=#232F3E;gradientColor=none;fillColor=#C7131F;strokeColor=none;dashed=0;verticalLabelPosition=bottom;verticalAlign=top;align=center;html=1;fontSize=12;fontStyle=0;aspect=fixed;pointerEvents=1;shape=mxgraph.aws4.role;labelBackgroundColor=#ffffff;shadow=0;rounded=1;fillStyle=auto;" parent="zaps4cjW03-3NY5ab2HI-18" vertex="1">
          <mxGeometry y="55" width="62.04" height="35" as="geometry" />
        </mxCell>
        <mxCell id="zaps4cjW03-3NY5ab2HI-19" value="" style="group;rounded=1;" parent="1" vertex="1" connectable="0">
          <mxGeometry x="609" y="-590.5" width="98" height="90" as="geometry" />
        </mxCell>
        <mxCell id="zaps4cjW03-3NY5ab2HI-20" value="&lt;font face=&quot;Verdana&quot;&gt;&lt;span style=&quot;font-size: 14px;&quot;&gt;GetTask&lt;/span&gt;&lt;/font&gt;" style="outlineConnect=0;fontColor=#232F3E;gradientColor=none;fillColor=#D05C17;strokeColor=none;dashed=0;verticalLabelPosition=bottom;verticalAlign=top;align=center;html=1;fontSize=12;fontStyle=0;aspect=fixed;pointerEvents=1;shape=mxgraph.aws4.lambda_function;rounded=1;" parent="zaps4cjW03-3NY5ab2HI-19" vertex="1">
          <mxGeometry x="20" width="78" height="78" as="geometry" />
        </mxCell>
        <mxCell id="zaps4cjW03-3NY5ab2HI-21" value="" style="outlineConnect=0;fontColor=#232F3E;gradientColor=none;fillColor=#C7131F;strokeColor=none;dashed=0;verticalLabelPosition=bottom;verticalAlign=top;align=center;html=1;fontSize=12;fontStyle=0;aspect=fixed;pointerEvents=1;shape=mxgraph.aws4.role;labelBackgroundColor=#ffffff;shadow=0;rounded=1;" parent="zaps4cjW03-3NY5ab2HI-19" vertex="1">
          <mxGeometry y="55" width="62.04" height="35" as="geometry" />
        </mxCell>
        <mxCell id="zaps4cjW03-3NY5ab2HI-22" value="" style="group;rounded=1;" parent="1" vertex="1" connectable="0">
          <mxGeometry x="609" y="-473" width="98" height="90" as="geometry" />
        </mxCell>
        <mxCell id="zaps4cjW03-3NY5ab2HI-23" value="&lt;font face=&quot;Verdana&quot;&gt;&lt;span style=&quot;font-size: 14px;&quot;&gt;InsertTask&lt;br&gt;&lt;/span&gt;&lt;/font&gt;" style="outlineConnect=0;fontColor=#232F3E;gradientColor=none;fillColor=#D05C17;strokeColor=none;dashed=0;verticalLabelPosition=bottom;verticalAlign=top;align=center;html=1;fontSize=12;fontStyle=0;aspect=fixed;pointerEvents=1;shape=mxgraph.aws4.lambda_function;rounded=1;" parent="zaps4cjW03-3NY5ab2HI-22" vertex="1">
          <mxGeometry x="20" width="78" height="78" as="geometry" />
        </mxCell>
        <mxCell id="zaps4cjW03-3NY5ab2HI-24" value="" style="outlineConnect=0;fontColor=#232F3E;gradientColor=none;fillColor=#C7131F;strokeColor=none;dashed=0;verticalLabelPosition=bottom;verticalAlign=top;align=center;html=1;fontSize=12;fontStyle=0;aspect=fixed;pointerEvents=1;shape=mxgraph.aws4.role;labelBackgroundColor=#ffffff;shadow=0;rounded=1;" parent="zaps4cjW03-3NY5ab2HI-22" vertex="1">
          <mxGeometry y="55" width="62.06" height="35" as="geometry" />
        </mxCell>
        <mxCell id="zaps4cjW03-3NY5ab2HI-46" value="&lt;font style=&quot;font-size: 14px;&quot;&gt;us-east-1&lt;/font&gt;" style="points=[[0,0],[0.25,0],[0.5,0],[0.75,0],[1,0],[1,0.25],[1,0.5],[1,0.75],[1,1],[0.75,1],[0.5,1],[0.25,1],[0,1],[0,0.75],[0,0.5],[0,0.25]];outlineConnect=0;gradientColor=none;html=1;whiteSpace=wrap;fontSize=12;fontStyle=0;container=0;pointerEvents=0;collapsible=0;recursiveResize=0;shape=mxgraph.aws4.group;grIcon=mxgraph.aws4.group_region;strokeColor=#147EBA;fillColor=none;verticalAlign=top;align=left;spacingLeft=30;fontColor=#147EBA;dashed=1;shadow=0;fontFamily=Verdana;rounded=1;strokeWidth=2;" parent="1" vertex="1">
          <mxGeometry x="373" y="-722" width="570" height="618" as="geometry" />
        </mxCell>
        <mxCell id="6KN9IARSyBrbfhyJogQy-18" style="edgeStyle=orthogonalEdgeStyle;rounded=0;orthogonalLoop=1;jettySize=auto;html=1;curved=1;strokeColor=default;" parent="1" source="zaps4cjW03-3NY5ab2HI-5" target="UEzPUAAOIrF-is8g5C7q-151" edge="1">
          <mxGeometry relative="1" as="geometry">
            <Array as="points">
              <mxPoint x="556" y="-487" />
              <mxPoint x="556" y="-674" />
            </Array>
          </mxGeometry>
        </mxCell>
        <mxCell id="6KN9IARSyBrbfhyJogQy-19" style="edgeStyle=orthogonalEdgeStyle;rounded=0;orthogonalLoop=1;jettySize=auto;html=1;curved=1;" parent="1" source="zaps4cjW03-3NY5ab2HI-5" target="zaps4cjW03-3NY5ab2HI-20" edge="1">
          <mxGeometry relative="1" as="geometry">
            <Array as="points">
              <mxPoint x="556" y="-487" />
              <mxPoint x="556" y="-552" />
            </Array>
          </mxGeometry>
        </mxCell>
        <mxCell id="6KN9IARSyBrbfhyJogQy-20" style="edgeStyle=orthogonalEdgeStyle;rounded=0;orthogonalLoop=1;jettySize=auto;html=1;curved=1;" parent="1" source="zaps4cjW03-3NY5ab2HI-5" target="zaps4cjW03-3NY5ab2HI-23" edge="1">
          <mxGeometry relative="1" as="geometry">
            <Array as="points">
              <mxPoint x="556" y="-487" />
              <mxPoint x="556" y="-434" />
            </Array>
          </mxGeometry>
        </mxCell>
        <mxCell id="6KN9IARSyBrbfhyJogQy-22" style="edgeStyle=orthogonalEdgeStyle;rounded=0;orthogonalLoop=1;jettySize=auto;html=1;curved=1;" parent="1" source="UEzPUAAOIrF-is8g5C7q-151" target="UEzPUAAOIrF-is8g5C7q-149" edge="1">
          <mxGeometry relative="1" as="geometry">
            <Array as="points">
              <mxPoint x="766" y="-672" />
              <mxPoint x="766" y="-487" />
            </Array>
          </mxGeometry>
        </mxCell>
        <mxCell id="6KN9IARSyBrbfhyJogQy-23" style="edgeStyle=orthogonalEdgeStyle;rounded=0;orthogonalLoop=1;jettySize=auto;html=1;curved=1;" parent="1" source="zaps4cjW03-3NY5ab2HI-20" target="UEzPUAAOIrF-is8g5C7q-149" edge="1">
          <mxGeometry relative="1" as="geometry">
            <Array as="points">
              <mxPoint x="766" y="-552" />
              <mxPoint x="766" y="-487" />
            </Array>
          </mxGeometry>
        </mxCell>
        <mxCell id="6KN9IARSyBrbfhyJogQy-24" style="edgeStyle=orthogonalEdgeStyle;rounded=0;orthogonalLoop=1;jettySize=auto;html=1;curved=1;" parent="1" source="zaps4cjW03-3NY5ab2HI-23" target="UEzPUAAOIrF-is8g5C7q-149" edge="1">
          <mxGeometry relative="1" as="geometry">
            <Array as="points">
              <mxPoint x="766" y="-434" />
              <mxPoint x="766" y="-487" />
            </Array>
          </mxGeometry>
        </mxCell>
        <mxCell id="6KN9IARSyBrbfhyJogQy-30" value="" style="shape=image;verticalLabelPosition=bottom;labelBackgroundColor=default;verticalAlign=top;aspect=fixed;imageAspect=0;image=data:image/png,iVBORw0KGgoAAAANSUhEUgAAAOAAAAE5CAYAAACJayyyAAAgAElEQVR4Aeydh1cUafPv7z92z7n3d8/7++27wTUjUURyHnLOYYBhyEmCgllRMsPkxADmNWcRMey64d1d1zX7vaeq5xmaIYguCuhwTp2np6cnNf3pqqeqnqr/Bc+f5wx4zsCKnYH/tWKf7PlgzxnwnAF4APRcBJ4zsIJnwAPgCp58z0d7zoAHQM814DkDK3gGPACu4Mn3fLTnDHgA9FwDnjOwgmfAA+AKnnzPR3vOgAdAzzXgOQMreAY8AK7gyfd8tOcMeAD0XAOeM7CCZ8AD4AqefM9He86AB0DPNeA5Ayt4BjwAruDJ93y05wx4APRcA54zsIJnwAPgCp58z0d7zoAHQM814DkDK3gGPACu4Mn3fLTnDHgA9FwDnjOwgmfAA+AnPPkvX77E7//5DY8ePMDdyTu4duUyzp87g9MnJnDqxDgmHHY47BY4bJLQ45MTYzh3+iQfd+XSRdy6eQPTU3fx+Kcf8eTJn3jz5s0n/AWej1ruM+ABcJnPKAHx46OHOHfmFEaG+nGwqx2tDVVoa6xGvaoY5fnpKEiNgyovBdWFGWgoy0VtcTrUBalQ5yahMicRquwElorcJN5XVZCO/KRIlGQqUJGfgpqiTChzklFdkoOmKiX2NNeivbEaBzvboRnoxemTE7h3dxIvnj9f5l/nebvlPgMeAD/wjL59+xZ/PXnCF7rdYsTBzjY0qZUMFYFVlpUAZVY8avKT0VSajpr8REnyklCdp0BVTjzUWbGzpDIzBu4ijqnOjkNNbjxq8hJYavOSQFJXkMxCn1GVn4SyDAVKM+JRW5SF8pxkVJXkMpzHDu3jm8Ljn37Ccw+YH/hfX/6XeQBc4jklzfbg/jSbhL3dh9HRXIeakhxU5CagICUKZZmxKEuLQlNxGuryE6HKikN1toK36wuSQNKYn4SGfAXqc+NQmxOLmuwYVGdFs1RlRmE+Ec/TsfQa8To6Vp0Ricq0cBZ6/9o8BQhUhjg7FnWFKVDnJaKpLAPq/CQUZUYjNzkMquIM7GqswlBfN06fHGeN7TFll3ghLPNhHgAXOaGvX7/G5UsXceTAftRXlqM4OxmlWUmoLclEbVEGynMSUZkdzxd6RXokw0ZQNBUmorkkFU1FKbzdWJDA0BF4DbkxqMuOQm1mJKozIngU2/TYXeg5EnpNfU40GvPiWJry40HSUqBgIRDpswlYgrWlNAXq7GjUFSZAmR4GdW4MVE5RkxYtSoS6MBFVxanY3aRCa2MVBnqP4srli6C5qufv05wBD4Bu5/nZs2e4dPEC9nd2oKwwG+riLFTkpaE0OwlluclQ5SRCnZ2IqtwEFjYLyTR0CmkgNhezYxgEgkEuci1G+4WGW2iUv5a2hQac+1qCTyY5Uah2E3VuFGZEABmHirx4NCqz0VSRhcbyHDRV5qOzpRY/nDmJP//4w+0MeR4u5xnwAAjg77//xg/nzuDQ3t1oUJeiKD0BJWkKBk5dkA51YSpUeUkSfDkKqHMULuAEeGJcNQDmRqBaLk4Y1bkRkIRgjHEJma1kOreWZbIZ3dtRje7WSjSVZeL4/jZM2M34/bdfl/Pa87wX8GXXBX308CGOHT2ImvJCqIuzUVeajcr8DNQVZ6E6Px01hWksVfmJILNNlSvBxxpOpvUEfDQKABcaxbHuzwtni/vofpz8M/jY7Gg2NcnclCQS6uzIGe0nh1C+zUDGuOaMZEKrMqLZKUSf2aZMw77qPPS1V+JgXSEONpTiQFMFBg534eqlCx54lukMfHEakOZ1F8//gNamWlSXFUBdmAF1YTpK02JYw9Xmp6KhKIOFnBgkwtwkzSeAECC5j+L5hUZxvPvz7uCJx+7HLQuAAr4cCUD6DPG+9LmkDZVJwWgpTkZ7WTq6m5U4UFuEXcXp2FdThEO7qtBUVw6b1Yi//vprmS7FL/NtvhgA//zzT1iMetSpSlBfnofqglRUUZyNoVKgJidhlpAHky5MuiDdIRAXrIBpvtH9NfMdI9/nfrz7Y/mxtO16niCaJXPnfu5zQemx83Uy+OTv6z73bC5JRltFBrqq87CvvhgNFVmoLk1FZUk2+o4fwsMH979Mgv7hr/7sAXzy558Y7D2OxkolSjMSUFuUzhpNnRWP6kwKBVBIIB71uRQeUPA2Pab9dJEvponcoZA/dgEinDILmKziNe7Huz8Wx4nR9fws+Aiq9wfQ9V7O70qP3QGsy1eAIOxQZaKzJg+7q3Oxp64QXU0laFLloVFdiEN723F38vY/vCS/rJd/tgA+f/YMJt0ISrJTUFVI87oM1OYnS0ClS7G3+uxYNHBoIA60LRdxAQrvpOvxBwIlwFlonA8C+T7317me+wQAinNAYZSWkkR0qNLRVZODrtp8lo6aXHTWF+BAezna6wqxd3cTfvrx0ZdF0gf+2s8OwGd//w2rUQ91UQ6ncTWUZLKZWV+UiobCZFBMjlz5FI+TC8XY5FKTHQUScfF96QCKJIHGgniGcG9tLvZUZaKtIg1NyiTsa8jHLnU62qsz0aLKgLooEwPHu/HLz48/8NL8Ml72WQF48YdzaKpUoiw9nmN1NL+b5ThxxuQIQDls8m0B3sw4O44nQFw7o3Qjmfk94vHSfxfdhOj3ihgmja0lKeiqzEaXWoJwd2UG2tVZklTmoK0iHw3F+WipLIPDasaLFy++DKLe81d+FgA+/vFH7GttRllqPCozFKjPT+M0MOFImXdOkx3lyi7xAPhuGOXw0Tal1DGE6kyGcHdlFmYkB7tVeWivLGAQW0pz0Vqv4iyb97w+P/vD1zSAlFSs1wxClZsBdWYSShURaC3OQltpFmqyFJKwQ4GcCkLefbGtHe22lN8iNJ77uJTXzhzjDuAsCCuzsUeVNUt2V0oQSiDmoaO6EPWqPBw7sh+//+c/nz1YS/2BaxbAe1N3saelEaq8TKhzU1jr1WYnoSEvmaU2O8EDIJvc7uCJxzNwLeWGMx+AcgjnBZAgrMxBe2UOmsqy0NWkhLo4A10djZzut9SL9HM+bs0BSFn7ZoMeFQU5rPlU2akoTaFYXSJqskicmk+MLs33pWrA9wNtIRgXApD2k3eUzNHdFZkuLcgaUAZgmzoPLZW5aK4qQFNVEWoqC6AZ6vvi54ZrCsCfHz9Ge0sjclMoLSwDDSW5qMpLRVl6LFTp8XPhIwg9AM6J6S0E2WL7FwNQrgkFhHIAJS2YB4Jwl7oATep8lBemormmBHvaGnF/evpzVnKL/rY1A+DlixdQV66EMjcD+bSiPDsVVTkpUGUmQpWpAAXW58ImtB6Ny6MJvtT3eReA7hAuBKCAsKtZhfaGctSp8lGnVuL8D+cWvVA/1ydXPYBkcuo0g6gqzkV5ThIqcpNRlBKD0pRo1nwVGbSy/F3weQD8pzeOpQAoh5BWVbSVk2dUzAPJKyoJQXioXY26sizsa1WjtiIP7Y1qWEz6z5WzBX/Xqgbwjz/+wMG97agoTEVFbqJrORAtgiXoKtKiUZkZh6qMGE4ro9QyIf/0gvO8frbF8C4AaR4ohEIUtCCZAOyoyHZBKJmiOWhTZWNXZTZaKnLQrMpBY2UedrGXNBd9xw59UQuCVy2AVPWrTl2Mktw4VOQqZi0FEvmZlLVP8HkAnA3Lx7h5vC+AVA3AXQvKASQIWyuy0KLKYgh3VeVhf1M5VHmJOLhn1xezymJVAkhl9+orC1CeF4+q4iSo8uOhyo2DOkdKkBbpYSI9ikaxT4wf4yL8kt/zfQBkTViQhF3KjHm1IGlFEgEgQdhUnoG9DcU40KREbWEyV3p7+gUsdVp1AN64dgXtteVoUCajIicapRlhyIrzd8FHEAjIPAB+fM0nbjrvAnDO83kKrokjtCABRyapu7RWZIBkV3k6msvSOGa4uzofHZUF6Gqpw++/f95B+1UF4I1rl1FdkoH6IqoqFgVVdoQ0ZkW5Vn0L+N41igvHMy4PpHMAc1Zoo/10jsXoOt+58VziguaCQhMSjK1l6Sy0tlBs00iP5ULLnnZX52F/RxMXIF7Qi7HGn1g1AF67cgnNlQUMX0VWuARfdgQqs6JYRMmFd4EnnnddCJ7ww7KEYN4FIJ1vce55pPirG4QE4i5lGoscvrkApqEyKwKd1dloKE3F3raGz7aW6aoAkOBTFaQyfKVpwShOCUJlTiSLAE+Ms/7Jzpqa8+3zALg8mk+cx/cFUFQSIAipZmlLKYE3D4DlqWh1E1riVJERjKaSeOyuyUZDeSoO7GkBlRP53P5WHMDJ27fQpCpk+MoyQhm+hpJ4D4CrTHN/CIACQioYLEzRORrQDT4JxmS0KOPRUByDRqUCbVUZaFJl4nj3gc+Nv5WtinZ/+h4HYZsrMlGdH4fq/BjU5EaziNIKQvOJO/FSR9eKcVmZhffZt9TP8Rz3bk1L8FKxYqq0JqS9LBVC2pQpvE1jmzIJrcp4FoKwqSwejeUJqCyMQW1FBhxWw2cF4YppwF9/+QX7dzejsSKXY0EeAN99Ia9l2Ck4T1XWFgcwCW1lCheABKIEYQKqi2LQUpmGVnUWLl/4fNLWVgTAV69e4dC+PahX5qA0PQoVObGsAWvzaOIeO0tExS9x8VGMSWwvNr6Ptpvv2MXe2/Pch90s5FpQaL/2MoIySdJ8pQkz8NF2aQJalAloKpMA3Fufg5q8SHQ0VOCnn378LDThigCoHR5AbQWVK8hHbXEqx/gIPjmAAjxhgsrTnJYC4XxQvc8+D2QfBtli502uBd8HQIKwuoAqeUvVvhuU6djd1gy6ka/1v08O4NnTp9BcVc5J1ZzfydWmZZrP5XyQr2SIQ1NBMgt1GKJtWvlA2x2U0FtVwNv0WIjoSEQjFWMSIvaTY4A8dAtBudiF5Hnuw+CkG2dToQKtpUmu+R9pQLkWFNpQjLvKktBcqkB9YSwaiuLQVBSH+qJk1FaUwGw0rnX+Pq0T5sH9+2iqUaGmOFNKruYcTynFTJiewtsm6nQ25CUyVARdM3UbcoIo9rcUp6KtNINBJBhJ3LMtREIw7Sd3uOhcRDAKEN1h9ED2YZAtdt7of9uQL5U2lGvApQBIIQk5gBWF2SgpKsLknTtrGsJPpgFpWdGxwwdQnJGIguRo18oGyu8kIQDpDklmCpUOJI1FCb0Ei4CGtoV0VRdgjzqXYaP4EvfEm6fBJe2Xu8PrCpNQna9AbUEi30kbiqn8fBI/pv1VQiu61dtc7MLyPLd0WOvzYlgLLhVA9orSXLBEgebieBbWgOVFaKyrxZ62tjVtin4yAG1mE5TZ6ajISeVV7NTiSyobKFWfJgClO6RkGsq1GAEmIGwsSQVJZXYsSlPDkRsXiIxIX0T7fTdLYv2+g1xCN/8Liu0bkBnth+yYAJSkhPF71BQlobY4mWGUgyg0spiLeiBbOmSLnava3GjWgv8EwKZi6tGYhY7GKpQX5sJqXrum6CcBcPrePXQ01kKZlgx1bhqvZCcARdlA0lCkqUTAtrMq32VGtlbkgKSxJJ2bYebGBSEp1BvRARtmSYz/BsySgHWIcQrBSTDG+H47Ayk9F7gesTs2sNBqi+rCRJBGJO1YlRfLQiAShAJIYSK/a1zsIvwSn3M/X1RhewbCmZjgzD5pbkjmKXlD2SNaQqUQyYRVoDY/hm+aalo50VqLn9doAeCPDiCbnocOQJ2diaocCT4qoCTBN9NtiOCjORmBtqtcWsRJZqgyLQp58TuREemPpGAvRPitw84t/zMLPoJxFnwE4wIARvl+C5IIv7mSGumDisxo1rC1BQoOjQjwxOh+IS30+EuEbLHf7H6eqML2bGeMO4QLA0gQNhVEoz4vCrUlCjSqctHTfXBNzgU/OoAXzp1FeUGWU/OloTor2VnBTCqYRF5Igk/M96gdWHVeIoNQkLgTqWE+iNm+EaHbvkHw1q+wY9NX8N/434jcvskl0QGbFgUy2u97lwaUwxfu/y2EhPp+jeiAdUgK80JBcogUlyxQzAqNCAhpdL+g3B8vdjF+ic+5nx+aC0paMJ1boFEbNEkEiDMACo8oacG20nhJCxbGoCE/RsqeKklGQ1UR7ty+ueYg/KgAUufZ/R2tyE+IZu2nzpbgk0oIzgBIEJLZSXM9gq8sPRrxgRsQH7gJsYESXOG+3yHMex3CfL9HuN96F3wCRHcI5RpRALgQfARhUsQ2xAVvQpT/dwj3/QYEP2XnUFcgeXxSQOh+Qbk//hIhW+w3u58fmguyFiyhNDQBH43zA+gyQYsV2FUUi5bCGDQWxKK2MA5V+QoUpsdgT0eLB0D5GZgYtaMsMwU1BVk873NpvxyKzUneTV4jVpHF9nxZRiTSI/wQF7BRptEIig0sEb7rEe63kSXCfxPkIgFIsEoiB5C2CUKSKH9JIgK+h5Bw/3UgCfMl+CQhE5UcNsq0CHbWkHeUhMIV8wm1NJPLYhfjl/jcHABzYtnbTfVEZ2s+AaA0Un4omaokpDHJE0qxQIKPpK4oHuRIy0sOQ7IiHBcvrq3uvR9NA/7y889oqq5k07NAQe3Akl3mJ2nAPZX5XJZgV3kmmpRp7JlMCtmCKN912Lnpv1ccwOCt/83zRHcI54OP9snhk/oLLo/X8HOB9Z8CyPAVJTB8MwDGo74wgQFUZsdBERGI5qZ6uQ5Y9dsfDcATY6OoLy9k7VeZlTQHwLbyHHa6kIbJVwSx04RMxHCvb1jI2SJ5Ov+ZBhSaT4xL1YAEIAl9J4JQhC0W0oQeABe/4SwFQGk1BK2IkFZHkDkqNKAAUMQCCULKqmkoSuQwEnlDEyK3IyVZgcnJtROc/ygAPn36FO3N9WgkAAszUJ5FxXMTZRpQAVVGLPJiA3muF7z5X4jbvp7nfAlBW0AyE2b4UAA3sWdUgCfGpQAY5v0tQr3/jRCvrxDq9RVDSLFGOYTumtAD4MoBSIH5upI05KVGIjY8EIcPr511gx8FwLNnTkJVnI260mxunFKRnYSyTJpDUZghE83KLOTE7oBix2ZE+lAAXZqfRftJcz2a88Vs38zzOeFkkc/35tuODNgCEnouym8GWjF/JNOWhDTrfCLmgDQPZPH5GmEyoZghhSmKk0Ohyorh+eBic8LPxXRcrt8xnwbk+qFFSdxXQixTEqNYuEtjS2kKWpRJaKY5YFECC2k/oQEJwOqCZOQmhSAqaBOURZn4zxrpwPRRADy0fw/yUmO4NTRVslblUAA+CVX5ydyfnWJ7cvjI6RLjvwlyAIUz5UMAZAidjpv3AVAOIXlCSQSEtE0QpkdIEC5kiro0oyupfHHNsFwX+Gp/n/kApNRDSjukdYLkjBHw0fg+AJIZSllMhSmhSAzdhLgIf+hGNKt+/kdfcNkBnLxzCw3VJaguy0R5fhKUuQmceF1XSm3EkpCvCGYTU2g+CjWQfCwAyXNKshQNuBiABKKAkDShB8D3u7HMByDtk2tBglDIQgDSXNA1HySnTHESC2Uw0RQhJcILIf4b0NxYvyZqyCw7gGajFmWFaVAVp0GZn4gyiuvlJaKhPAdFadGI37kFQRv/xWYnab7VC6AUDxQaUIwCQg+AywOgtEQp0aUFPxRAyg8mAJPDt3KsODUxAdeuXl31WnBZAfzryRPsaqpGUW4cygqSGEBVQTIqC1NRmBqB+JCtIAeHmIORQ4ScLdI4e94mTE/X6JzjibneQqOYHwrTU2jAd40U3J8lspigiA3KR8pJrcpNcInL9BRxQk9btFmVCxbSgMIMbXbOBYUpKteArnkgzQWd0lySDLlQKIs86gLA+MgIjGhWvxm6rADevHENVZWFKC9MhDJfgRn4ohi+UB8JPspuERCKUQAjRhd4IuVslQGYEuKN0tRID4BLnOsuBCDtJwjFPPBDAGwsTeZYsjIj0gVgqL8vGmrrV32jl2UF0GoxIjdXASVVti5MBMVmSPMlBM9oPrH6gPIuKduE4mw8P3NmqIgwgXDCiHEhjee+/1NpQPrOci3o0YCLm6TvDWBZCnbJhLygchHaj+BjKUtBSVY4kiK2IsTve0RuD0B+Vg6mV3nzz2UDkIqmHti3G8qiJFSXpaOyQIHCtDCGL8Tra9Z4pPkIQPImUs6lADDS5xtXipgAUGhCMQqw3IFzfyyOc73O6YR5lwnq/rzc3Jxvm5xIci3oAfDDASQ452hAGXwEoisMQaEIFskElQOozJQApDBSsNcmRO8MgtVkWtXzwGUDkJpotDRUYk+9Es3l2VzpLDM2gOd4NO+jC5aEwBMiXxJEFzkdJ0QA4QLJLffTHTzx+J8AGMXeUslrKkxjMQovqhgpY4dCKWUpkWgpyZhTW2Zut97FL9DVHkb4p99vMQ1Iz1F8T+R8UvaLu/aToBPwzR2blCkoywhHathW0A2drqeQLd9hb3vrlwHg9WtXoSrJQVtlAa/p45hMyBbXXE8AKLSJ68J2OmJoyREF30UAnkxPgk8CcW4CtgDOffxQAAV8YhTfT4wCPDESgOTFzYsNQm0urW90tk5zjh4AZ99wlgPApmIKO0jiDiQ5ZyrSw5EWthXRPv9GyNb/Rlq4L2rLikFrUlfr37JpQMeoDSU5KagtyUBVfiIk7bcO5HiJDdyCcJ/vXSKWFMm9jrQvzHfDHBGrH8J9N4MkzH8LS8T2LSD5aAAuYLq6APWW5q7pYb6cVucBcDZw7hrz/QFMAlVEI6GyhFQZTQgVaHoXgEHr/4uT+gtSFbh54/pq5W/5AvGD/T0oykqCKi8F5VkKJIZIq9cJsqjAzazNJMi+R4jvBoT6b0T49s1QRAYiTRGK+PCdSIqLQHzUTkTt9ENi5E5Ebt8iHeeEzx1Aeg+h8eaMCwAkTFv3UYAlRvfnxWPX806zOjXEG0WKEFd5DQGiRwPOBvJdAIpyhWSGSibouwEU2pBGcsqUp4UhNWQLIr2/4vIjZHXlJUbDbNB9/gAe2tcJdVEWlFmJSI7w53xKvw3/Dzu2/BtxO70RH+yDUO/1iAj0QkZyDBqqVRge7MOtWzdAnVCpyKqQ58+fg/pGGLQaNNRUIikqBHHBgYgK9EXkdh9EBm5jMAXIBKKQsABpnaBcu9K2AGihUYAlRvfjxH4xRnp/j4ht65C4cxtKU6Jd4QiKDdbkJHDd0tkQzr4g3TXE5/54MQClYLxUL3QGwMXngXL45gMwzn8dQrd+jcQQPxw5sPfzBvDPP/9Ea3M9VPnpKEyJQ1JYAIK9v2EIo4O2ITFiO+KCvJGRFA3NYB8ePnjAJ4Rs87dv3y54csRz1EfCqNMiNzUZEYH+iNnpj1C/zQj2Wc/alEAUIkD8FACGe33nAXCZ4oCiRsz7ANhQRMuRJKGUtNKUECTv3IgIr//hEiQEYNT2TWhtrF3wGlvpJ5ZlDvjo0UM01lahLDcdabGhUIT5I9R/PaKCtjAkcSHbceRAF/78849/9HtJUw4P9CMnNRHBfpsQ4r/RBd7yA7gREb4LC2nAtQ1gFGqyZ6QuOwpyWW6N/C4NuBiA7iEIof0EfDQSgMWJO5GwYz0DSBXwCECyZCpLC/D4p5/+0bX3sV68LADeunkDNZXlKM5ORVzYDsSHBoA0X/QOL5TkZeD6tSvL+v2vX72KssIchAZIpidpQqH5xPh+GnAjonxmZDHwxHOR3htcAJYkR80xQWkuuLpN0Bn4CEQ5fHVZy28ufwoAixJ2QBH4PQMY7S0t7CbnX1ZyPO7cvr2s1+ByvdmyAHjh/HkoiwtQmp+FxJgIxIQEwGfjv1GpLMRPPz5aru86630ePXyIWnUJgv2/xw6f7zj7gTIghLi8p84aMu6PBUjSuBkRvrMl3IdCIBsRtHUdvL/9F2ICvRHqvZEldrs34nZsAx2jCNwKApDnfTT3EyJyQp3jYhfgfM8ttwYiqFicsMm1H21XpIaB8jEpIE4dh+nmIRxKi47OCuLv+r7z/UaxT+SDikTs+ZYjkZNFrHygkZYgyYWeL1QEIj5gncsJQyEj0oAZCdGga3Q1/i0LgHfvTqJWrUJCdBhCtvsiYNsWVJWXgYLzH/Pv58c/oaw4B+E7NrvAe38A3cDz3Ypw363wX/c/CNu2EfHBfkgI3Y4WVTG0xw7g6O5mpEWHMHwhWyUnTEVG/Ax4awrAGU1HMJSnRXDBKapQZzjSir7OeuxvUKK9Mg+1+cnOSuYKHl1QriIAC+K3I87/WxeAVIyLAEyKCcWJifGPeSl+8HsvC4D06WOOUWSkJiEuJhwNtdX46cdP07+NEsDLCjOXHUDScuHem1CSnoyRowfxw5gF5xxmWDV96NvfwSv9UyMCWQPmK0JXPYDzaSgXRNlxKE0OYzO6u60Kpw09uDquw1nLIGyDh6E9uhu7a0pQXZDKPT1UOVJbAXr9fO873z6h7eYb36UBRd7nuzRgbqw/Yqi+q8+/OQxBAFIyR3RwALSrdIHusgFIEP7yyy+YunsXVA/0U/5ZTDpkpUTNgtDd5HR/PGOCzq8Bg7esQ3NZIRwjA7g4ZoVDN4TTVgOLQz8Ah7YPu2uUbH5mRG5fUwAK8Lg3R3YiQ3WwRQ3d0b2wa47BPHAE4/p+jOsHMWaQpP/QHrTVlqOykDpbSdpwtQGYE+3nhO/rWQCG+nvh6JFDn/KSXPJnLSuAS/7UZT7w2d9/o7O9GfERAfDf8jVnyFA8UIgI0nOtGKoX40exQqofIwkF+EO9NiF483pO4o3w80KDsgjG3qM4bdbhhFmLEya9NNK2WYMThiGc0PXD2LMP++rLQGYoiVgjOKf0vqtu6LurapOWmE+L/JN9AjoaCbzm8lwUp8aiOE2B3Q2VGNMPY9RAMsJiN46AxaCD3aDDyTE7DCND2N3azM42eg/p+0jOpnc1sZlP84l982vADC7ULG/MQ9XTXeJcCS+0IpmfYv5HZij1AqFaQ6QBE8IDsbujbZmvuuV5u88CQDoVJyfGkRofzqGJHT7fu+ATgXk5fO4AEohh2zazZMdHYXdtJfR9R3HSIsF30mKQAHRBqMEpkwYnjcM4aRhgEDvrygFPpDEAACAASURBVGdBSBeoHEJaLSFVTlsdAFLChCo/C50tDTBq+hkyq1EHq9EwS8xGE0gmHGMwm83QDGvRe/ggmkqzVi2ABKIcwJgQP3S0ta7KnNDPBsCXL1+isV6N4O2bEOy3YUkAirxSGuOC/FGUrMCh1kY2N09YDJgw60GjtG3kxxMW0oCSFiQIBYim/iPorFWhLCOBK8DxPEnWgk1arhTr6rL0rhL3/0Tbzfdadw2oKs7Cvj3tMGpHYLeaYTYaGDSTyQQSCTwLTEYLLBYbrPZRWG1jMFpH+di+riau3yJCLTMaUIQ3Zhw89H2EtptvnF8DzhRmmm8VPGk+uWdUaECa/1EoYhaAQX5obqhflX0EPxsASQsadBqEBXkjNszvnQASdKEBQryQGh2GQ+1NDJfDqMWYRY8xmwGjVj0cJgPLhNkJoVmPCaOOhUzTUyY9Thp0MPV1Y0+dGmUZSVwJjiBkyZUafwro5ON8FyTtmw+iD90nzE6e8+UoeA53eP9u2OwWjI2NYmBoEAazCXqjEXqzBQaTBWajJCajDUazHSabA5bRCVgnTmJsYhw2XR/69jagUZkx0+cxNwbVOSsPIGlASkUTJmjE9q2oqqwApTiutr/PCsDbt28iKyUOUTt9XIF54XyJ8tsCkmhfaUyKDEKQ70YEbP0eqXER0PR1w6AdgMmogdk0ArNFz2KzGGAz6aHt78c4mWIGEwx9/TzS9rhBzzJhNGBMp8PIsW501tegOC0RpZlJKM8hGBNB/QfVuTFOiUJNbrRTJK3oDuKHwiYPqIv3IABrCtP4uxTnJKOxthJGoxYWmxk6oxYjJGYjy6DRgGGdHgatAVadGTajlTWg2WqD0W6Hzm6D3m6BddQErb4PB/c3o7EqHxV50u8jACUI31cDSu3KFktFk6+Ip+wXekxjSXIQhx9o7kdeUBoJQO4JQrnB271QUVYKKhi92v4+KwD/89tvqFaVSJrNmaC9EIARQd7w37YOcRFBaGusglk/BKtZC7NFC71JC4PZAKPFKEFo0rKD4uKEFZcmrBjXDUvg6Y1wGPQgjUkAShAaMNJ9HHUlhVDlZnBHYIYwV8EQqhjCKFTlfRoAhfajVSpZSdGoUSvnwKc160Gitxhgspthc1hwesyKHxw2nLJZMWa1wGq1wmi1QW8bZQgNYzaYxkwYMfTg4P5GVBYlu24ynwpAWrTrDmCs3zfzAlheWuIB8GPffcjE2LunFSGBWzhZmxK2xTpCoQFpJKfLdq91CAv2QZWqCNrh4wyg0TAEvXEIOv0w9EYzzGYrrGY9Rk1DuHRKh+krZkxf0+LqqX6cMPZh3KCBwyjJuEGCkLTkmM6A/gOHUK9UorIgmzVhRW4ia4mKvBio8qKgzo9mCKkT75xyFtSn3hXgFiltQqM4vY7zZKpIGk+YgDTGcDYLaeCcxGiUFmTg8KEunDo1Dp1RgxGTBgazDgbLCHT6QdhtWpw9ZcXVH2z48c4Epq9Yce2MAWfH9LCbDawJjdYx6EnsFpgdJthGdTDojmFXTb4bgOJ7SN/bXcPLH0tzQHcNOLMcSawJpHWBQgi81vLUOQBK2m+uBvQA+LHpA9jLdfzoQZB2C/HdxBAuBGB4kDdKCjJw5EAHbCYtLAYNrMYR1oIWK11sFu49bjMPYdx0DHcva/H7PQP+nB7A9JWjOGHeD4f5GEYtPXCYBhhGNkeNFowbLTg/No7d9XWoLMhFcYZUnJjMNAKwIl8CUJ0f6yzwK0tho0yadwGYJfewyrfjpHbaziRrglidE8cmMAHY1dYE3cgga3WCT2+R4DObh2HSHsNJ6yBunDPh0TUbXv1yEr9PWTB1cQSXTg5j3DwMu9kEi3kUZssYjDYLjHYDAzhmH8bRffVQFymgzhUm6PIB6L4gVyzGbatIcwIYDNJ8cnE3QT0AfgIA6SOGBnqww3fTzKJf52Jenv/5e4EyXCi9LDZ8B/bsboTNosPEqBmSC17HGo/mgBMOI046tLh4chj3rxnwZFqPv6cH8Hz6KJ4+OIZbl7txcuIgRq0HGcRx45DTLDVjwmDBD+PjMAz0o6WmEurCHJ5/VeQqXACqCqJBAKrzqLZokpskMDg0Z+T5myvjJA41DF8i1ORhdZccAkByhKizI1GRGYmixDAoQvywp7kWI/3HYDJqYTTKTE7zCCz6Hpy1D+Dm6RH8ds2Gl9OjeDatw7PpEfw1bcGTexO4PDGEMUM/zHoN9AYtzFYTzDYDnz+7ZRg2/VEc66pCY2kiipN2gBpwyrXcYtvv0oAMYEmiqxwFrYbYVU6tzNOhTA+DImg9ojnuR7E/SeReUHK4lZUWeUzQT8Fg3/GjCN/hy8ugaGUEaUAyOYUJSknXMTt9UVtViuGhbjhGTawBR416kDCIpmGcHBvAxdO9uH99BH/dN+Hve0N4NXUMb+4dxPP7h/HT/R5cu9aNkyf2w2E5iHETmaRajOvNGNdZcXZ0HA6DEUe79qC2vAjKnCS4A6hyAsh9M9wgZKdNDiVEKxg64e6vyaL6MxJ8ZFrOgtAJIGkhVXYEipJ2Ijs+CAXJ0dD1H4VVr4VFr4fJZIDWYpLmfMYhOPQ9DN+P5zX4+7oOuGvE66lhvLo3jBf3dPj7ngU/XjPi8sQAxozdMBt6YLbpGECaN5OJbjd2Y6S3DZ21OVBlhrvgE46gfwIglaIg6MjsFNJclsblCIuTgxHt/42zvKUoczk7EB8esAXVapXHC/qxAaQFvP09RxHiJ60TFAAShCK3M3DTt0iPC8Pxo3tBphdpQPJ+EnwEDGV9jBp7cfHMIdy/2Y2/Hgzj2f1BvLjXgzdTx4DJo3gxfRS//diD+w/7GMJT44cxYTmOEwaNE0A7TtkcMi1YAWVOilSmPz8GZflRKC+MBgGoykvivFJ1bopsTIKKnTaSeUlab0akNm/U8GaukLdVmmMqM0OREeODlHB/7G+tg52cTHotB9nlAJoNfThj62PNR/C9uTEM3B4CJkfw9u4IXt/V4cWUAU9ua/H4+hAunzyIUcs+mO3DTgBpjqyB3dADu/4gjnWUMyQCOAGgGMV++eiuAckTKurB0CgAFOsAaawrTOAW4rnxAQj1+teiAEYEemNXc4MnDvixAaSSFvs62xAW5DXHBI0L9OHVDTs2f4fqkjxoh/phs5hgM1ugHx6Bw2TCuMnAKVnjxkN4cOM4njzqxbMHvXh6+wheTfXg7WQPMNmDN3d78ORBH357OISfpjW4dakf58f7ODNG0oB2nDDbcHbUwV7So10dTgCTUZanYCnPT4AkKVDlps2WvBRuaEOOGw5hiHgijxJ4lI8pZBaITm9raXoE4oK3IDM2BBOmYVj1NMeVMl0o0G40W9kUtRv6cOuMFi+nx/B20iDBd2tgNoRTI/j79gCe3BnAz9ePMYR2Wy+b6/SelLJmGenBuKUXhr4O7K7N4YQDgoyWNknLmxZ2xswPIJWkkECcD0ByXqmyopAR5Q3qLykVeJ5fA0bv8EXn7nZPJszHBpB6UzTXV/EaQXm9GApFBG/7Hlu//r9ICPVH7/4u2Ix2WA0nYNOfgkXrgMNow4RpBGetxzF5rhdPH2rx4sEAXj4YwJvpAbyd6gfu9gOTJMN4dceMF3eseDZpwH9u6nHj1BDOWIc4PkgmqMNght1gkDSqYQSdLXUoyEhEbqoCVSUFqC4u4BsB3QyqSvPQ0VjFQiER2u490IHeA23oPtSGwwdacXDfLhzY28JyaG8LWmrK0OqUtuoytFaVol6Zh/LsNBSmKJAZG4HUyBB01KtB2TsEiQDQajBhzOTAhMmKSyd0+O2OnbUcaTz6bbgzDEwOAncleTs1iFd3B/DiTi/+vnUcv1zqwxnjcTh0Gozq6TcaWLs6zBQ/PY7uw3WoL0qEOiNyDoBCE4qRIKUWZWItoqtAr7MvPGlDEuqIJDRgQ0kCz3XJxKYiz9RIVZS7pJqgJKLnJOWCKsIDcWD/6qwL81nFAX/5+TFUpXlzACRTdMeWbxC09Vt2hpgGemEzOGDVn4FNdw6julOYMNk5rezKRA8eXx/AiwcaF3wCQBeEd0aAW6N4e9OBN7eNeHbHhKnzGlwcG+asGNKC4sIkk5bk+IEudsjUlZehq2UXhyn6Dx5A76F96D3UBbp4ScgjO+qMO1JytMk0AL1xAFpjP0YMfSxafQ/GbSM4aZmR01YdLEO9OL63C3ubm1CSlom2mmoc27eHcz0l+CQNaNebcMJox3mrDfcuWPH0vh0v7o2AQCPTkyEkAOlmQzcdp7yd7MObW8fx/Powrll7cUo7CIdWC6vOiDGzlUMVRtsAhob3ok2dw/PAqswokAjg3EfSfk2FUnckgm8xAKl4L88FSxLY+ZIeuY2rq0ut46ibFRV/lgO4gRPvU6JDoBka/Nj3/w96/88KwBvXryE3IwEhAXNLVPhv+AoxgV7obFLh9KhllgYc1Y9jwmTGKfMAJs8N4vkDE17e17DmI/hwT9KALgDpIr1lA27b8OaOHs/v6vHLDQOundbgjFXHWlAOIM8vzU5TTaeBXadnQCmIT/mmYxYtHPS8ZUak/XqOzVlsIzzfMlr1MFo1MFs1DOu4aQQkFIukOR4lBJy0WnDO7oC+tw8nTFLq3CmHZcbLa5Q0Fj13ZdyE32478PKRnR0uLgDpBiMAZI0vNH8/cKcPL28NY/qsBmcM/QygXWvEmMkOO6Ww2UkL9qJ7dxWDJQB0N0UFiKI/oIBPjELzuY8UgiBPK2m/uO3ruJU4VVifXwNKAGYlxWDM4fggQD72iz4rAM1GHaKCfeYFkJYkFaXF4vj+XThNnk+jFVajAzbDOEYNdtCKh8vjGjy+psWrh0a8nh5iAAm+uQCSo8IE3DGxo+L5lAZ/3NXhzkUNfhgdwZh+hLWeywQ16vmxSTMEk0YDTW8vO3wIQNZ2Jq0LPvIqUuobQUsjhURM5hFI8OnZ+2ix6jhHlZLET9pMLATsuEmHUb2OASfIyanEnl12vpD2c2pAgw5nRw24e9GKv+478OKREa/uDc5owMUAnOzHm0kNHl8ZwUV7PyeuWzU6OIyjsJtskmPGMgRd927sUWWx9qtMC3eZogJEMj3l2o/KUQj4WAu6maACRAnAZJD2o3kfaT+qXj4DoKQFqRxFXMBm1oAF6Um4eOEzLknxse8SS33/jtYm0FIkUaIiTFZtO2jbetQp82Aa7IZppI+DyjazDXbTKAfOKY53/YwUcnj1SIs3D4bx9v4wMO2Ue0MAydQAMDUE3NEBkzq+aF9MD/KccfraEC6MD8Ku7XMCZITNJIlI6CZnz2wxsOlGmSYknHvK+adGKSZpIa2n57Q4To2zGUCJAnQsveeYxcji/v6jRoJPApAhpGVGZum7kNfyylkDfrxtxtNHJjx/NIxX073SPJe0O/82pwnKmpC2Z4Tmij9fG8LVE/04YRiAZZjmgg7YTGPs3KGbiKV/H7qblahIj2QRGk+MkuNlpj21HL75AHS1r67IQGU2NXrdxB2LGTz/ddyUk6uvO/s6Rnh/y9UKEnb6oCQ3HZOTd5Z6GX3S4z4bDXhv6i7yMpMRvmMrAr2+5n+IHECK/XXuqsGoYRB2I4Uf6GI3sdlE3s+zNi2mLxvw130DXj4cfjeA5KyYHMbbqV68mj7OF/FPt4dx9dQgx9VIswn4aBTAzIbPNAs+OYAEi9lsdGk+gk8OIH1/Ol4ASNuS0HtSbHMGQNKk9H4zAA7h9hU9fr1vwNOfhvHsUQ//BvotPAdkAOn3kek5A57Yfnt3GL/dHMSd8wPseLJqRhhAq3EcRrODP2d0+Cj62iqhyoiGOmvu6g659nOHbz4A28vSQUKFmPITAtn5Qt2KqROSJNTa4HuXJiQAE4K8WAPWVSrxn//89knBWuqHfTYAagb7ER8WiIggLwRs+WrWP4V6TlC90oGjXTg9ZsaYTQerTQ8y5eiiJfONvIGPb5FJpsPrnxYDkLQgxcnIQ9iPt/e68Xr6CF79OIDf7w7h9vkhnLD0sUkpLnq+8Al28/zC4RAKiTjFQlkmAkAneC4ArSbQ83zzMJswajGzuL+3HH7x+TTScaPmATyYNOPPn3R4+rgXfz86glf3j/DNhAG8bZAcMU4vqPCGipGC9H/eHcSjGxpcmRjhVSCkAcmrbDSNw2qy8kLl4a5a1OUnor4gaZYThsxPmvsxaG6mp4BRmJxi7CjPAIk6OxqJwZRgQR2QvkE4az+CcDaAwgSN9NmErvaWpfLwyY/7LACkytkN1ZVIiNzBi3GDfckkkd8ZN3A+5lDPAZyasODkCQusdq0LQCoxcfe8Eb/e0nP61duHGjY/30w7zU5hfrIJKgAk72AvMEUAHge95q/JETy8NIILjiHYLSMuiAgmAde7RoJrqQDSey0EoBx+ASAtupUA7MPP9014+tMgnv54DM8eEoDdeH2vl+e0ZFqzJ3RBAAfx191+/HJzGLd/0HOdnFEDzanHYTY5YDOa2RmlPdyGhuI0NJVK7duE+SkHUADnPgrwxEjwkbeUSg+S80UAOPv/PKMBqS9EjP8mRAZsRX9P9ycHa6kf+FkAOOawIyNRWge40/t7hPpIAPL8gMpT+G5AWW4qNH1HcMJh4fQzy6iWHRqkAU9ah/Hoqg5PKf41peH4F5lZvE2PZ4kTwLtDAAlpwykt3t4z4dUdK/6+bMHUhIG9lC6tZTYyVAKu+UYBpvtznHNJGlEmdAytYicRALqP4v3EKFa903jtvB1PHhjw8lEvXj7owYv7x9kEpXng66lBTkMjjyjL3WHQuZglU4N4OdnD54vM9nMTOnYYEXg07yTnEnleh48fQnuNkisEkBkqHDD1OdFoyo9Ha/Hs8IMcQgGeayxJ4bhiergXp54tBcCUEF/kKqIwarMslYdPftyaB5D6UjTUVvHiWl7l7r1eNheQGjWSeVJVnAntYDfG7SaYzDpY7JJHkQA8bRvCLzdH8IJNy2HgRj/e3B6YddHNQCigczpjGE49cNcMTDrw6qodj89aOTwgAKTRHSz3xwIU9/1y8MT2hwJoMugZ2hvnrXhxX48393tYe5MGd8m9Xry+1y/BRxC6w0ePaf9kH57dGcT0ZR3OTYzAZtYwhJwPa9DihMOGwd5jXEmtLDMeldnxDGBtZiRICL73AZBMVtJ+CTsptPD1OzUgBeKpJiiFIKbvTX1ysJb6gWseQLvVgtSEaF4Fz0uQZACKTqkEYKO6EEZNL+xWI4aH+2F2GFwa8KxjBH/cNeDt9IgzFUuDt3c07G4njx9niExpJU3I5ugAMN0HTPfwSKbqm3ukBS14e8eG/1y1YcyqgdFmYhHgyEd30D42gKQFyASl8cYPdryZNgFTPcDUcTajce8ISGhO+/becWfwfS6ANP+TtGMvnt0dwP2rWpw7MewCkGKRJAxg31HsqitHaRYBKGlAOYBtJUlcV0ZUxJ41igwYZ294VUYkhPaL9P33OwEM817H/ShbaiuXysKKHLemAfz111+hLi9BkM9mXgVPAJK5SXEhkRFBZigB2FpfAaOun137PQPHYLRTNr/khDnv0OLJXRPe3NMAt4aBWxpXMrIAkEaKf9EFSBrizXQfXj/owev7fRwzfD2txespM15P2fH7bQdGbTMAEohy+Gj7UwMoN0Fv/ODg7+ma55H30wni22mC8DiHJObTfvz72TydAfDs+NAcACdGrRh0AliSETsLQCqbQfAtGcDSFNZ+SUGS9pNurMK6kTlgRBNYX2qDvoGrlx/Y074iYC31Q9c0gAN9PQj224Kw7V68+JYApLxPAlAk53KQ1m89GqpLeN0fOUSoForBpmUzdNRixMVxPQPIGpCC0LcpE0SHt055c0eLV5NavLwzzGbqi6kBPL/Xh7+n+3ilxN/3R/DHHS0eXRjC7YleXjtHq8uFBqSRPlMuVpsZciFASOT7aFv+GrFN+8XxSxlJu9JxpAFpm1by37T34/GpAby4acLruwbnjaV3xhTlueAIXk/NJ8OcnP58aggPrulAAFop4duZmE15pwSgUTeIrrYGFLMJOqMBG3Kj0KFMRXtpClzxPWXaLG0oKqHRSJ7PrEhfxAes5/+rNP+TUs9mOi9LwFHXKhJqdZ4eHYoxu3WpLKzIcWsWwMuXLiIrPYnhC6eGnX6beRW8HEBqUUXuaOqU1FClxJjDKmkemxl664gEoFUKQfxJKwEekJmpmxfAl3dG8OL2MM97nk4O4vVjE/6YGsa9S8dx7cRBXBo7igv2Y/jB2oMzdg1G7YZZWk/AI0Z30ARI7vvF8fLxQwAk8AhA8oiSk+SMVoPLxhHcsEtpZb9c1+KPySH8/WCQbyq0FnB++AhICcBn08O4f12H02ODcwCkuTYt8+psrUdhRpxTA0aiPicSu4riGUCGsCzdBaHcBBUA1uUruO1YSvAWXmwrnC8i82UhAJNCfVGYkYSHDx+uCFhL/dA1CeBffz3hdmh+W7+H7+Zv2AFDAHINGJkGXBRAi+SIofKDV08Y8McdvTQHXADAV7dHOAfyxa0RPL2jwy+39Zi8NIzzjm6MGQ5hTNcDyqahcoWUlUJAUSEjgsXd/BQmqJj3yUd30/R9Xit/n/m2RWiC0vAcunGM6xy8fpESuWnl/81LGkzf0eCXKQ2eT5FJPZ/2kwCk9ZGUsP7ghn5BAHXDfehoqUZhRowLwMa8GLQWKxjAPWVpHNsTQXa5NhQAUtZLUsgmxG2Xaz/J/BRebgnC2RowOTwQdZWlePnixVJZWJHj1iSA/X3HEbLdB0F+W5AUvRMh/hJ87gCSGeoyQWUakGpgGqx61oCUCH11YgRPbuuBexT/IhOUluSQGTrCZuirST2vePjrjgl/kpPlzhjO2I/htL0PJ2yDXC+FtAovy9EZYTVYYDWZua6MAEoOktg3HyTiOTHKXye2xXPzvX6xfQJACpSLpVi0KoSzZmwanBgfxtkzg7h+WYPHt414OmXFs3sWvJgy4dWUgc8Fn5MpaYHyMxeAZH6OSBqW801HONRDxa7am9VOAKO5TEVLYRzaShIWBXCXMg0EIGk/SrqmFe9UamJm7ucOoAQftYsTkpkQjpGh/hWB6n0+dM0ByKZnRhJ2+G5kodqe3C2X68BIThi6M86eA25kE9SgG4bNZoPOIOVWUibMhEWDq6PDeHrdBPCCVHLCDODNlWM84qEN+PUsHt+y49oFMybGdaDVCbRyQeRfSjmXZtA6O4KPitoSgCRUzp0KPH0soQXF84n88+g7zBGTHVZaE0kw0nc1U7qaFlaLBlbLEE6dMuPSBRvu35rA73cn8OKuDbhDC3alFDVaoCwBaMRZxwyAZOaaTTqMOcwYGexGW1MlijNjef1eQ34cm5/tpUnYU54CoQHbKjLQWpbuEqr10lGVza8h7bdz83/J/p90U5WmFqL/HzXakYpvSa3lqL1cUlQILvxw7n1YWJFj1xSA1Ga4tDgf27Z8NwtAgpA9oD6bnHfA73nuJ/5BNC+sqSjiimAOh4OrQFPdTypHQdW+Llj68PS6BZikFQ601IhifBq8uT2M364M4d6FETazLLZhDFv0GDabuWQ7mXK0AoBGXl3hhG9NADgflM59ZCHorGZYxiw4c9KIG+cM+P2mDW/p/JCD6s4gXkz14ekDPR5ct+DsqLTSwsx9JGYA1AwcRWujigGszo9DU1Ec2krj0VGWuCCAotgSlZwoSNzBBZcivL9aAMD1zjbiVH5Sgi/UdxvC/X1QqaQiTH+tCFTv86FrBkCu+dnZgR3btyIyzO+9AVQWZmF4sBfj4+Owjzm4spcE4CDOmnrw+3U7MElCEOq5PAPBd2uiG6fMR2AxHOOFsQQgFTSimqFyAEmTiHLucgDlmnCOFloEgqUeK97ffVzq6+c7zmgxw2A1splO2vC0fQB3z2nx5IaJIaTSFTRHpIW8D66N4aydND85eSzcV4ISHUgDDvYdRku9EsVZ0agtUKC5OB7tSgX2lC+sAQWApWmhSA3biujt3yImcB1rPdJ8QujmGuU7P4CJkeHo6T7yPhys2LFrBkC9bgSBVF4+PAA7Aza7zE82QX2cGtCX5gDfs0j/IKlFMWnAwuwUDPYfx4kTJ3Di1CmuDEbzFodpCKdMvfj1+jheTJ3Cm6kJvL7rwMNzg7h5qg/nHb1ccIkqgemMQxihKtJfCIC0DIpM0lFzH86P9jOEpAmfTY3i6V07/po+hQdXzuKsXbICyKRloKmvhsOMgd4DaKorZQDrixVoLU1war93A5gW4cWOFyo5ERdEoaUZ+KQwkwRglM9Gqb24D2nAbSyq4kLcuHZtxaB6nw9eEwCe/+EckuKi2OkSEujFc74g3/VcejDYRxopAC9NwKU4kBxAKkmREh+Fw4f24fTp0+gfHHACSAtJNVzv8vppE57cv4Tnj67g7g9mnLIcwwlrD8ZsA7BbB3neR7FD0gx6s1MD8npCWlNoc86laD4lRJoDCs00n6ZZzfsofY4ApNX3VJzYYerjVR4XHAO4c06P36fO4NGVk7g8MYET5lHYjWOwmUedCQY6nDkzynVsyovToS5O4VXsbUoCT8jsOWBFejjI+ULlBktSQ5zArUOU//eIDpCSK9ih5k/a0Amf73oQgFE+mxHlvRXJIcGI2x6Ipurq92FgRY9d9QBO3rmDvKxUJ3zeTvg2zoIv1Hu9y/vFgVgf4YSRNCABGBsVgt3tLdwNSKvVMoDkLKCgMdVeOTtmxK0LEzh/0sSFaimTxW7T8KoJypihzBnynLJpJgOQFvWSzID3mQFooSK85JiRQLRZBjBhGcKN03ZcdlhxUm+DddjCha1MeqnSmtEkHd/aXImS/GTUKNPRpExCe1nyggB2qDLZCUPFhJNCtjBkBJpL2Nxcz8uP5ADGeG9EjPdmRPt6IXjjBqRGRsGk060oVO/z4asaQFpmVKMuR3iQL0jzBflv4pifS/v5ruOVD7T6QZieCwEYFhyAeR1LFwAAIABJREFUanW5pPlsZheAXI6eusGSQ8Zu4YW63JzFaoRx1Myit0s5nQQfzY9IZryMNql7kNnK80KaG0oyj+dxGeZ8H19rSguBXesRuQ6NtCpfugHp+RydNplwVm/FuHYc1pFxBtBssPF5pRIaQ4NHoa7IQ1FuIhorc9BcnoKOipQFAdxbm4/avDjkUJ/3gBnwaL0fi996TqigbQlASQvG+KwHQZgeFoz4HdtRkp2Nnx8/fh8GVvTYVQvg69evcWh/FyJDfBAR7LMofCLxVsBHa8GkXNDvGEwqURgUsA3FRXnQaIZYC1JxWhLSglSunVYKaHUaaPWk6czQ26gTkNSKixqRcC8EJ3xfFIDOBcGSU8bI3lHyko7qTRjXWjCun8CY8RRspgmpbwTnuepw6OAelJfmQlmYiuaqPC4jLwFIEDrFGYinMAQ13MyLC2Cvp2KHlE5IoC0O4DoQgGSGUuHlUF9vdB88uKJAve+Hr1oANUP9iAzx51QzCrS7tB7N+WSaL8z7W1D5AQm67xDtTSKVpqN9pBkJwG1bvkd2ZioOHz4I2+jorMWyFLsiAE0Go+TFow6xTm1Fmk5sy0fqGktCffPmlTWh7RbT0nJNKGl9of3pPNDcltb/SSEYuzT/o8YtVgvPAw8e2M3l/yuVOWiuKkBrRRY6ytPQWZHKQjFAFlUW2sqzkB7mjaSgTXzjDNnyFc/9aP4X4b9hllCSNQktN4r1/R7RfhsQ7bsJCaHbkRYbhUsXL7wvAyt6/KoE0KjXIiUhQgafbM43C751DJ8cQEo/k1LQnMFa/w2gdYI0B2yoq8XAwAAsNjITZy4w1oRGEwMoxbJEi2aTK6Au5ngCwi8HwMUgnXE0zZwPCcDenqNobqji+GujigDM4bQzho7MUWUqOpTpaCvNQG2eguFTbJfA4vgtOVqWCGCU3yYoInagtalhVVa/XozwVQfg+R/OIiU+nLuaUmqZCDOQo4XFR5r3keYT2i/C+2u+c1L2C3XFoR5x8YEboNixGfFBXogN9kNRXjZo9QQ3mmRT0lnkyExaz9kf3WB09kafCyAH2inWJzSbTPNR40p3LSi0hRhdrxOvX/WjuEEtFcDZ2T5kUXS170K9uhQNFYVzAGwpUKClIBENeYm80oGsFvrfxQduYiHP57sAlKpfk4bchOhQf4yPjS52ra/K51YVgHcn76A4Ox2KsO2cWB3sQ5pPEoIvjCCkchPeJALAryEApHlftM+/WVLDtiE1zAeUFZ8QHoiGGjVIs1IgXkBBrnbShP8EQILPA6DcKSWBODE2isP79qKhqhz15QVoKs1Ca1kmdleks+lJZSmoRkxpchgit32N0M3/4qkDAZgW7us0QWebn2SOChOUtCQBSI8JwPrqilUJ2Lu+1KoB8PHjn1CrKuEFtdTHwaXxnJqP4JNEgo/MTgJPkq8QuO5/c4PGhB3rEen9FVfjUucokBzmh0xFBI4c6OIVCqOjo1JjEqdDxWWKchrVXM0n4ngzJqjTy+nUep8vgItrPneNPuMVdgI4MQGDbgT7OlrRWl2BuuIM7FJmcLHerspsLrCkTKLGmt9hx/f/l6cNpAWprzuboBTjc8JFgMmF9tMNOCXCF7GBW5AQsQMnxsfeda2vyudXBYBPnz7Fvo4WBHmtQ9T2rdjpRSXHnSbnggDOwEe5gtQdNcLrf0AAFiqCUJOTgLL0WKRH7kBVcS5GBnsxarPBarV7APwI5q87gJRzS0uy+o4d5uagjUrSgNnoKMvicoQVqWFI3rGBNR9pv5m5O4UXaP4naTs5ePJtcq4lhvgg2OsbNFSXr8ref0shfsUBpJ5+h/bugSLYj+GLDNjC8LlrwbkacDaABB5JQfx2NBWloDIzDgUJYciJD8PRzlauHuawk/fT+lEAFJpQjAaLFUK4Fdicz30/DeOucd71eMbMnu3BdO0X32eB8V3v7/68O4BkaZycGINRO4wDHU1orypER0UumgqSQaXq00O2IMb732x+Cvgk59nSAIwK3AyShPAdOHVifCnX+qo8ZsUB1Az2ISFyJ7cPE5qP0srkGtAdPsn5MhtAMjupahbFk8jUqUiLRk7MThQmR8M82IMxqwV2i2Q+uoCwEAROZ8M/NEEFeGIU8IlR/pkEgfsFvNyPXaDJYpez9i0Anvie7/t93AGkZV9jo3ZQyY/B7v3Y11iONlUut9zODPOCwu9bJASsA3k+yQwlifFxwrcEDRgbtBVRQd7YvasBFDNeq38rCuDpkyeQGhcutZPmOd46hG77zulkEXM+aYzYtg4kIt5HHk9apBkT8C1XSqZWxZRxT6XLqR9BRqQ/sqODsK9BhZMWqltpdK7PIw04Y4a6ABQgzjvOuNvpwmSArBaOeXGAniqOzeMJnX+f9LqZ56TH7hfwP30sFu+KceH3k+KZIoyw8Djby7nQ+4nfRd5mXhxs0nO+7aG2WlTlJoBKS5DmE0LzPjY5nasbaIUDi9zh4ifmgFsQFrCJJWqHF4oyk3D1yqW1yh5/7xUD8Ma1q8jPSuVwA2k8ybMpPJw0zg+g5Hz5ltOVKGWJypQTfJRDSE0hpRoiIUgJ8eY5YP/eXVwmQgLQCrOJ4HMCyGljMi04L3yShhTOGHcAKfAsZO5F6X5xSxexdLwIXXwEAOepukar6Oeslncu5l0YOvn3fz8A6VxwRW4ZgPmKYER4/RuxPl87AfyGEyfopuoCb0EAtyDCfwbAiMBtOHbkwJqGj778igD48OEDqEoLELbdG5u++j/cOPNDAEzcuZnhayxN5p7hTcoUVOfEICc6AHEBG9FQlAFT72Hu5EpZG+TJ/GAAnc1NhMYUZSHk40IXuGvFuuj9sJwr5J2wic/mi54bz8g6LTkfS81bRBMXqUw9lap3fb8FVtfT83NvLvPvExrQHcBje5qQHuGHnRv+H5ICKX+TtOCHA1hakAlqyLrW/z45gE/+/BMtDXUIDfDieF900DYOPbwvgBJ8oSD42iozQfDRYs7KrCikhW5DZlQA9taXwdBzCNbhgZkFo0YbDCab5Ih5hwbk+KBTK7rqqTCIUkKyvKHmnG1XtyL5BS9tC1iWelEvetwszSblts75Lhap+67owiuNOm4KKspqzIbT2WHJDchFv4fzpiIAJEuB09WcGrB33y6kRgQgaP1/ISVosxM+ShmkvN3304D5aXEwGbRrnT3+/p8UwDdv3qD78CEE+1AJwS0I83EW0qWaHj7SOj5OqHbWdpRvizkgzRdSQr1QX5TMJieZnbTYs7YwDmUZociJ9uN5Bs3/ejqbue20TTM4B0CDyQISk8kkBeJl5qfQaqTtdPoRTuCmmimid9/I4HHuamvRD0A/cARDx/ZjqLtzRo7uxcDhTmh7DsKq6cGYYRDcFFQ3AItuCKfHpHbOAkQal3Jxz3cMvZbc/eTsoPbWZv0Ql+A/M27BuE0Hm64PxuGj0PcfhOZYJ/oO7MLR3Y043N6Anq5WDB3dD11PNwaPHoSu7xh/vxkoZ7o5ie8633eQ73MBaCXz1cLNYKj7L52DZlUBgjf/D8K3fI3Ibd+y8JSC5vZu/3Oq8yKXwE3fIiksEJHbvbG7tQnkPf8c/j4pgBaTERGBvogK9JXgc9Vw2TDnHzDnH7JN8pARfMXJobPgcweQ1pMVpURh6FAnzlgMsI4MwqI3wqQ3w2iwQm+0MnyU1U9aTq7phIlJI5UUdDjsGB93MHxU0oIW9e7d3YJDnc041FGHA7vU6GwoQ0d1Idqr8lnaKgtA0lFdjM46JXsASQOQaI8dgF07wAWdxEX9Piae/GKnbQEgldynPoBUDJd6YAwc3o3+g63o2duEY5112NeoRGd9ETprCtChzkd7ZQF2V9H3K8e+BjUOtNTiUGsjju7ehe7ODmj6umEYGeL2ba7vuYQbhTuA9FoCkNZc7qkv5+TpWQAK59o7AKRka8rpzUyJx4P7058De59WA165fAkZSXGIDvJD4NZ17wbQaZrMmCjr2LEyCz6n9psPwNqiTJj6j3C9EotmSAagGXqjeVEA5RpQb9DyMqVDhw5gz552NDbVo6WxGi2V+eioykVXbSH21hWx0PaMFKOzpgi7VXloK8/hGBhtH2lWwXB8PwM4Gybh8HDOrRZwpIjv5hrJ2eGsP0pmsl6rgXbgON8IuqrzcKC+kIW2SfbXFeBgQxEONSpxoL4YXdVF6KoqwYHaChyorURXVTnaK8uwZ1cdLyka7O+GVjfE4Rr+zHfMX2cAlH4H3yCogpxRgyN7GpEeEYCIrd8h0msdi7Bs5txwZRqQSors8NmAmIjtsJmNnw189EM+iQb88dEjqMtKEBXkh+ggH1C7aDY/F9OAbgCSV1PA11qRwU4XCjuQ6SlEmR6CzGgfJIZswS51EWwj/Tg3ZgP1Zp/RgE4AqTaoUwMajfqZnFDnHI/amFEzl8N729DaoJ4lHfXl6KzOxuH6TPS1FULTVYbRnkaXOHqbQGI5WgvtvkoMdCjR11qKvZXp6KxIx8DeRl4AvCwAEqhOCGneRav9qRwgrUDvqkzA4fp09OzKxUBHCbT7Kvg7jfU1Y7y/FaPdTTDur4V2TyUGW8txvEmJg9VSwJyXEDWWY8+uGhw90AbDcA/3sydtRvNFAmv295eAEx5hGglY7uRLAJpH0H+kEzkJ4Rxq4pCSlxRa4u15NCCBR9UMdgZsRHREIA7s7/zH8N2+fQNHupS4dDwGt/uCcXMgBFf7o/DD8UToj9Tgryd//uPPeJ83+OgAUjWzrt1tiAj0AZWQp/KBVMeFQw9udVz4LugGHoUaKLFamvNJ8z4BXnV+DKoKJFHlRaEgNQipMV7IUgSis1GN01YTzo2NwqLVOueAZHK6iwEEIM31BIijVj0c2mPo76pzabfDTWXoqi7AofoSaPdW4YZ1D+6f2oenNweBRxb8frUHf90YwPNJKts+Ajw24cX0MH69fgwPfjiIS+ZWOHqqYe+uxgn9PjYVdQYja2IKfssvXHHxSlpO6glPfeHlIuJ7RueCWb1JD51RC61hBEb9cfTtK4KjtxzXRzvw6EI3/p7S49k9A57f1bO8mDTi1R0jXt424MUtHf68PISpsQM43VcDfVcJjjYU4kBtEdqVmZy9crChBJr9LThj7MW10zaMUcMZqnnqpqndS+uTaWy36TFq1aK/Zz9KClOwg3o2eq9HxLYZifSmaciMxARsxfat38DP/zv4Bm5AeWUpfluGNtOPf3qE/r0q/GpNAE6G41HfBjyxhOL3sXyMHKzAy5cv34eff3zsRwdwZHgQoUF+DB8V0CX4aIHsDIBSFTOXCSIDkBJzCT5J8xF8MwAyfHnRUOdLUpwZgsx4X6TGbUNWUhCO72vDSasFp0ZHYaVisc5Ml/kApPkezQPJ3KQV89TIs7dDjQPqNOwuVfC4rzwZE8db8PN5g1Se75EZrx9qXfLqwQhe3tfg+b0BPL3bi2dT1Piyl9tdv/1VB/xux283ejB9/iAeXBnESfsAqIELFcOlVfkcPmCvo1RjhkMDImzhdpGzZhEeSuoVb9FBP0K5rhr8cNaK25et+H1Si6dTA1w+nr/X1BCo3wMe6YBfbHyTeD45ApIXd7V4fU+P1/eMeHZ7BH9d1+LBqUGY99Vif0UaDquzcLAyA8cbC6HrVGO0fy+seg30ej1GRoZZZsCjubM0f6aR4COhtuA6bS9U6gIE+EnJ9osBmBjihU3f/W/4B61DarYCN25e/8cXu3iDiyeMuHw8DC+svniq2wKcjMfJA1G4efmUOOSTjR8VwAvnzyE7IxFhO7a5KpkRfCF+Uj9vahvGtVx8JVe0mO/RKDQfwUcaj72dNOcrSmST0x3AvJQdSIneiqwEP+Qk74ShvxsnqBMQOSpMtM6PIJQcLsLxIh9PnBxnDXjkyCHsa21Ad2Mxjlanoq8hG7b/z9x5QMdVXW17JLlXMB1C6DWQkHz5QgIhCQRS6MWAq9x7L9jGYBv33m1Jljs27l2992pJluUqqzdbvbepz//vc2dGI7lgCGR9Xutd52pmNDNXvs/d++y9zz77VtN4JQJKUqHqPJSehqZzWGpP01QWSV1xKPUlYRgrorFUx0NdIk3Xgqkv8qc69yTlWUcwlPtTmXuIyrwDFGceJOfCKS4le5EUfZTYkGNqQ8+4ENm5KJqYEJF0WwtXcszTidsnP8vrpCFSYnAop4P9uRgfSPbZEMqzY2i8FoO5JBzTNT/0BdJE1wdzoT8UBUOhgBYENXHqu5qrYjGWxdB8LQp9UQym4nglai5C6RnKzgcQc3gDxzbP4dCaWexfMZ3Dm5cQcOKI6jIuEVj5u14PoA1EK4CxIcREB+O+ZTWDBmhtJEf3/QTRqD4fq9H2s1wTM8Z+wrSJHzNl+lAiIkO/FwiJikqU/fskb9TU0EDi4Vk0hXxGc0h/sg9+TOShxfbI6ve9hzz/U0VhfzYAS0qK2bh+Ja59P8T1s/dUS4nbhU8AtFk+gU/ye9Ip2dH1bAvgnCkDmDWxD3Onu7Jm8XSCvI4QF6HtoX47AKaeTVEA7t69k42rl7Bm7iQ2zhmj5m3icor2r5+j9jXYtnIGy+aNYtG8kSyZN1zpmy9dWbN0PHs853HywGpSIg9w8fQRCi56U5rth7E6mtpiP+rL/DDWhNNcEUVVfjg55/25mOBLYoivgik+KJr4oFjigiOJsQIoINogFAClDWJiYCzJAdEkB0pzJF/q889SX5hAfVEU9YWhSs1F4ZhLY6A8gaK0U6RH7SXm+Aa8v12Ex+oJbFw1nk2rxrNh+XjWLhzDirmjWDJzCPOnDcBjxXQObFlI6FEPju9YptpJSEuJPZJzXTqb4wf3quDPubOppKWm3BLACLGAMWGqVeGu3e4MUjtZfcrovi0a0+8zRvXprT3W7wNGDniDaZM+5dixG/d4MRoMpKcmEnF8M1HHVhF5eJlSxOFliMIPLiHi4BIiDy4m5sACUo4tJnbvbJIPziH14AzSD36OKfxzGoP6oI8cS+rBccQeWkT4weVEHllB+KF5RB78ishDXxN1aI4a5VjTXCL2zyX62Epi/PaSefnHt8H4WQCUu8OxIwfUpimD+76P62fvKLezxfJpvVocc3+zRvZjzOfvMOrTf6j2BNfN+RZMQdqbC3gafBNZ+02L5kx25etJA5ky6hPVhSsy0EsBqAIGoUEkxMWo9Wnivh05eoitW7ewevVKvvxyJuPGj+GNv/+N1157lWeffZqHHryXRx66lycfuY8nHr6XX9zbkwfu7E6vLh3o4qTDSaejnVOLOjjr6OSso2s7Z3p2aMcdHdvz6P1389JTj/LWqy/xyduvMGHER2xYNpnooB0UZ4dQVxJFfWkcDaUpNJZc4lxcGAmBISSGxnImMhnfI6fwP+lFWGAQ0eERBPkHqGJytaLfP5g4/2hSAmPITEimLPMC1Oao9yrLCyE1bh/eBzexYv5UXD/9B//660u8+run+PVT9/OLXh3o3kFH9046unZoUScXHR2dNHVup6NHJyfu7tGRB+/urs7/4ft6cd+d3Xn0wXt48tGH+cPvf8cbb7xB388/ZdSIYSxevJCNG9fz3YG9ePmeUtuABwX7ERISQGRUKLFxkURGB3P4yHdMGDOcEf0+Z1RfTWMG9EUkjXVH9vlMTU+mjurNvj0eN2wxcTU3k8h9c8k+OhoSvqY6eKJSTcgUasOn0RA9i6bY2UrG2JkYIyfTHDISfZArlqD+WII+xxLYG3PoZzSFDqQpYiwNkTNoiJpLY9QiGqK+pjFyDA0Rg5RqwwdSEzaA6tB+mkIGo4+cTmPUbKrj5lGe5EbYCTdKrhV+r6Vu+4KfBUC52MePclWTbZlwD+rzrnI7NQBlR9PrAZTckFTDy0aMq2aPV/O9jQunK8ungTfJCtx41n4jaoFPjudOGdQKwKggH2LDQ1Sw4NSxwwx2HcCrf3pZAdatWxc6de5Ahw7tcGnnhJOzjs5dOtKtSwc6dnBGp9MpyXPt27vg7KKjnbMzLjonOnfoSHsXFzq0a0/ndh3s6tWlO11dOth/11mno5NOR/f2TtzZ2Zl2Op2C985OOu7rqePV3z9E309eZsnXI9njuRL/owc4deAg3gdPkRKbTHJMIokxcZyOiycl4TRnkpKVBMATh45xeMd+Ag5543vgEN9t3cj0cQP46O3/4enHXXjoXg2s9tbzkPPp3F6HfCfbuXXpqKNbhxYJdB1ddMjNREluMM7a77ioY+3v4uLiYn8PeS95rr2LEx07tqdL105069mNnr168Jvf/Iq/vf5nZs6ahpf3cWJiIxSIR47uY8K4EQzv3wKggCjwTRg0kImDXZk4pC/b3NfecI3fpZQ4YraPgKgpGENHUO/nSumxT9UxUWMhfiLETcISPwlz3HjMsaOwRA3BEtYXgj+CoPcg6B0Ifg9z8CfowwfRECkATqUpYjrm8GkQNgYiBmKO7K1kDPsYfcgHNIa8rym4N/JZlsjJ6KOnUh87Cy5vJvbIMrIu/TBr+JMDKEnSlcvnI5Zv5CDp4/mh1tGs//uqm5nApwAUCB3mfqN6/0vBt37eZLWcSIOvBcAW4K4HcM28CXwzbbACcNrIT/BYNZeIYB/CgwNIjI1ii/tGnnvmaXWx2C5AgU4A69zRha6d26uLzfaci7OO9u3kwtLx/NOPMqDPxwwf3J8pE0axeN5sNqxazP6dW9i3Y7NdR7/bpo5lK+xNqxcwf/Z4Jgz/nA//+Qqv/u4Z7unSnp7yeboWEFwEDBcd3Ts606mdE/fc1Yunn3iSCWMnUFVerW6WxmY9jfUNGJqa1c9JSYl83vtTHvvFo3Tv1Bl5j24dnBALZvv+ArsNNrFkv3nucdXYePLYYSyeM1N9v307VrBv2yKlPZ7z2ekxnx1u31i1iPlfTmby6OH0+/h93n79NR5/6AE6OGmfIe9te3/bZ7Yd5abl0k7HW2+9zq5dWzULGCXexz4mTRzFiAF9kI1UbBre9zPGD3Fl2Oe92bx2FZUVFW2NBTnpF4nbN0FZLX2oK2VH36fi+IcQNRziR0PcKIgbiTl+NMYE0UgMCUMwxvZDIDKHvgMh/9QU+jaW0A/RRw5WADZFTsYYPgFCx0DIEAjrgyXsUyVzaG8MwR/RHPyhpqCPIXo4lqixmKImYoiaDmeW0xS5gNMH51PyAwoFflIAJYT73bc7GNjvPQWfDUDVPr7/+2qv9hvBJ3O+L4b1VpZP1vJtXijF1dPZsGCamve1wCdW7yYATh3K15MGqRygx6pviArxJSzIj8T4aJYvXcizTz9pv0DlYpELxPGiEWshF+4DvTryh988yfL5s1SJWcb5BIqy0jDWFyuZ666iVFuAqTpfyVxbgKWuEBqKoPkalvpcsJRhrM7iakY8l5NC8Tm4kwVfTOTlF55RF6+4e/J5ApDI8bv85W9vkJBwGrPDMrfmRj0mg4E9e/bw0EMPqdc7t9est/yu43vc1c2F9/7xKtKNTHYuupgUSWNpNsaqAmgogeZiaMqF+stK5tqLGKvPY6hMUzJVp6vzMlYW0ViaS+3VLGIDT6pSu5mTR/DkL+5Sbri44h3afLZObmwdXOjcpb36jm/8/S+c8jpmt4BHj+9n8qQxDOn7qXJDbQAql9S1P2uXL71hY93GhgaCDq+h2HcAJA2h1ucjarw+ojHgc8zhrhA7vEVxw7HED8ecMBxz/CCM0X01AEPegxCxfgLi+1hCemOIGEpTxGgMEeMwh4+B0BEQMhBC+0Ho50qWkM8wBfVGH/ixpuDPIGooRI1UlpDIiTT6j0EfNJFavylEn3C77uZxswd+UgClL8esqWO0PM/gTxkx8GNl9aSPp0Q8VdSzjeWThZhSPC3QbVowXS0nkg7JsqxIJMfr501UkpUONtkeWztvstp9dcHUEXw1YTBzJ4/AffVCoqU9uuxVHhuJ++b1PPv048rKieVzvNi7dmyn5m/y2B+ef1SVbMkeEaaqHExVWUrGyiuIDBWX1Wj72Vx5BUtVBjKKjBUXMVdebiVLVbp6DTVZ6EsvU3A+Ev8DW3jjd0+p73FHJx09uji3ssC/fOQJ9u45gMFgAYHQrP33GZoMLFq4RP1eh66dtfNwarmZPHxvJ4Z89k/OxfpSfiUBfdE5qM6FqhyoyNJUmYWl4goWOZeK87fQRYzll5XkHKjLRMam4vNUFaSwePYYenXR0dH692znon0Pp3Y6lKyP//Mfb3Dk0D5iosORnKC0K5w2aTwDPvuEIX0+Z8zgQUwaOYKJMo/8Zh5lZWU3vFavXEwl9tiX1IYNgWhXar0/pd63L8aggRA5HKJGQPTIFsWM1ICMGooltD9mNe/7DII+heA+ENQPS+hATGHDMUaMwhwpAI6yAjgYQlwheKCmwP6Y/PsomYP6Q5ir9TPlc0dC5GjN9U2aDtHjid47g5Liazc8j7YP/mQAyt59a1YsUpZv9JDP1Dh8wEcKwJbgywfK7bS5ntLVSuBbMWvMDQG0wSfQCXA2+Gw/y2MagJNV+4mvJgxlzpRRuK9erCovJD8m7eZbAejkZAewW5dOat4jc7XP33uL1Eg/qM6DykyoTFeyVF/CXClgXVQXq+3YNlJ1CUvlRSVz+XmouKhke0yep/IS1FyBarmQMzAWn6PgTAgzRn7Kvd21oE7njk44qe/mRLcevVi+fDXVVfUagAKhCfJzihgyeBhOLu3QCXhWKyM3j18+1JN1y79UN4ymq2e1zxNwKjOgPB3KLmtjRTqUX1YAmsvlnDTJd2+lijTMVlkqz0PVOahMw1x2FkPJWaoKkji0azXPPX6P+nt+H4DRkVI0HsLJE0eYPnkCrn0+Y2i/PoxyHcjwgQNYtmA+cg3d7F98pDdnvadQFz4UfXAf6nz60Ogvlkos0SiIHm2VA4QRwyFoAJaAfhDY3z6igjGDsYQMwRw2XIFniRgD4SMgTCzgUE3BgyBoEPgP0BQonzftgLcKAAAgAElEQVQE5H0FegW+QCjWdxQkjoOIIaTsG0dcVPDNTqXV4z8ZgCePHWFo/0/4/IM3GTf8M2X9VDfr/u+3zvtZLaCsZpdUg4Jv0TS1kn3Twql2qyfwOQLoCF9bAFd8PYkF08fw1aRhdgDjwwNUEXB8ZDgem9bzvM0COgDYsX07dfH85pnH8Du8G0ulwJeF4ep5DUCB60cCaANRwVd+EUSVl6FWgLisPqOx8DxTR/Wls5NYwXZWt1gLdgwfNpr8vKtgAUuzSSkqPIqXfvM72nXopL53h+7aeN8DPdU+fE2VWaAvhLosDXb5zNKLUHxBGwXCHwGgqfwsptIUzGVnoOI8VF9WFtFQkcHaJTO59872/BAAZ0ydxOghgxgxaCCun3/KhjWrqaqqanVhtv0h1O87MkO/pD5ymHI/xfoZgoZApABng09GK4ARw7EIaAH9WklAFAAVZGHDQKxexCgNPoFZFDxEU+BgEAUMAht84cNvDGDkMIgegSF4INle0wgLPNH2FG74808C4KWLF/h65jRV7TJhZD8mje6voBPXU6zfaNvGGrJ3nzXwIvAtE8u3aJrq42KD71ZupyOEmgs6WVlAAXD+tFF8NXHEdQBKJPRmANpc0fHDB6q5jgKwroCmglTN+lktm7hqjhbQ9rM8djMLaAewQizgZc0iCXw1GVCVib4gDeoKOBvly1//91cqStmhnYvdCv773+9w5XK6cj8tTXrMjc0cO3SYHt2649Jem1/p2mnudP9+H3Mt/zyG2lwFYGPRGSwlaUrfB6DNCrayfmINHSygsSwVY0mygpDKC+pcDCXn0JenqyKC1//8kgJQ3PvrXNC33lQuqFqtER6M18mjzJg+mfGjRzB26FB2bvNE5nff9y8y6CAX/CZTHeJKne/HNPr3V9ZLWT+xgCKBUaxT+DAIGYQpQLN+jhAqAMWyCXwRIzQAlevZGj5L0GBEGnzikg4Ggc8mmxUU6xc1XIFH5DAa/fty5dRkYiN8v++U1PP/MYCNjY14bNrA6MH9VTNdKZ4dOVBqPVuqXaTF3HjXT5gwUHr/v6c2XpTOZTtWzlFbUgmEm+dPUdr0zQREtjmezfWU6KgmbT5o+3ndnCmsnD2R+VNGMm/iSLVmbN2SuaqyJDpUcmdS5hXAlMnjVSBGc/Na5oG9enRlydxZmKqv2i0g5VeUlRKIxJW87uIsP4+h/JxySZWLWZMOtVeUeykupt3dFNfTBqC4g6LyS5orWJMDTdeoKbjAwtmTVA5Owvnq+zk78cQTj+HjdRx9XaX9P/LrL6bY3WcFn7OOHnd2ZeWK+ehrCzHV5GrzTXGf5XPls6wW0FyUhqnwLOZr5zCVnIeyi0oCoKbWLijladgkbmcrC1h1WfMQqrO5mBxKv0//zZ09Oql0jgRhnNtpqYo//elPLF+6GF/vU0RL35yQYI4cOsCUSRMZ7urKsSNHbphqsJ+ww0Hq6RDOeE2jPKA/xtB+GAQisVxi/WzwCVShAssgZf1sAMr8zQahAlDBNMIK7GiIGI05eLCSDTxz4CBEtwtgc2A/ZQGrTn5M0r5xpKXcXqe2/xhAaaz09YxpjBzwmapcF/iUxbO6mqrUrN8HCj5pEyGWb9H0EQo+2ZRD4FPu5tyJbJo3ScHXFkCbtbsZgKtmT2TBpBEKwC9GDkYAlOUvEoiRRaoCYEJcFBvXr+OVV16xX8SSw3rgnl6sX76gDYDiqonbqF2UprJzrSBU0NUKdALVJftzAqv6PQFPLlJ1ocp7WUG0j+lQKhHIQuqvprP8my+0aKIk+SV44azjvvvvZPPmVaCvBHMd1VczkTl1x47Wm4eTDpdO7Xj2hafx9jp0awBlDlhxRZMAaYXPNheUgEzbG40NvpYxFcpFAuZ5NYekJoestGg13ejaydme5rnvgfsZMGCA2ofj4rk0YqIilWQFxXd7dvPljBmEBAU54PX9h7lZl4k9PhNT4jgaAz7FHDZUC34IgMryjdDcRyt84n6aAwcq8GwAavC5Wq2fRDDFco5RMgYNQmQDzzZ+L4DWeaA+aAANfn0UhKePfEV9Xc33n9R/uhypvq6OjWvXMOizj1tZP7WllA1Ah6intIpXbueS6XbLJ27l6q/HsH7OODt8PwRAKRmzWcBvpoxm+ihXDcBQHwWgQChWUKr3pW5xyZIlPPHEEwpCsThPPPIAO9xWY6ouxFKZYw1aWAEU19PBFXM8puYyzaVnqc6NpyQ9gorMaKXKjGiqs2JoKEzCXCpRSIFULIY1GKOsYjrN+akqQtlcmsn6FXNbAyg5tPY6Fi78gtqyDGXZ8i/FquJkm9ssY4euHfmfP7ykirpvagFl3ieqyVLWsDk/herMOGqzE5WqcxKpyT1NY1EyxtI0O4gt4NksYWsATWUXoL6AaxnJTBs3WCXvJXEv3+sPf/ojhw4dUqVqUpQh1k/gEx05dIi0tLO3dXE6vshoNBJ2agNVoSPUHFC5j9FjNQt4GwDa4QuXHJ+4n1YA1XuMxRDoqmQKcEV0WwCKG2p1RZuCB1Dj+xll3oNJDt7l+NVvefwfWcDoyAjGDh+iFtnKRirK8lk3VJQ9vUf3f8eq91STJLF8m5dMZ8faOcicTyzbqq9Gs2LWCDbMG690Ixf0VhbQBuA3U0YiEgA3LPmauBAfuxWUNWySlJeyNA+3Tbz88stWAHU8+9QjanW75PQsEsSQqKGKZEpE87y64zuCZzuuzk/g2uVwriSe4mz4ATJOe9mVmeRNwbkgBWRzUbIGokRIHVSTGQVVV2iuyMJ97RI6i/tpTXBLbm3YoPe5nBpM9dUUynNjqSpMxPfIJl75/SMtKYsOTjz3/FN4nThwcwtoA/DaeeqyE7l2NoSMuFNkJfgoZST6ILp6IYSq7Fiarp1RIH4fgObSC2oOW5V/nrnTx6icpg3Adz94H19fX1JSUjiTdBofr5NqXw5xQU8cP0bpj9xAs7gon7hj8+D8fJUAJ2YixIzXLKHM51T0UiKXA5QkZWAK7KckKQcEPgmWyGsjxHUdA60AHKDmjeK6ivUUqeCLCtq4QsTQFqlgjO3nkdT7DqUhdCopJ5dQV6MVUdySPOuTPxrAmppqVq9YztB+nzF2UD9k8eQY2UZYbSv1HuMGvseofm8z7JM3GfHZP1gwbZgqK9u6/EsVdFk3dxxr5oxl7VdjlDbMnYijNOhs8z0ZbXNA26g9JwAu/3K8gk8AnDdtjNLBne6ciQtXkdDY8CCVlI+PjuDEsaP89a+vKQDFBX3ikfs4us9TJZ6pztbmNuIqSrChIk2F3m2ul7HkjCp4rsqJJjvZSykzxQtR1hlfu3JSfEmPP0HR+WDqC063clNlPinvZymNB3MO9SUX+XLKaHp0aq8AlEqZ5+7tTuiBDVCRSnF6ANUFUTSVJlKRFcrymX3p5pC4f/yJX7J/7zYMNYWYbd9frKwt8lp6DtPVVErOh1B4JoDMuBNcjDjMpeijrXQ55hiZCScoSgugMjNSpRtaQ2i1gGVpUGadQ9bk0lycoQJfqpBBgjBOTgwdOlRbpR8RobwO24oJsYSHDx363ojnrS7cnKx0Qg6voDp6Hqb4L2iOnKDqPAm1WqOwQRAusPVT5WREDoLIIZijhqGPGYE+diwGBe14iBivlZ1J8l3NHQdiCe6nRGhflMIGaO8XIe8zGKIkDynu73AtYe/fG71Xf4qPTCTu4CrKiq/e6utf99yPBjAiLEwlT8e49lX9Gu3w9Zd9+d5V8I2U1nOu7zJ7XF8Fn6xqkM7VApfAJxLXU9MEtVuODcLbBnDeBJbPHss3U4crzZs2SgNwxxa1Gl6sn6yKkKqYVgBKHk3nAGBNLlTb8n8XoPJcawCrL9JQkEB+mj8XYg6Tcfqk0pWkk4gykr1bSazi5bjj5KcFUnol0j5PtAFIRTwYr1CWl8KEEQPoaq3V7KXT8fHLL3AhcDuURFOV6Uddfoh9dYP39pn84Ukt/SDu3kO/uIftnusw1ORrAFZfUS6vvvA0zQWJNOQkUHYxnLzTPmQneCkAM2KPk5lwiqxEL7sEPptykr0wXEuxB2E0ENsAWC5z3Gw7gHLjkMoeqZm9EYASKwgODMDb2wtxJ/+Tf+Wl1wjc/RWV3kMgdqKWegjoC/6fgO974Ptv8P2nVf8Cv3chui/E9oe4QRArllDyeeKOStBmIIR8DlLjGST1oh9B6IeawmT8uI0+0V7j+y7mk29Sf7wvZ45vUsucfuh5/SgAZe92T7dNDOn7CWMHS/X6By3WzwrgkN5vMt71fb6ZMsgOn7if6+eNV3M+mff9VABKU97504fYNW/6CA4qAKNV75X4yEjCAgOIj45qsYA2AB+9h6P7PNQ8SwPQav0EwMqzygopS1h1noaCOPLTfLkQe5Brl4KVii4HIxJ31KbCiyFkp/opi5iXFkjBhWCMlWmarPNKqs6APpO8izFquZatrOvB9jqWjOtL9QUfzAXBaiV7Y0Ew1Vm+UB5DRvQ2+v37eXst5h29OrF6xRwNwJpMLUdXfRFLSSqGomTE1S1K9VcqPhdI2cUQKtPDqciIsEssXnl6ONcuBFGQ6qdUmRmu5f1U4MU2/0sFmwV0AFD233AEcNiQ6y2gn483fr4+Sj/0Ir3R6+NPbuHSmpeo3/ManHwL057fw7e/hl3PwY6nYOtj4PkIbH8Ydj0K3z0LB3+F6egLmI78Gg79Fg7+D+z/Lex9Cfa8CLtf0H5/93Ow53lM3z2Laf9zmPb/CvOBF7AcfBEO/Rrk94/+BuPB56nf+zSlBz8kwXvvjb7m9z72owCMi4li1rSJqkvV2MG91Z594noq99MKoLids8f2V/DtXv+NmvuJVZO+nTLv++kAHMfKr0ezYNog5k/XpAG4lTMxscSEhiIABvuLBWwNoFiQJ6wASt2mKrlSwRKr+1mRagVQuwDNxckKwqqcSFRuTPJjZanoy1JVWkJSEyJ9WRpNJanUX02mrihJSV6jILQBWH0eGnK5khLJx2+/qVzirvJ9uuk4vPZLKI5VK9UNBUE0FQRSnemFqShEtcFYMPlje8SxUxcdi+ZNUzlAswOANEgqJZWG3DgFXV12LGIV1TxUorcyv3VU9UVl9Wqyoym7HEZhmq/K/Uny3VEKQOVGX4bqHGUBBcAu1rrQDk7O3AhAcUNPHj9KYMBP088zcr8H+Ssfo3j5PVSsuIvKxV2pXdyBhiUumBc7w3xnWOAMS3SwTEfT8g7UrOhA5SpnKlY7U7myA9UrOlG1rDNVSzpRvagjlQs7ULGgPeULXShdqqN4mY6ry3UULddR69bdrvot3Wnc0YOard0p3tydrO1/Id772++F7UYv+MEASo+XXds9VNRzzCBpFy7tJbSVDeJ6yiaZwz/9u5r7LZo6jG0rZ7N77TzWfD2RdV9NZO1X46waw7qvx9olmzW20nVzPtvcTxtbkvLjFMzzp7oi+maaK3OnDefA9i2kRMcQHRKiVsX7e50iISZarQn84MP31AUvAD784B3s3bWe5upMjFVaOF5dpDL/s939y1LU6nBLSYrKh0lOzFSaqmQDUVWLlJ+9LmoqZVwiCd6o0Zrcp7kAavLxO7yHZx/9hVq6JFaw91+eJyvyOwzZgRiyfdHn+ilJrxlzYSD6LG/89y7iwfs742JNSQwZ8D4V+WcxlF9Qn1ObG62+r6xot0m+u8j2s320naNttP6OnKOx5DTm8uQWKRjPakElSWXUFVCWkcLsccPoYS1uv7NbD2ZMn37dHPDsmWS8vU4SERF+o+vwBz92+og715bei2H9PVR944RxaTssS3UgWqyDhZ1hUUcFnwDI5odg3X0YVnagYZmO+sXO1C1sT+2CdtQu7kTdsi7UrehG3eo7aFjblYZN7Wl0c0bv0R7Dlg5qlGNNLjRv1WHZ05m6HV254vlbEn3/SwDKFtJfTZ2AwKdyfgNbLJ9sljluwNtMHfYRAp8UV29ZOkNJ4FP6ejzrlFrgExBbwScw/gAAxZW9MYBxRIeEERceSYC3L/FRMWof+IGu/WnXUSv5uvvuzrhtWEhTVQYGa9Jdu8tfDyDF2kX8YwC0gygAVlyG0gyoLOTbzRu4p0tnerXX8WBnHfPHfkDtZV8M2f4Ys2XUJK0kLAWBmPL8uRCxm/ff/TPO7a1h/98+Qbj/XmjIoqEoUQsclSWDyArUDwcwCVPp9VLWUNIr4oLWFVB0IZ7JQ/vS0RoYevCue1gyf4F98bDsSCXWT3KBfj5e+PvdXoXI9xGZdNid0iW9MK+7k9p5Og0+sXaiRaKOsLgzphU69Ku70rD6eWpX/Z6yVU9zbeXjXF36KNVrn6dp07M0bXyMujV30biuB83rO9O8qSONbjoaPXQ0eTph8HRGv8XJQTpMnjr4tj0NOzqS4fmb/x6AB/buYvQg2241HzHGVbYJlr29P1LRzkmD3mfJzBFIkn3L0ln2RPv6OZN+NgAlomoDUFnBqcPZt30rSdEJRAdHEBseTYh/MNFhUUSGRTJlyhTuvLunSnp36axj4dzJ1wNYJvOdlBbJhfwfAWi1gFVaEttckkHppTSmjxyp5k9SEP6XF35J2MFVUB6NMdcHc44PhhwvTHm+WAr8Mef7qbE2J5jZs0bh9P9zhS4uOp567A6WL5wITTlQfRGaMzX4bBCWJWMpTVJSUDo8TrkEWxxkfe5G8Mljmjt6FiTYU5NLZlIIw3q/owIwYsF/9eSzbNnkgdStymaoMgqEyaeT8D51Cm8vr+9j67aeTzriTumyezGtv5vq+U4YFztjEcun4BMQnTAtd6F2TXuK1j4MaZvh4gnI9gJpTpV5EnKPQMoyONWHKvcnaHLvDu468NApC1e/vR2ihm3tqN/qYlejpxPmLTrY2ZnmbZ3J9HjxvwNgTnY2i+bMRLaGEtdT4BvjqqUcZK8GSTlMGfqhapy0e+18BaBUuayZM16DT6zgz2ABBcBFXwxh3uQBmhuqANzO6ahEokKjiQ2PJTwwgsiQKKIjYpk3bz4P/OIBVfzs7KTji8lDkUJmWWYkVS/iXir3sw2ANivyYyygqfwM1F2kuSxZLVeSdXkpwQH844+v0kPXnvs6dmDmiM+pTQ9SVk/gM+d4YcwVAL0xF/hgKfRVkvaC4V7beP2VF5Dwv6xknzimr+qGJm4o+hwrgKftIP7kAFprWi/E+NLn36+r7yHzwL/8/hUO7NpvBc8GYBQxkbHERsdw7OhRmpqabguyW70oUVzQ5fdj3GAFcIlOASgQKhCXOWFY4ULVms5krX8OikKgsgAMUtrXCA2y7KkODBch3Z3i7S/TuO1eLFt1sFVH8zadAk/gawtg0xYX8HBWABq2dibrvwWgdF0eN7Q/U0YMuA5A6WImkkoXaX++Tiyeg8QCamoz17OnIWzpCBkntMoJaqmJyWyYK7pxvnD5zJHMmTCAWWM+Z8XcqQSe8CIx4jRRIbFKkcExRARFExUWx+5d3/HYk1o1jMwDP/rgDapLL2Ouy1LzKC0E7xD5c5hL2Vw6x8DEDY8rUjE7yFCaDM0ZNBafVsEZqvJZ+eUMldN75I57+P3jj3PEfQVUnKEx4xSWXF8sed6Q76OpwBdsyg+k9twp1s8cTA9r8OO3Lz6lGt9KgbSpJE1zPR0tXdtjR6t3g+NWcz+HeaCpPBl1M2nOVesKffe58+Iv76WHlMbpdPz7r2/ie8yH6LCYVgr2CyExJoHDBw5QcYPV7reC7UbPxR91p2Dlg+g39qJ6oQ7jUh3mJTr0S3U0L9NhWt4e/fLO1KzuSu13b0BuAOirVFmfxVALej3IjaCpChrTaPAbQcmWR6nz1GHw1FxMs0c7TO4u18ni5gLuLQBmu7/I6Z97DlhdXY3HhjVMHTlQbQ2sWb/WFnDOBFe1in3bqjmt4BMQfxiA464DTYPv5gCumDVKdcWW5kwbl35FpH8QcaGniQmOJzI4jqgQbYwIieHkCR/eePNN+6r4V//0AvGRxxWAsj7OcM0abm8TmLDBJ+MNoXOMGDrAJyBSfQ5qL2CsTAFTIRdj/Xj71f/lThcXBeHUIf3Jjg+gMSNEtQ+8NYD+kOXPBW83+rz5OxVQurtHZyaNGUpTuVTzpGsphLbQOf58A+gcXdHvA1A8BUPZJXZuWMC9XZxUy427O3Vh3JDhJEXGExsadR2ACdHxHD10mNyc3Bsx9YMeizvqTt6qXygAaxfoMFsBFPgalzljWN6RphWdqV3Vndp9f4NCP7DIdmaVYKkHgxn0gN4MzfmQsoaqQ3+l2rMT+i06LOKKbna5udw0AI2enclze5HTPj9zEEaWHM2bOYVBH/9btRYf7yorHN5n7KD3GT/oXZVyWPX1BDxXfKUgdLR+PzeA0rJi6ayRCHxLZ49Sm6UkhUcTHxJHXHAs0UExxFgtYVhwtJqbTJk2lR49u6iL98H7u7J2+QyM1bK6/bIW5Ss9aw9gOIJnO/7hAJ7FLPDVXaCmIJE18ydyp/SDcdLx5xefIfTwt6pWsz49CEqjIM+vxfqJFRTrZ7OG+f5QHAF54Xy7ejp3ddCCMU891ouIgP1q5b6sYLhuvveTAHgGifjqy85TeCGKycM+RdInqoLn0UfYvnET5xKTiQ2LUBAKiKJgvyBiIyIJ8PEnIT7+B8F2oxfHH3Mnf/XDGDbdRd1CDUDjYh1NS3Q0LHXCsLw9TSs7UrOmM437/ghXD4D5IpABXAOjEYvUA4glbC6E8gDqAgZSs6ULuOk03QpAqwW0AZj0cwPo63WSGWOHMuLzd9UffcLgDxWAAp/IBp/H8tksmTHqFhZQrKGjG+roerYct3U1b2UBBUAJ/EjSf9W8CRzauZHEMGlyG0lMUITmEgVHqX6aapPOsDDWbVzHvQ/cpQCUkrSRg99DXyWr1mXVgCxk/c8AlDmkowvaUBQL1WexVJ/De99qXv7VveqifeL+zqxbOI36/DM0ZEfDtTgoCGkFoLiijlJw5gXQnOHHlejvGNH7FXpY1wa+89b/kJpwSkHiCOAt54BWMG2vkbGtBaTqrHpMc0HPQkMhCQHH+fv/vsAdTjru7ujMB2++TojPSeLDQrSOdGFhxFoV5OdLdHiY2q7s+NEjN2LqBz3WFkDLMs0FVRZwRTsMq9rRvLY9des7Ytj1LBbvgZC4CJKXUJ/sAcZiMIkbWgOGUmhIxZy6CNOBp7AoAJ1ubv0ETAVgV2wAnv4584Cy5m+r+yaG95GI50dMHPwJE4d8xMi+/1TwCQCyYYqkHGRBrQq6OMz/lAX8egrrRXZ31AZhC3QtZWk3ckFbz/0kn7hixkiWTR+uxgUTB/DFsI9Vf5gw7wNqO6yoEH+iggNVa/rwoCA1hgYHqQa8voHejB4/HGfpftZex5OPdVedwTAUIAXUCkBxQW8w/7vhY47WRY4rUpS0fFoyDYUxUH+JpNA9vP3nJ+jVQcedHXR89t7/kp5yiobCKCxXo6BILFsQ5PhDjq9dlmwfbDJKJK8sAkojac4L4LT/Rv72214qFXDnHTpmTB1IVV4szYWxmEtOQ805exTUBpkjnHKsoJO8n1WmskQcRe1ZanPDqcwJUUUG5vJ8ln4xXd1EJAXx9H13smreLBLD/Qn3P05owHGCA07aJcvCZMOb0/GRHDm4j6bGxh8EXNsXC4AFa36Jye1u6iXyuVwHK3WwtiPm9V0xbuiMcVMnDO7tsXj2QL/6XvQrf4Fpw8OUeb4GWSeBBiz14pbWqmkBlV4Q9iFVG9ph9ugAbu1uLgnE7OqGaWs3Ct1e4me1gOnpl1k0b7ZqmDph0Mco6yeWb+A7qs5TdqeVhPt/E8Bty2axdckMZU2XTBnC8i+GsWDyIDYvnkHIqT3EBp8iOthbdUeTDmnhIT6qSVNoiB8hsk4wNhT3rRt47S+/p1cvrTXFgN5/ITPZD5rztJIrge92IWwDoFgQCdvLSnL1HpWpSHnXmL5/VUn3ns46Xv/jo3gdWEpjaRSG4jAs14Ix5QZizg7CkhVghdAfS7Yf5ixfzFleSpIf1OcHYioOxnLVj7qsE2xfOYy7u+jo0k1Hr7t0rJ0/EsPVBFXJYwNR4LIBaBsd4TNdS7QDaCxNQGSDkMoUTBWnMVengDGfw1vceO25l9T8VWpqR376Id57PTkb40d82Aliwk8RFSHyVgoLPolI9q/wOnWIc2mpbZn6QT87Algn6QeBb7UO89qOmDZ2AY/O4NkJ07YOWLZ0hHVdYUVnWN6BklW/gLglUHcWmgRAmQyKJUyFc7Op2Pk0zR49bg6fgPnfBDAo0J/JIwepyKdYPimwHt3nn0wd9gFLZw1np7RsbwugQwez1nPAH+uCahbQVqQtJW3ymZ7LZrF0xgi+GvMZi2cMVZtQxgUcJjXaX7Xkk7Z8STHBJEYHkRAbTKzsURAbQkhEAP5BXkydPpa77+5Ip/Y6VU715ZhP0BcmQ5UsyLVaQNt4K2vYBkANPin90sDLSDikajgf6qpTkcvH7tHx3Zb5WGqTqb8WgKnEH2O+N8acAAWgOVvGACw5AmQAxix/DJneSs2ZXtRlelObfYLmvMM05R6i6Oxupo95HeeOOtp31vHk/ToWTetNXV4UVKepqhapbLHl934ogMbyRGi6QENZPGeiDvPZm29xh649d+qc+fMzz7Br9WJSQk8SF3CQmMD9RAbvJzzkIGEhh5VOJwQSGX6SM0nhREb6EB6mLciVlESzVXJsMjn0YrwFkgrA9Y8qCyiVLQIf69rDpq7gJvM4Z9jiROP2jqpsDPd7weMxzLteoH7fnynf/ylkStv7GhrUbrvyuUVQ8h0lJ96hfsu9GoDibnq0d5CLgs/i6QK7/0sWcPeubaq1vFi/SYM+ZNLAdxnZ+3XmTezPlmXT8VjRYgHteT9HAKWr2XWu5490Qa3NmsJO7CA/LYLq3DPkpYVy7WI4xZciKU2Ppio7gfKMGK5djKTIqoKLEeRfjiTnUhTZl6PIyYjnWovuoa0AACAASURBVEEaaUnBDPr8Le7vrgUSHu6sY+aQ98iKPwFSrylzOWt084aupw1KRwBLz9gtn1i9RP9t/OsPD3KPtIIXd+0BHZ4rv0DWFFbnB5ObsoumwlM05550ADBIs4Q5wWo0ZgViyPRFn+FDQ7oXVRmnqEg/THX6Hhoy91Ofc5T8C4cYMfxN2rXTzuXJO3RMdX2bwrOBGErOKBnLbOV0LYl5m/tpKE60gyrWz1B6GmNZEvI7hgopHs8iOXo/fd75E/c46XisS0+e7XUHHgtnU5GeQE1eAkXnAym+EkJhZgiFGWEUZEYolRclcfGML8W5CeRlxJGeFkVybBCp8eGciQ/jfGo8UREBJCcn3gK7lqcSj7pzdc2jmDb1VGkH1jnDxvaY3Doi6QMVSNmio2FHe+p23kGTFGYf/BvEjoML31C04w2aw2eBKZs6Yz1G6X4l+cH6eKqiplPh+Thm904YN3eALZ00AN1l7uekpAHYA+O2buS7v0TizxWEycvLY8H82Yxy/Qjlfrq+y9i+/2D64PfxWDyZnatnq1pMSYaLZLWDGlsFWmywOY43nvvZ5oG2IIxqUzFvUkta4hvpFTqFWN/9IE2IGgoxSNcv6cVSeQFL8WmMBZE0ZwfSlO1rl2zD1ZSrqSHbn/rsQOqygqjPCKP+ShSLx/bj5Yfu4CEnHQ+10/HvPzzCsR3zUMGT2nNgylRBiOarcWpuJ6NSUQL6a6e1OkuxlNK+r/qiWmkQdmQDo/u8xqN3aEt17tDpeOkxJ3aunUp1biwVGSHkpeznfMRGrkRvIiPSjawIT7LCt5EZtpUrodvayJMroZ6kh3lyKdyTixEepIdvUrqatg9jWQS554+w6MuBPHlnN+6Sdvg6Hb/95X2qFrfgfLjKQUpZHEY5n9NqRyTKkzCUxNPsIIwZ0JiuGvY2lKSRlRrCirmT+fXj96r3lJzf355/UG1eU5MZQUN+CA35ATQU+DjITxWSS+GATfqCMJoKIrBUpKraWKm/lTpcTFWkX04mKiqshbJbHEklTNXyJ2FDF0zifm7S5mu2HJ5Us7BFh36njrpd3Sh2f4JGryHQHA9VgWrFe+a216D8GFCGSTVgBRWQufwtJq9/UbWxGw2bu4JnD3DvpFnVTdYIqSTid3XH4NmdbLeXiP+58oCnTycydswQxgz6RM39pNZzkuvbLJk6kK1Lp7Jt2Qw7dDYIf0oAbSDaIqfizsoi3KBjOzBIs9n6AlR7BAXgWbgWA/nBmLNOYso6hinriJI5+ygtOq6eV/OqzEDMGeHUpYWzZ8EMXryzk/3CvauTjrdeeZTZE3sT4bOV9GRvynJiqMiLx1SttSyUtoUiaeeQneyDz95VeCydQv+3/5dHe2rJ6bvb6Xikh47hH/2R1NBvVXCkLieSwrPH1AaaF8M2czlsI5fDNpMe4k56yJY24LUG0QagQHgp3EPpbPBGcpP3YioJpz4/mkObVvGv3/6Onjod9zjrkHWGLz/zoFqrKXP25LB9ahlVU0mKWs1B3SU0pWOuT1cr8ZOjjrJ1/Rxmjh+owJOFwLJa//5OOj589Rl8diyiqSCK2lx/BV1jwUmaC46izxcdR593UlXxSCWPTVJOZ84PgIoEqEpWUWG9rM4wV3A+LZbExNtrZiTF2KUrn1TBFsMaHYh12uKCYbsOww4NPgHQtENHza47KN/3OoaEFWDMhcaLcHYB1w6+TU3SV6CP1ayfAG9phJIILNGjKd/5BFVuXWGbuLUdYLMzbJbPknI1Z9jdUwGY5f4SsT8XgL6+XkweP5ixQ7Tgy5h+/2DexL7K+m1fOh23BZPZPF9rpiRtJWwW7D8dHcGT8rU1s8eyepa0rxijqm2O7lpHTYEkt3NVVy/qpAltawDN2cft0FlyjtOik20ADIX8BAwZsVzw38+MQR/y9P3d6eKiUyVW3drruLu7My88+QCv/fEF/vKnF3nvX3/mvX+9ovTBv/7Iy7/+Jc8/dofaeEXcTKkMkSqbX/TQ0eefv2G/21yqs6JUVNVYFENzbhgZUbtI9llHepiHgzQLlx62DaXQHaS3lXpOs4I2AK9Eahax+PxhTCWRmIpjyUs+zpEt3/DRa79SIApAd+t0quztwbs68esXHuaNv7zEm3/9Le/8449WvcK7b/2Zl559nKcevI+7O7dT0VUpFpff//v/PKOWkxWe8cN8LZ6KS17aDrz5fjQWeNGcf1LBZ8w7icgGnm28EYBG6SpnLuN0Yjjnz9/e5ibxJz3J2/gkte6dadykwyL1mVJCtkMTW9uBZzss23TU7Lif+sCxIHskmgrBIr1TQ6kI/YL0/R9DofRwKadRtSCXHXKvQO5mSg7/mRJxZ3dZAXdzAinC3qbDuM3JCmBPstx++/MAKOmHnTs8GTX0UwXgmIFvM8H1bTbPn8DeNbPZIhtnfjNBAfifAtf2920A2sal04YhWjxthOqqttdtCaWZSdjbSNRLv800tY7OUhCs6igtOScVdGL5WuATEB0B9MeU4Y/+SgDmrDAoTKQ5O468M2Hs37KGT956hVdffJxH7uxAT9m+S3Y8kt2SbCvArVZBUgoP9NDx1P3tefGXXRjT5+/sWP0Fl2OPUJ8fS2NeLPVZkViKEqjLkFUNYaT5byTm8BLlUopVa63rAbwcsr0FRiuEAq9AGPDtbM4FbaT03GEaxcKUR1CZeYLGglAa86NJ8v2WjV9N4fPXX+P1l55X25TJjklyHrIaXyybSIrCRfL4Xe10PPvAXbz83C+ZNbovR3YsJTfVB7Hepquy72As+rxgtU6xOc+P5jwftRmoPk+rYbXVsdrgk9EOYHk8VCarCiEFoLGY0wlhyL6St/Mv+pQn59z+RNGWxyjf3A3D1o4Yt7UAaNrSTs3hTFu7UL79OZoT1mhF6iZ5f9EVuOJB9rdvYoqfBvrz6KlHL/NACqE+hOLgwZTsuRt2O4N7R3Brr+pEzbt0GLa5YN51h4qWZnn8jji/Pbfzta97zS3XA169epVlS+YzZngfhvd/V+X9vhrfB/eFU9ixbCZu30xi05yJbJ43iY1fT2glm8v4Y0cbeLbRfeE0Fk4axIJJQ5g7cRBuy2aRey5Ka6QkyXNxoSplxUIMFIaoqhFL3inIO6Hgs40alAKmlzWvpoX4JdSvwv05flrQIzsMfXYU+uwYpZj9a/HbMp9vl0xg45eDcJs33EFDObV1LoknN1OQeIyCxCPUXgqkKTMYU14ExtxwTDk2hWLKCVX5vpoLx4g/voJTHtNJOrmCS0Higor7KTC2AHglbCcisYTn/D046+tGVvgO8mJ2k+q9hpMekznju1Yt1q2/4oOxMFTlB2Uhrzb3CkWfF44+NxJ9bjRNedEkB2wl5MhKDnl8yfbl49g4b4imucPYOHeEqrCJPLSB3ITjFKWcpC43mLo8fxrzfZSlk513ZctrU4EfpoIAjHmBSpJGkSVTmnztFlCKyZXUio5AKI7SAKw6h2wGY2m+Slioz3UX6M0e8D+2l2n/fgi3z3tyZfWz1HreS/N2F80CbtOp+k2DW3dq3O+l4egHKtFOcwUYpRhb+rZcgDxP8rf+htpj/6I5QwC6hp5qatXzeVC8n0rv18hf44x+bRfY1EVZP9Munfos486eNHvcQerKX5EQePRmX/WWj98SQCk/mz1zigJwWL93mDT0Y1Xy5bFoKp6LpioABT6B8OcC0AawJN7FAu5cPZfA/VuQKvzm4nS1JEa6i9m2jjYVRagtmOU/m3xZenJSQdgaQBt8LcltBWbuUSwisZyS+M4KwJIVBJlByrJyNRoKIiBfLGUEFEVqkmPb4/KcKC8YcgJblN1yLKkFrkaoNX/FSQcUhMc3TiD6wAIFYG70Lq6EO1g7qwuaEb6LnOi95MftJ9VrA8G7vsbLfTKnjy/nauJeFR0V68/VMDsQGhiOQAgUvlAaAcVyHiGo3ykKg6vhcDUSiqO18y2MwpgThD7Tn6Zsb5pzvVosXMEJjAUn7FAp8HKD1c3FJKMdRA1CRwDVHFAKDiS1UXVO60Sgv0Z+bhrR0UGER4SQX5B/0wu3vr6ehfPn82CHDvz1Th27B3WhYtuDNG93UvM/01Ydps06mjffQe23v8MSPQsasrXia0MdmHKhNghzyheUbH2E+gMv0RA/V0VAoZRayrW8YG0KpqRZVB96lSbPp2HL/bDdRc0rm7e1x7CjB03uPTm/7n85G3N7e0G0PalbAhgfF8u0iWMZN6wPAuDs8QPUUiOZ822eN4FNc8ff0PoJjDZwfqrRbcFU9Z4CHxU5UJuvbaRSnQM1mSoKKXOrppxgFfkUd6cVgDYQc09Brre9qkSBJi5p3mHM+fsxF3yrjbknMYs1tEpVpuQJOKFQHG5NjEty3BdzhjeWdC8lMv1QyvIBUY6fpiytgNr+PgVBquRM8n5iCUN2f4W3x1RiDi0k1VvmhdusVm8XV8J2K6WH7lLNmtL83PHb+iVH1o1Xr6+9eFzBJ8EnCsNUMbdApknK2E5hEU/AKmPOUYyZRzFmHFd/B6m4kSS/KfOUkpyT8gYy/Wm+5EPjBR+aLwdjzozCmBWDMTsMU/4pTAVHMBecVG6lAi5HrLvV0t8CQLGO5oJQLMVxdgCbq7LJz02lqamU9PQ04uJj2l6r9p+DAgP41UtaX5xHdDpm/lVHxc77VMTTtFOnzdM26Wjc3Iua4x/B1eNQfxUajWBsUhFtcldTderPlG/vSc3OX1J+9FMolBK5AhrNFWDQg74aioIgeZnqts2eF8Czi4quSoLftL0HereeXHB/nYy0ZPv3+yEHtwTQ1+cUE8cMUQBOHNqbxbNGq94usgJdAi4C4I2s308JoG394Lyx/Zgzpi/Ht6+lOjsVfckVZBsxQ/ElqM3CdC2JprxI6jMDqL+izUEUgHlemgUUABV8bQAUV9QRwPzvHADUFsXKygQKA5RknZ5eFnMWiaUJhKJAyPcDsSo22HIEvDbK9gWRlJdJobWCOUzBzLUIylMPKQt4YNVIBVbi8bUIcAKfjLkx+znr60HQzgUcWjeZPUuGc/r4SmWdVIc1gU9qSBXY/tbCbS8oEA/gWGvlH4cC8Q681QJV05Xj2nnIuYjy5KZyAjLlNWFQEAk5EVgyojBnxmHOilBQ2wEs8NFcTmUBBcBQqwW8sQsqFtCUH4L5WqzKs0ovHn11DvW1BdTXXyUlNZ6srMybXsd+fj48+cyTvPiUjjF/0xH05d1U77gL4w4dlu0agCY3HU3fPo0hbhY0nYHGGmg2g6kBzCmQNoJrO3tSv60T9Z69qNz1ezi7CGoTMTeWYGloBpGxAprPQOUeCOmN2eNOLBtlNXwnDDs6U+9xFxd296EoN+um3/dWT9wSwH3f7WbogI/VAtzpo/uxYfEXSAh75ZejVV5OrNuGr8Yr/VQuqA24tuPyL0YgEMo+gqkhx6HxmrKCzdcuqu2+ZLGsPj+KhuxAGjK80WfLXd9295djR7Uubm55rsVKqLV4ud7KWorFtNdlOj5mB/oU5IjkdVbl+kAr+UGugGeVrGiw1npacjUXsThpH/FHFnNi01QCtn2t+kymnvLgzEl3znq7E7JrIcfWT+X4hmnEH15ORepxyAuFXCneDrZKbgj+IDceuekoyetEAqM8dsrqmsvNSb6ndp5qXqxuSF72xxzPXayi5lb7q+db/m7eyDmIa61kPR+bBVbBF4c5oABot4CVadq+g5VZmAxllJRkExIacMvWhdKTduOa1Swa9jvyN78K372oEuIS8ZTFtBKMqd/dg8aAt6DgW+VyWsx6bb95SzGU7iP/wGM07XHRytQ8eigIG0++CdkHgAqoq4V6PRibtahp6UmM/gNodrsfJBd42IWmXToqdjxC0JYpNNTV3Yqzmz53UwD1ej2bN6xRPSv7f/RPvp48nM2LZ+GxZCarZrf0cPm5AbQ1cZIUhARhls8YjdeuDTRduwyyK21tHjTmqR6eEhbX54UqF/TWANrgdAS0NZS2i9I+2gqj7QCKJdWCPDK/bLGutsd9tItbLnAlB/hsENreU0ap7cwNREF4eClH103hwMrxeLvNJnT3olbwJZ1Yo+Cz5GvwqTmlAtAKn7RcaAWgFTwbgGq0wndTAK3n4XCTEU+h5Tyt0KobmwDoq0GoRpv7e2MLKL1tVNF5meQCtTmguT5fARgTE8zly5duesHanpBi7uDvVlC68bdY3O7CsrUTbHVWAOq3d6H2+LMYzoyFqhCVYzSbjVgsdVCXSP252ZTuvwvzt5LP6wAePdF7uFD97ZOQsBgar0B9NdQbtOVK5jIoC6LRfzhN0txJVkvs13FluY7L7i+S6Pfj1gLKudwUwOqqKjauW8lI109VA6bFX07AfelsZFcjG4BipX4uAG3gOY5iBeeMG6CsYILfAZqKLiGVMJiuaY10y5MwFoQjVS9y9725Bfy/B6CyIAVa8EICM5H7FnBg1Vh2Lx7G8Y1TOLZ+shoFvtoLJxH4zHli+YIgL0Bb8a0srFg/AVDAF8gcLaHNIgqQNgCtNwb7jcVm9a8HsAU+ec4GoPXGZQVPA7EFPLF+bS2gAlCioBWSRjqvBWGoIifzzG1XwlRVVhB2eDMVB95REVDDzo6w3Qm2dqR+2/3UBrwD+W6q9yr6OtA3gD4fru0l9+hfqdrXHXZLwr4jbOmO2bMjxZvuotF3GFRGgayar2+GpgYwXIVSP4y+w9FvfAQ2d4K9najbdx/xHm+TffGH73Vhu5HcFMCC/DwWzp2l3M9Jw/qybPZE3JZ8aQfQ5iL+twCURPzKmaNUGkKsoHRNuxzrp80Bm/KtaYgUzMXRWjj8/zqAjtYvx19ZD7GAEpG0WcKEo0s5tmE8Mi88vnESSSdWIQEXWbBrzgtS7l4r+BSAAp8NQJv1bQOiHT55/r8PoIqClsVa84DnqSlMJj/rNGGh/rddjC39icJObKcxZjqVB39D/e6umHe4qFrQxq0Pwun+ULkZmsOhKQUakqDsBCRNpmDbozTt6qxSCmzpDB5dlQUtW9+D+n1vweVN0JigpS7qEqFR5upbwedjjO4PqGLvuu09Kdr9DJH75thY+lHjTQG8cD6Nr2dOYmif95k5bghr53+hXNCN86ex+qsJrJ09QTVa2vDVREQbv5ZcYItaiq8d21Hc/rENcJsFtAG4bNpIVswYzZLpI1XTp8x4f7XJCZKIlzYQAmCh5N+0u7BtnmIu8EKkRUYdRruLaLtYrWMrQFrW5dnu/HZrIO6n3QW1WQ/vNu6nw4Vuv+BtVss6ihVzkFyksuqhMGkX8ScWkRe7ncpzhzDm+KmAh/210utEvadYPpv1E5dWAjEiOZZ+Mt6tZXtczRcFwpa5YMs5OpyP3ULaLGPr52yWzz62WUR8XRqiKlEtUJa6WUtNFmFBp5D0wu3+S0pKIS7kJFeTVpG25xXK99yP5bvuNKx3odGjJyU77iRv931k73qMvB3PUOj5LGXuT1O/+REMbrIyoiN4SHG1FFp30ZYuefZS6Ybarb+mavsLlO98gdJdL1C6/RlKtz5M/XZJyveg2bMTzQefI3bzv8g8/+Oin7bzvCmAsq3UF+NHqFUQsvPs+oWz2Lhwhlrp/t8E0AaiAKgW4FoB9Fw2W1nAqqxkFQXVStFSMZVEYygK1pLE4v7ka8GXnxVANU9qfUFqLqAj1G3mgAKOo2xgyphvTVpLdLHAh6acYxhytLIuWzLbDqDt9xRIVgAVXP8HAVR1oH4qT0t1MtRIe8PLmGqyKSm4RFx0OLLtwe38Cw6NICYulMxzB4g56ErGzicw7b+P2nXO1G1wonqLjoptOiq36qjdosOgYOsMbr00bZZjKeDuCO6dtRUPW7qBLEPy7AXb2msu7TYXTFucVZ/QZinw3tMR/Y47KN79MjFH1t7OV73la24KoOzlNmX0UCYO7cOCL8azeclXrPtGs362LtfSaPfmFvD7coG3toY28GyjDUCxfOKCbl3+FQVnozCWSDAmS62GsFS1AGgolAoNuZA1y6fyVZKzskqzhI6AtDm23/HbgGV/3GoJbmT95DXXWdbvB1ArHtAKCGzf21R4EpHte2uP+6jcWwuEAVDQBrgfYgEVvLd7/m0toDYfdGyZ0RJB1l4rP9tuHFI1IykIas6olfqyyam5NgcM5USEBFBT8/0bW5aWleLlH8TF/GzOXgojwt+N6O29KXXvSYNbewweTjRvdVYNdc1SNK3W88myoq4q4IK7rG7oooGnLKHMA2URbyfw7AhbXVQwRyKqmpwwbtZhkPTDzs5cW92Z+G2DqCi5dku4bufJmwLo63WC0a6fqRaEi7+cpCzgmrlTlPv5fwHApV+MwnfvRhqvyp7lsioiQy1vkTVtzUXh6AsDMBRqFsRU6KUuYlPRccyFmrQcYZuLzhEaO2jfA6A9Stjmdbb3Emukjm8BYF6QmtOZ8oOUdZD9IMSKNxUF0VQUQMPVADXKsTymLwxSbeoloW2HMD9Qg1BAtMPo4ILKd7C5oXb308FVtX1f23jT878RgC1BLbtrrtIy1vRMrlYDKvDJuRmlCkasX+3/a+89gOQ6t/vOUUnvSbKekiWtrLUku2y9qlVZtStZW5bklbXW1nqtWrlsrSXrPfIxvccAEoEACZBEDgyPGQwAI3JOk1Pn27dzzpNzQs4ZA2Dw3/qf21/PnZ4MAuQQM1116rsdpuf21/fX53zfSfThtuPW5V40pYJg1fWp3KLRKI7U16PvwllEM2HojjJ05mKIb/qPOPHJr2Joz68BO74HbGfo2PeALd8zMuS53vuMu57fNWI7P/95cUNIxjxz/r74LvBlPuCahXd5TAgZeL2d5S1+Hre2/xayn/0n9LbkpnKqk75mXABrKkqx4IkfgubnxldXyBrw/TVLJK9sbAC/aixosUYcqUG5FuQmDLPfVQnCDzcsRtCyz+iLPtgHlhS8fiwjzt2bx30C4eDROtw8WoObRytw+2gZho4ewdBAmeGopvnGjQuRYr9dEVCFC7L4Ahz7ddeaSvP+OAvkuHhN2UU/IMWOoU4XBrs8GOwNYfBYQjrvXjvTgMErbbg92I2hmz24eaMTg9c7RO5cbcGdkwHpE3GlpVrgVRE7xliHm53VEjDAoAEey4/AWOAVNGVegyqTdsogqvlQYyXQbRZCWC8pSDf7Xbh93Cd5iBf6QrhyIgNcH0BT0odw0D/pxcoXsLVZbV0dws3NCOeaEI+l4a43YkibQhr87/8Fzuz4F7i185/i9uffxc3N3wE+obajMLPdqHzNrAZWt2Zi7Z0v+DjXhBx/DviMkgd123eAHT+PW7t+Ddd2/S4aPvtrdCSnljQ8lQ80LoAVRw5i3uM/KAC4cd0yzCQAWQXt1aU/BluTVe3+EJcHWHuzA7jUBQwdBS6kpM4KtQYhHDxWhZvHynBbAKwwAJQ12P0BUCJlTmgS2nUivANn4rtFzsZ2g3KzuQo3m2sk1Otqiw2XmjVc64lj6GwH7lwdwO3rJ3Hr1lkM4SJuD40UcbucT0gBX0bQcGf0UkPpCBkIbUV/YIsIjwubMQUIlclaNH4VAMUcJ3zleeGx4aSn2SkZFOfSUprxzhVGupxGY8qLxBRzAHlBtzS3oLquDtHGBkQJYLgRlvK6wu5pazqK0PZ/QMfGf4rzn/wyrn75KxIyJqFjhC4vzBU0knZ/RiAcLjvxXWDLPwG2/zqw7ddx7bPv4ujmn0f2/V+Bf9sP0N/O0ob37jYugIf375EOSEoDvrd2KWiCMiFWJN9sZXgNWKwBJ854Hx0jOrkGpDOeFbDfWjEPG9ctwhvLn8Gq5x/B+qVPYO8nG5DzV+JyL2tvtgM3WsGF/uBJN64ftWCwoAUrZD0lNTZHaMBiEJVmU7/sxWP+eaXZChoy/zhD1UwA9uifQkT7BN2uzei0b0aH7RO0Wj9Bk+0LdPoP41yL38jyZ8n0W0quGvGLjGFUcvOsmHAXW6rQE9yB/tBODIR3jJAWx0dod21Cl+dT9Pm/vH8Aql1gNfaM1n4Mzr5zNCDBEjQ7b19qw0B3DC57Ffr6pl6kl9qvuroa6WwWiYY04tkswuEmVFdYRkTOnD55DPqeV9G3889wo/z7OL7lZ3F+Vwku7CrBpZ0luM5wNWpCJtiyxMTnPyP1Y6TQEs1QmqNbfwU3v/xVnPz8N5Db/u/gqfwYVy5Nvj6dLprjArh31/YZCSDNT2o91v9kcdt31y7E26vng2lSezavx7EGD4CTwM3uPIQxgfDGcWseQm5o0A3B9Z+Crng0b8kXg6fuTwxgsQna5/0ClAHPF+jXP0ef+3P0uL5At2sbOrRdSNVtR0+0HteONQNDLJ1+EcMO5OvA4HXgRl4GGSrViPON5ZLI2+j8BG3uT0cIwaMGPBnbhbPp/SNdEqIFizSfMkWnqwEVeGoUAFVYXr34KpmOJU1OL7Zi6HI7Bi93QddqcGmaF3QsGoXdakFzSyMyDSkkG9IIxxpQXlGPmzeZSDt8u33rFjpzSfgPvYLYl3+Cnj2/iaN7v4tTe0pwaXuJUTeGABJEasUtzPH7Dga3/groRzz1+feR2vxX8O1/Fb33WOsNn+UEkTAE8IV5j4MbMO9veAXFGnDYzzdyrTas2aarAcd7n0WFhi7iC1zxrAD49spnRRNSG1J4P+Y4DJzrlJ4FuMRwIpZZaADORcUcvXnMKhszstvIjQoGRFN68qMcKxjza0K1mVDYbBkHQKUJ86Oq4cn1D4+vNBzG8dA2AZAQGgBuEQBbnTvQE6lCZ6QOp1rDwIV+DJ0fwND5Yxg6d0IEN68Ag3m5eQZnWm3oCGxDk/sztGif4Xh8j/gKW1ybkbVsRH9gG07G9uBi7oi0ORv2C44D3igA85tGRZ9r2EeYnwcFnhrzLhmuRXEyAJyO4kZ/GLjWJaX/L7M1G66hrTWKSGRq6z5esH29vaitqkI07EcyFUWmMWEAGE+irLJuFIDq5i9jwwAAIABJREFUIr85OIiTR/uQ9Vvh3rYErdu/j2v7aF5+B4MfleDyphJco0Ys/2Wc2fZLaN/yv0HfsQrZoIYzJ48b8aPqze7DOIEG3GYC8CW8t+6FESboNwUgw+CoAYsB5JqQmzKWfZ/gbHsYt041SF929jeXRpOnAhg64cWto3ZJIGXsZQFABeJ9AFCByFQfQngySAi3oE/7Ej2uYQA7A2VoCVSiOVAtJd9bQ/VoDVmHJWBBa8CCdr8F7YEqtPn3oEH/TABs936JnsBWkU4WatI+KYJPxYhOAh8hLGjAuweQbofBbgeudLhwvS+EO+eacP1sK86fbMWdO+fR3ByFz+fCtWtXp3RJnzt7FrWV1YgGA0gno8g1JBBNBhFKhOAO+rDv8GGwcexEtztSehA43tMF/cvFuLb7+xja8Yu4yMDtA7+Eli9+B+GDa3H2OJN1AfX6id7zXjw3LoD7RAM+mteAL2Hj+hfxwboXhxtnjltmUGmye68BuRPKeqAEUEGoQBSzdPUCWSNuf28VMu5SKUtotGRuMvoknAoDx73Se12SUJnCY4ZPjvMXnspk+IoaUAHIkRBezRHCHaMAbNL2o8FzCFnPEWQ9h9DoPYRG3wG0+PYb4tmHlrw0e3YYVdHcn0k5CmpAQtehfyYQ9oe2mzQf4bt3AA77+4wAB5VjaB6ZKX+1xym70bjaDVztxfmT7YhGdWiaDT093VO+di9fvgxLbR3i4Qjam5qRy6TR1JxFMhMR8UVc2Ld/N65enRrM/MfXrl5FtHwLWj78Vzi2/bfRuu8vkXaXgWbr132bAMBt0gmJQdgMQ5sJABK+8QB8fdmTRn+IxY/Ja5bP+0d8+fbL8JR/gf60DbePs9kmS86HpQT8UL8uAc2SzkMQlRQCmxmpwvQbhqGpFCO1MTM8FkKvioKRjf5+Rj6h+Vg0Ya4UPe4v0altQYd7G1pcO5B17ELGsQdp114k7NsRsXyBcN3HCNd9KNKkb4VZGtxfCISsjNbo+hwNjk1SUY0bMicSe6XHIIOeJfC52EeofIVjjdSAqgkMXRGmzSUFnxFgrbLsTWOPUZbiOrM0zmXBMv89zUE4bRVIxMM4e9aIcpmqdqFTnvBl4sk8fFl43C5EoiGk0jEDwJAT+/bvnBaAhIznkHXth2vb40j7p14K414DOimAby43AGQUDIU1OSmqQrWq2cIEXbMUF1ma/L7SnMY43AN+EXjMfhNKFITUfkqYo8gNGiW8L7LyGby/4hnseO8VOA9sRE+sErdZsl1qeGYAHp8IGyUY+j242enE9RYLcD4u5SgGG5m0agfotxPf3XBcKOFT0f4Tjex2S2G7afZ6Z7YGa7eczVaiK7gPzZ5dCFZvhvvI+6jb8wbKt65F6ZaVImVbV8As5dtWglKzcy3ch99CrP5j9Eb2YSB+CGdz5fK+gz02cdSzp/zQgFWEHXZVg8/JR0aumOJlWdrjvC5hfSw1iDM6bnTquNLsweVWL271xqUlGq724c6ZNhxtCMJdVwq/7sTpUyflYp8qdOoCP3XqFMqOlCKTTKGvpxvpZHykZOICoden4eCBvWABseneWIWbaXfTPbfp/p+JXj8ugHt3bBUN+ObyxaIBP1z/0rcKQAUiRzrv2Tvig1XP4f0VT2HXRxugW8sR0arRlXDhcjuL7TYBJzIY6o1iqDcMsJtRn9ECDAN+I/G1UOPFSKYV7WeqeTkehKwOJgB21xR6vrMH/LUOCy611eF0rhIZ26eI1nwA9+GfwnngNZR/8ZIhW15GuUkqtr6Cyi2vwLpzDeK1H6I3tBcnkodwtbVO6rdIQSoWpRpwiAh4hG8EgLW4M1As9Rg6ahKVQJuPRz3XeED6UOCMC4P9Lgwdpd91ADjVg3PtacRdFngtNYiHAjhx/Jhc1ENDQxNde+M+19jYiOqqKoT8ATRkM2Bc8ngA+r1elJeVCkjjvuEMfmJcAA/t3YWl856AALj+FcwkAKkJ31u9oCCy/uPmjNJ6Jm2oHmMWByN4Vsx/BPYaVkM2oirOnj6NztZmxANeeOsq0R704PaxVlzp9IFVnJlfyCTfW71OEUkZ6hnOZi+Yp2qtONbYVQVQ2JHHLB1GsxWjFkstbrZW43JjmazfuIspEtoOrumU0N93NLQDVxvLcLuDGQ4sRWGSPgdgllFr3HzAtqQs5TMl6JZQkObNViNmU4XGuXDzKM3KKG6dCOB0i4agvQK6tRbJaFg01KWLF+9K05nZoBZzuVxwOp3IZrNobm5GPB5FKp0YBWA2nQQl6Peiorxs3F1Q8/vPxONxASw/fADLnn1cAGQUDAH8eN3MMEEJoFoPcuTOqBIF3MhxvsD39oqF2Lr5PWkGYv4yaILw11qZJDSbYgENPtsuXBmI4HizE1f6woX6nizvd6c7X/VsDNN0xLqR60e2E6Mo+FhTplhYQ4ZrshMu4Bi1l9UQ1p0xy3GHUbdlIB/7qdwHstHCnV1TWhPrg0q8qHK5cFRi2gXuc8p6+E6fDq6Nh/q8uNnnwc1en5T5uN4fQHe8BgFnOZobkjh37qw4vjlnnLuvasLRDEyn07Db7fB6vYjFYsjlcjL6/V5Z8xVrwEzKgNLv1VFVWVGIhDF/r9+G43EBrK+uwNLnHsfG116RDRhZ/61bis3rXsjLYrBvw8cbFo0Q9oagqPXg+Gu/kWu+Yf/h2GtA85pQrQVVruBYowL0vZULQWE5+40bXkLIT0f95DfNbkf53p2IezRENAdy4QByYR8aQj40h5y42uHHYLuGm51KnLJ+ZBk/ys0ue16sUn6Q3Y0oRpuxeqNimqqcxrGdgKpKavl1JjeBZFOEMNqHRcDiJhFrs1Abc7OIRaBMsHex2BQ1bBVud1TiZlc5BjvKcKOzDDekqJQfGAgbcjQq7dgGeyM41+zG8YwDvbE6dMctIl1xGxJaBVyWisknbhqvILjZXBaV1ZXIZDJIJBIiyWQSySTXeAlD+2WSIHBmScVjiEcjYOeummr2+vt23sYF0GGtx7KFP8F765fNSACZpmQGT6UtqbEYwHdXLcCOzz4YEbI03lfW1NiEupo6eJw6YsGojEHdD0rIG0TUoyPrqUOjpwJNvnK0eEtxuknHmWY3zrd5cKFdBxuWXOry4mpPQCpT3xjw42a/HzcHvIZJS1A7jUJGUlZC7cKyrKBUNzPqddJdokSt7woulB4HQGFZCmoxVgTvNcxGlVnBPoJs4slq2Vd7rFJc93KPBpaWH0i60J9yoS/hQnvEgZyvVlqMJVyViDor8lKFiKsKqYAD7rpy+HRtvGmb8uO0NGLxOCoqKuB0OZFMJxCPx6cNINeGlvpa2G22Kf/vmfbCcQEM+n1Y+cJCvLN2GT58lWvApWKCGhrQ0H4sS/9NaEDRhqsXFiJkCJ3SoApApSXZOpvywWsvIx2fvDf5mbNncOjIIXgDXgTDAXj9ftgcdrg9+rC4XdLs0+MkpHXw2qvgdVTA6yiD31WJgLsCIb0SYU8Vov4qxAJV6GzW0dWko6tZQ2+THUdzFpzI1uF4rkbkYqcLlAsdTpHz7Q6c7Rgt5zqd8jifP99qx/lWJ860OHCqxYaTzVYca7KJDDQ5QOltcookA0eQCJQh7i9DxFeJsF6HkLseAZcFfqcVPocFblttQXRLDZRo1hpUlx5CazaN6rIydHSwz/r0bozj7O7uhs1mQ01NDaKJODw+H9o6O9DR1VkEX7Kg/VLZJNKZ4ftKM1Ib8hqtralEwD/1iJrpnfX9f/W4AGZSSWxYsQxvrlqGj15bKQAWwzeTASSQ1II0Pd9dvRiff/wuzp9jWfKJb1a7Fbv27obmc8OhO2F12WBzO0R43+XVRXSvBxSvTxfxeF3weR0F8XqsMKQeXk89vN5aeL3V8PlqEPRXI+GrQNpXgWywaljC1chFatAQrUVjrB7NcQsaExY0Ja1oydgL0pyyoZWSsIq0JOwI66UI6+UIuMvkB4A/An53FfzuGnj1GqNTrdcCv4+NMu3wuB1wu5ziV/NobnjdOswjn2M7b2np7bAh6A/Ap3ugaRpKS0snjTzhLDM+s7W1VdZ29XV1oqlaWlrQ0NCAYDiEbGODAJjKpCcEkBAqczSRiMkxN2C4/quprkA6lZr4S53Bz44LYHdXJ15fswKbfroO765ZVtB+LEUvVbHXL5LGLFPXgBOv+YZD24ysCPOaj8dKw403FuqSrlmATWuMKBxuzGx6bRneWrsEVWWHJv0aGhqbcKjsMKKpBJweN1y6IU63Vjh2ezSYRfe6oYQQKtE9TowUO3TPsBBOnz4sfo8NPu+wEBSzqOeGwR7+WwI1LE54dYLlgNvtgu7RhkXX4fF4RHRdH37co8HjdYuMeD0/q9tVEL6Gn7W2rgaRaGTEfHJDhlErbW1tsNntqKmrkTGVySCVShXWdjxOplOy6cKNF8LH+1z3yRowlURCJI5EKi7mqQCY5eNxROIRcGOG5xmLRXBw/350dt5dUdwRH+AbujMugBcuXMCH776F1S8uxKY3VucBNOD7NgAoPr/VCwTAD95cAxaZmuh25swZ7D94GKF4HP5wBC63x5A8hApGM3w8VvAVj8Wvu3/3TaaxmMleuD3ewvm7dT/MonsCoPA1hllt/KCo8y8+T5fuAsXpdsqoXnfg4D5Zt/mDAVTWVGHP/r2wOuxIZNMIxiIIR6NiZirACJ6CrxhAeTwPoIA4AYDhWEiWB3aHFbquobamFqwR+m29jQsgbfatn3+Kja+txSdvr8eHG7j7qQBcgM3rDZmpGvCdl5+SaJ331i3GF5vem3DzhZ/VanPAH4ggkUojGk8WLmAFnhqLL1B1QSoNosbi192/+18PgGYIPX4d4WhItFGuKYfGpkY0tTaBx5mGDLKNWSRzWcQzKRHRcNRyJqH2U0IAGfGSTnD3My/phLE5k0kgQe2XTSKWjsMfCQiA1IIOhx2WuvpvK3ty3uMCyGcrSg/j1dUvS0D2B+uWSDl66Qexlr0h8jJlN8RkZuTIhNyvaoK+tewn2Pzai9j46jKUHpy4d5s/EIQ/GEZ371FkG5oEwIIWmaIGVOCp8f4BN9IEHrE5dB81YLEmtDmtqLXUCnBNrY1obG4QYLijmc4ZpqUCkKMZPrMGFDN0GgD6wn7wByCXy+DIkcPIZe9NbZZviuIJAQz4vFi19Hn8dOUSyYLn+ksBuDkPYcHvlwexcD/vCxz2AxYDOBK4UWtAlXmfH4vXfoU1X1FfQq7/KG8te0rK6L+zdim87vFbR7W1taOmthbJdKYgXINw91NpvZGjYZIVr5UUeGr8pgE0TExvwfxUpmdh9PpkE0lp8OKx+PwVgIXR5YDVWo9AwIfGxpz47bhDWRCTtiuGrxhAQkgNSBk2VQ0NqNZ/6vy4O00AuRmzZ8+ub20EjAJ+QgBbmpvw+rqVAqAUYlq9UC7uTWuegxI63MXxPsMAZAEn9rH44I1VaGoY+1fyytWrqKisQktbRwE+XhwEMByNwOPzjgHhHICEUNOc4DqMI2EogKcgvAcAKvi4+aIAJHw8Li09jMrKexsYoKD4OscJATxx/Dg+eu8tvLnqRby/5nnxuxkaZuYDyOz5za8uw6a3NuD4saNjzmkkGoPNZheTM5XJwhBjV44Q+oKBKQPo87ihhFqwWIPcv/tjrwF13QsRt7EJQ82neYdF/4oakLujLpMWVAAqd8FYWs/8mFr/qbFYA5rhoz9WgadArKmrRiQyuV93zC9+Bj04IYD045QePoD3NqwQAOncpkmptN9Ha58T7TfjNCAd76sWSNrUJ++8PmbJ8zNnz8Lm1JDJNSKdbcjDRwiN9YvSgqNN0dEakEWMFXxqNJuoBFLuc+tf1yGv1+0I6PXjSC0C+lhSjYBOqRUXxrDrodgNoYlfz+v2gqK7/dA9IWjeEDRPRMZ7AWCxFlTwcTTDNtaxAk+NxQBS61EkGCLgLWhABWBZWSlOnjw5g1C6u1OZEEC+pdNuxZtrXxkBYGEDZt388QFc+3yhh2Dx+u1+3C9eE7J3BYPHv/jonTGdxl5/AP5gRABkVIYCjyOrbnEkhKFIUHbdCJDZJ6YAI0wUv+4ZIT5Nh1mCbg+Cmg9+pwd+hx1h6xFktENo9legL2XBsZwTZ1p1XO4KGuFrvUFc6w1KP3f2dD/XYsO5FovIqSYr+ps86GoMFiThr0NIq4DHeggeSxm8tjr4XS74NELoh9sdhssdh6anoHli0Hw+CTZQF3TxWLy5I37D/A8Ij91u9wiJR2PIptMihMo8nzKnpl1PBZ0aC+u+/A4o/YEMyA4EArJO5RqcvlieE38QLXarVEe7u0t+Zv3VpAByHfj2a6sNE3QtL2oGWg/vghY2XYrXgDMEwG2b3x+VK0afX1llFSKJNGKJ1OiLJZs1QRgHfU/K+asgnAxApX0Iod/hhM9qQ9BmQ9RuQ9pVgzZvGY4lqnCl1SFFeW90aRjsdpl6rBtdklTDS5V5zwx1Nmi51uPBpe5gQU42OdGTrEVLsFTKcUTs1Qg6rPDZHfC6PPBqQbjdUYHQpUfvOYDhQFDcCONBqGArHs0+QMaDErxIJIJgMCjWAsFzuFwCot3pkHV5eUWFuCtmFkp3dzaTAshUkb07vgT9acyC/7YB+MVH744CMJFMwen2oKGlXdwPuSaaoQZ0xSPXIhKBER0J4WgA3fDrhvh0H1yeoAhBDGlOxB01aHLXoD9sxemUDZdaHbjRw37uPkkBYuFa5hwy37AgvUbbMgUfS0JIiQhWWit0pHUaqVG9Goa6HBhss+Bcrg5dYRtyXjtCjlqJ9fS63PBoHtkVdXn8cNFZ7zU2NIq1H+9PVwMyMTYWiSCXyYoQNLMWLAav+D61nRK/3y/ROgx7I3wUborRUkmkUygtK73v1cruDqfp/9WkAPIt3U4bvnhvLT5Y/3w+1Wjma0A2jvlo7Yv49L03RtQLYfGe6tp6+EJRJHMN8ova2Nw04mIxXzgEkL4tbjKwFonShARQmZ+ypnNr8GougZAxkwaAfvjcGqKuegHiXNoOdHiBYyHpEHvnmAc45pYiUcxeuNVrqq8ixwQtLwo+1miRtKNaoJPHrNuS7/HAzrOUHieutPlwLOtFW9SBtN+KiMcOn8SAGmvY4k2hYgjNABabn2OZoARQaUFCKACmhkPOFHBMtFXH1H7quPh/ED4m5xI+u9OJ0vJyVFZX40hpKTq+xaFnxYhOCcDurg58tvGn+PKdVXhv1bP4/KdLJQ50wmDsr9kEHb2uZAXvpfhy41s4eWK4i01XVxcqq2uRbmhGuoEFXo3ojQJo+QgMtQunHufGArOzQ6GAEYCdX/sRMILncTmhOxxwWi2wW+sRDPqlEFFLJiBlBm90hXCnww10WoFO1SvBVLuFfdPz7bs4GnmA7JSUFymQxGLC7N9eA3QzyVdl2lcCnZVAe4UhHXUY6vHgek8QFzsCOJrTEbAfgmY5DLezCh7dIjGrxdAZ940gcwWgAoPB2pTi++px/ugwYJtrQbWhokYzaAo4tc4Lhfij5pf3Na8rmZhLoVZ0OByorKyUWFHGmj5ItykByPytI/t2Sm8Iqcu58plvBYAfrV2GzW9tQFNuOA404A/C6nAJfApABZnaeeMoWi8PI49lZy+vBel85s6m0nyEz223CYAEMqg70JQJoLs5gNOdQckLHOx2406nLa+1qqVd1+1+i1E0ibVYTDVYhtuUTQIge7ZLqYsiADur5H/d6tEkq52bOSdaPZJp4XMdhq3+sGRtMHB8NIR3ByBBpBaMBENIxROyHmRomZJCiFk+5jMcDgt4DA5XUJtHBR8zJywWS2HN91Wz72cavFMCkCcd8On46M1V2Pz6S1L+gdpvJmtAmqCbX30ZH766ErrTXpj3iooqNLd23hWAI7Sg14jINyB0QrNYENA0JEMhNCcCONvhx5UuJ270uKRI7a1uG1ieUJX2I2TSv1AKIRlVyFRPwFEVyViVTHUrUppQ6pYqbVgNdNEkVWUvaqQaN6tTs0IaywSyOPHJdh25SJWkLDG7gvCJiySf5cAULM3nEZmqBlTQEECzFlTAUdOZN1cIHrUeAePfKq2n3keNLE9BzVhdVS3rwcIX+IAdTBlAOuU///gdvLNmEba8uzK/FjSiYNROqHlU5QpHm4bFIWn35z7dEJ9ueFlq2uzbsU2+Nu5+VlfXGABmGyRgWOIW8+u8yTRgQQsyJSYUNPIBdScCbjv0ukrENAva4j6cavLLjqa5HiiPWR1NVU5TsKnqZMMNOI1mnJO20laFgzmq8vGqpIUqR9FtVGMb7LFgsNeJ6/0eXOzWMNDiRNBbBZ/XAp+HKVRMM6JbQolHNmEUDByVqakeG+8+tWA0FJbdTAUhR8JEIXjUego8Nar35cgdUJqc7ANIDfgg36YMICfBUleJj95bgy8/WoON6xbgw7ULCn5AM3xyvOb+gDUZ0BKps3oRPl61EJ+wo+/KF7Dlo/clG6K5qUkc07lsYyHqRZmfxSZn8X0znLFkAqF4QnbmggEPIt56RK0HcCxeh5ttOoY6nBjqNOqxsCYLReqz9FRB9axXowIP/VUYIdR6ZjFrQDnOrxNVKXnpNWiq1pYvqFvQuPIDYNQnZXmKnqYaJCMV8BNCnUCEDTdFfoeUGtAMngJOjWZgzMeEi+s2QsTRDB1fp4DjJovVapVkXb6GGo+vr6qqktcoU1ONDyqE0wKws6Md77yzBh+8t1y6Em1cM18gJIhKCiB+kwAyWmc1fwC4EfMCPnp9HbLpFOKxGDxuHQ0NTaZIDSPotxi44vsjAEwnEUmnEU2mZKMlE3ZJX4fLjQ6g2wV0WKQC2lBXBZTc6SaEVVAdZBWAhI4QjoCP983wFZug0wCw8P/y//9Od4Vo4ou99ehuqkMyZJGdW69mAOjWg5IrqKBSwBWP6vnikQAqbadGPmaGjxDyOZan4AYLzVI+v3fvXqmG9qDCNtbnmhaAfIPDR/bi7TdeLgBITWhoQ6OC9YwBcM0CiV2VUopvrEJNRRn8Pi/8Ph+amu4NgLFUWjr15OI+9Ga8uNIRxJ3eIG601hsacAIAFRijQFPgcbdTpKiNtjI9leZT4zgaUP0f9QPAkabw1T4bzvZq6G7wIBlwS9SOOOuZwOsx1mcjXC35XVAFogJPrRXNo5TqyO9iKpOzGEBCSIc714PUhuz79yCElo0F2USPTRvArq4OvPPmym8FgDRX2UyUrdXee309Dh3Yi3g0LAVfh+MTp68BGaJGDSgAJuPIJIPob4njYm8WV/sSuNDskJZgSvtxVAAoIAqjAq54vI8ADnXXSKW0y31unO0OojsXQEizGhAydlQCuY2Y1YKvc5oAUuspKcBqCl8jdNygOXLkiPj7mBQ9G2/TBpCTdPjQHry+Yj4+e2MZNr/xAj7csEic9Iajns765yet4TLZWu5un1f5gBwVgBvXLMXb61di97YvkctkQF/gZAByw2VMydc0UcmmNFUzqRgakiG0pEPoa4njQncUV9trcbuzvGCCKhgViGosgFgATmm+/KgaiardT75OaUGOY5mj8ph6Lj8WmqxUgwByY4YdjC736LjQE0ZDxC4QBlxe+DS/Ecfq1iSQgK4VJQpIFQlk1nzmYwWfGqkJqeVochJImqCEj0WaZvPtrgBkwaaP314rPdo/fG0xPv7pCzMfwHUrcGDndilnzt4DXwVAiV/kmlIyvQ0NSlgJYiYdQVvGg4ut9bjZVjoKQgWeGicGkPAUtUtToCoIC7CpTZki8NTzRQAynpRNYq722AXCnowRMRNy6Qi47j2A3GSh0OwkhCxNeOnSpdnMnnz2uwKQf2mpKcPaJT/Gxg0LsenNFw0A1y0xtN8M04A0QT94Yx1ctnqprsxF/10DqJzyeSe90oTxdAbRjCHZdADHM5W43nJ4FIQKPDWOD6ACKQ+WapGmek/cNYAMX6sHfYT0TVITXut14FynhuawFVGnhpDTLz5Nn9uJYTG04N1qQO5wcr23a9cu6fsw68nLT8BdA8iupZ9/9DbWLn0Km95i+folUoPz4/WLsWnDCzPKBCWAWza9D1tdtZQzp1k0EYBjmp5jmKTGTqmhCQ0Ac4hmcqIFmZlwKl2KC01VuNJWg+td9dIZiZpHtSvjqGI9RzjaldYz93mgr4/O9nsIoEDYU2eYo/QPpmxo8BBCOwKaGT4efzUAGddZW1s7KzdaJvqxuWsA+aaxaBTLFj6LdS8twlsrn5cK1Fz/EUBmTZjXY9M9vts14HANmuE1IAHc/ukH8Ljoa/JJpWvmlTG6nhCNCVy+jJ6KZyweaYYWSyaZAaUhGUNrwoe2hAu9WQ0DTW6cbHXjbLtLHOEsDX+1j+2bNXGQ3+5xSpn6W131wJkQ2rTPkbF8DJyNAAMu3GQXJAVgV/UwhIRRmZYFaJUpmh8LsaTqceW4t2Koi9E51IQWKWl/tc2K4/FyyVEMa/Um7TcMI2uOUobXgKpI1MjMfKXxuNYrKysTVwNDGuduI2fgKwFIJ2llWRnWLn0B65ctwFvLF+D9VYsK1dOmC5359fcCQFZWY2VsAli6d5tcUMxmYI6ZTXNJcqdqf6UgVA1AFFzF4Kn76nk1qsezyRQMSQiI3JxpSvrQmvOhq8mL/g4fTnSyb4RmhKn1sv2ZjovNdTjbWAvbrvX4098twX//y99Dg2MLcD6Ks6nD+QahbOrCBiwmCL8CgIxNJYAUtrHmD8DF3BH0hg8hqlV/JQBpZXCdxyrap0+fHnnVzd0rzMBXApDvcnRgAB+99zaWPPUwXl86D2++NA+sx2KG6W6O7wWA1MZSmn7dUtirjyDg10UD0k/lyCd6EkhCyHQjYyPF6MJTDJYCTI3qeWXKqvupVAapZA6pZKMx8r5o2QiyDSHkGgPobnEbmzQd9dJJiQCe69DxyRsL8Ae/XYLf+7US/OvfKMH7yx8FtRLYsKWTzv06oCMf71kwRfM5glM7ogibAAAgAElEQVTWgIYmLOQTMq+QHZb62eTFhhtt1TiaKEdUq5T0JaYwieTXg1PVgIz/JHz0uc7dxp+Brwwg35qJmCuWPIfVz/8Yb7z0jHSkNWrHGCUCv0kA2ZjlXQJYVw6/V5M0ISlx4DHKHLCwECFkmXNCaNaAjGFU0fwKPDUq4BSAxphBMpVDMtWIWLIJsWSLMaZYpDaBeDaCeC6AxpwbxxrqcanNJprwcm8Ab654Av/seyX4jV8swS+UlOBPv/8r2Ljqcdzq9xrdjwgg4WNrMaYdTQfAMeAcBSD7C/baRAueydUVAPS4rNKIxqs5QGHJe8pUTNC6ujoJKxv/8pt75p4AyGmsKj+C5QufwMr5P8Lyef8IFsZleXgF38er5sOQhRKnWVzDpfj+V9WADI3jhtC7qxZi5+a34LJUCoCsrkXtx94PNEVZWIhlJthkhQm3qhGkCiQmgJn4SOFj4wGYSGaRSDaMApBVnQXAhjBSDX40NwfQ2RZESC/Hc0/8F/zRv/wF/Pe//kOsnv938FZ8itPNDpxrdgikzHIfaq8F2Iyzpw5DzYeAnqp8pExRpoRyO4yCTjXuVGtBdX/kSDDZgDQTsMDtqIPutIgo8DxuW6HvhFRGy5euN/sAeUxfH2M9CeHcbfwZuGcAskXxlk824qWnH8aSx/4Oq5/94QgIpwPg3cPH+E+jMYvEpm5YjLdWzhcA2UaMkf/sccD1H0UBqCAUTRhhPhvrXBrNQiS3LZYYBSE1ISFUGlABmU4z47sB6VSTMaazolkTyRBiCQ8icRfCCRdau1JIZX2YP/9RfOdnSvDnf/y72LFpNZrCFTjX5cPt40ncGghJp1o2/MSZsCTy3m44iFu5fYDElU4EoQJNjQq04vvG46IR8+YoAWxL6fB7HAKhy1kHt2bPi9UY801bVKHeYgAZ58lW03S2z93Gn4F7BiD/RU93Jza+vgo/XfaMaMFVz/0QP33pKSkRqPr2qfGrQTZRpoUBIGNSP371BQFw+ydvIajbpFuRQ3PA4rSLFqQpqoosqZHVwGORkBSblVZYTC6NJWRjZYQmNFVxJnwEkgWJGtNZNGVyaGnIob0xi47mFDobo7IJ05J2Soux5owd7S1e1FVtx1/+H3+I7/5sCf7l7/8qfu+f/xL+yS+U4Pv/4nv4H//Pv8WG538A14G3cDJVimuNND+5DqwFmksNM5SZ8coxX9B8ef+h2v0sRNIo8MYelTuEI9ekx9riiIY8IHwuhwWa2y7i1qYGIOeE8Z6HDx/GuSm0hRv/En2wn7mnAHKqmnIZrF82H0uf/Acsf+aHWPXswwIkK2urppkci3s/FN+/e0DHAdBrh1t3gABS+ykzlL/gCj6OXNuwnATbYMWSMcnuzsZiaOJuZtyPlpghTLrl7ialOS90PYj7Ie7BifYETrTHcLojLFnx1GoXu3VcYuhXrxfHOzTUlm3Gv/9338fPlJTgz//37+PJx/8r/ur//CP8T79Vgl/9uRL8xs+U4DdLSvBbJSV45C9/H7GDPwUuxIEWZsLXmuAbwww1AzgFCEcC6MTp7hCa017Rgg6nBU63XawHsRZYAWASDchgB7oimOHwbW4fdr/xv+cA8oQDXh3rXliAV555BMue+gHWLf4JXn3xafz05XmyJmOVbSXSu5392wmoSe4eSANAdm16a8U8fP7uKtgq9yDkN/r1icnk1Y01oPQANIoUKVNKgPRohZqZzJUL6za0JS0C0K2+MK61eXC1Q8fVTg3Xu3SRG90eWTtRe9zq0SUh9wYz4rvsEvLFsK+bdMZ31+A6iyidCaD+4Lv4m7/+U/zxH/4+fv97Jfi///Sf4+CO17Ht0zX44f/7H/CLJSX41ZIS/FJJCf7Lv/lNdNq2AueTRl0Z6QvPHVD6AquLYGQuoamcxTSPb/fbcKnbjs6MBSGvVSpg03QXk93lh9vJOqPsnci5M3ooFpugXAMy8oVtqFkHZu429gzcFwD5r9hjfukzj+GleY9g/kP/DcueehirFjxWAPHtlfPFcV8A0QSf9KFYa6Q3KRCnrhHHALBiH4JeNsd0Ssl4ll2QTZgiAFWlMJdXg8OngSPTb9jKuStZgat0lPdquN1ah9sdtSJG4q1RAkKc5Xm/HBNwJQnXlJJkBGSX4VZ3BW7221C6dQ1+/7d/EY/+/d/i2b/7D/jlkhL8xz/9Dbhqv8C1k+2o3PEZ/ttf/Al+raQEGxc/hDORcuBoEOi057Pg7w+ALJdxtbsWPZkqRDwE0CXdgh1uHZozCLeDNUY9EwLIbAcCSFeEz+cb++qbexT3DUCWta8uO4LlC57BivlPYslPHsKLT/0QS5/+AVYufAzrX3wKr730LN5auRDvrV5c0IgKSKYRmWW6AG56dbFowC/fXwdbxT4xpaRjrXe47gnrYirozONYAPaka3C9m1v1GobamO9n5Pzd6aqT+iuFshBFAKqYT5UNMdRlAHj7mA07P1os5ue8R/8H6ra9g7/9t/9MXBD/9T/9L7CWbcPg6W5c7c0hXLEdbc79QKcXQ/QL0iUhZSgmArAoo7443WmC+wSQWro3W42wzwmnpsPOXWNmzrtC8LhCkwJIaFlklxkQ3IyZu409A/cNQP476S1xcD9WLnoOLz7zOJY+9QiW/OQHePGpf8TLz/0IqxY9UQDx/TVLRkBoho/H0wVQmaBbN64XAOlM5vqOphLBoxacDEBqQTGl3PUwA4h261cAsEI0IK6EsO3dBfhZmpd//RdIW/fii/XPiBYsKSnBv//j30Ppjg9wpSeJS21e3O7y4063hhst3IxhWUKGp91nADO1CHu1AoCE0K0F4HEFpgQgnfH19fUSAzr25Tf36H0FkNN74/p1HDmwF6sWz8OKRU9h8Y//EQse/f/wynOPFWTFgsex9vkfSyTNuyu5PlxSWA8WQCwyScc3TfMm6PrFoJm77YMNCDiq4NVsxsYBAcxXhZ4IQLtPh8Nn9FGnCdqbseB6txPodwNddtzpsojmU6amxGQWdiKZs0c4asUMVa8xxirJx8N5Hz5/8xn88s+W4M/+6A8QqdqGvnAF/upPfl2g/LmSEvzNX/4B9LLNst681eWS2E1qXNaYKaz9xl0DfjUNeKPXhr6sFVG/Gy63DzavW7SgApBJu8XrvhH388m3LClIM3QuDnTsH5v7DiD/7eCNG6guP4JXFj0tIWurn3+yAB9BXCHyCNYsfEI2bBjS9s7y5/DeyoXDIE4TQIah0Qm//cPXEHDUFACUKBhWrvYamtBseqpjmqDFAPJivN6lAX0eoNsxAYB518BkAJ50YePqH+HnS0rwO9/7Dna88SJwNI5dH7+If/Ovfw6/82sl+E9/9j+j0bNHomGMsoZcV46sLVMAseCOyP//CUzMcctg5P+GJuhgnx39ORtiAV3K2d8NgLQemPt34MABXPsW93EfG5178+jXAiBPlSUHKssOY/nieVj1/NMC4IrnHoGSVc8+Ii4Lui3WLnwMry7+sbgvCiCO47oYbZoaGpAakmFoOz9+E0FnrYRRcev8bgHszzmGAexxGmuwPGSjtJ9krRsacLQmNDTg8fguLH/6/5KdTkK4/NG/xZ2+CI41WfDsE3+FJfP+BjFtO24c9Rp1RRkBw6pq3SxvUXHfNeDNfgeONtgRD3rA3oKFHyS3X7otTaYBuQnDTAi6Ivbv348LFy7cmyv2AXuXrw1ANW8etwvrXnlxFIArnnu4ACAhXLPgEaxb9LiA+MbSp/HuimfFj6hMTzWODaCxg8oNnZEA0pzyyGaCMkOV1jOP1I52nxeOfPFYmqAGgLqhAScFkP0aJgbwckspNq19GP/5z/8V/up//T3sfHMRLjTW4VK3E2c6behrqMSZ9nrcOuaWnhEspDTUY8B33wHss+BmvwtHG5yIB3x3BaCqfMaNGAJ46tQpdQnMjaYZ+NoB5P/OZdL46aoXxUdIs/OVeQ+DABYL40pXLXwEa59/HOuWPDZC3n7lGanQPR6IdGV8sO5FlG7fZNKACkB2LzK6A5nBU8djAdiXcYq/D71eoEfLl4pg1ImKRlEZ7PlRFctVIPK+HFdLdezbvfUCFk29W7123JZOSPWQx/vqcauvHoP9htzqq5WCvixlWDA582s/VfezeByZ4Ft0boW16niPjwbQEfDA5ffAowfg0wPweFSPeaOUPTNMzELtRxOUDnnW+jx27Jjpsps7VDPwjQDIf97T1SllIl567jE8/8TfY9kzD+GV+Q+PKSsWEMSHR8i65x/F6y/+GAUQVy+UMoRKI4ovcf1SA0BHfd4ELQLQozYSVFKpMd43APMQEiRVIVug6q0sFOxVgMlr+qpxq98Qvp6QqefVWAyeuv9NA8jCvDRDCSATcvv6+tQ1NzeaZuAbA5DncOH8eeze9gVWLXkKi5/8AV6c9xBeXvBIkRhQFrTj/B9ixfwfYvX8h7BmwcNQIL7z8jN4f/mzAiHjTSUxeMNLKN32CSJum3QwkugNMUHzGnCaAF5pd0M0YC9HxlQq7cexSJuMpQHvCYDKtDW0oQKueBx1PsXnN+H9kRrQrftR0IAe35Q0INd+BJBFmLgL2t3dbbrs5g7VDHyjAKqTCPq9WL/iBSx66iG8MO9HWLbgMREF4ysLf1TQjISPwkBvQqhAfPX5x/DTF34MBSIB3PTaywJgVLfnAfTIlrpTGmh6xQw1ts6nogE1XGp1Ad0eYLoAKhjzAFJ7KWBEk42jAZUWvN1nfv3XAaANN/vcONqgIeb3ypzRJSNuGT3fd55l5pl2VGR6qvs0QemMVwB2dHSor3tuNM3AjACQ59PX24NNH76LZc8/jRUvPIPn5z2CF597BK8segIvLXoULy94GC/NfwgvP/cDLH/uBwIgIVzz3ENYN/9hrF/4CDYsehQEkcJA8DdfXojD2z9B1OucNoAOrx8UOu+5CdMQqML5Fm36ABbgy/dtyK8JRwCofHmmUT0/bKoaJqh6vHiTZ9T9CTVckbYe9VoDwN60A1GulR2+Qugedz/Z9ZfrO7PfT4GnRpakoAuCmzBMSWptbTVddnOHagZmDIA8oRs3bsBpt2LFssV4efFTeGXJk1i26FEsnf8jQxY8VIBQNOCz4wH4BFY+/XAewM8Q87nGBnDcUDQdDmkxzS13XQrWNgRqcLbRhTtdzFCfhgn6LQXwUpsF7dE6aa/tcLiNEh46syDyra4lGHu4lbUCrzDqutQBJYBcA84BqJAbOc4oANWp9fX1YusXH+GFRY9g/jN/j0Xz/gEvLhiG8OXnHhKXxepnH8a6Zx/C+vkPY8OCR/Dawkfx+qLH8PoiA8C3XlmMIzs+F18Wy+oZv9qG6TnhLqjHC4cnDJceLgCYDdThVKPTAJDO+MnWgGr3k2MBQrUTOnozRW2qqFFpuvHGURrP/P94PEqrFWs9rmHVY8VrWBtO56rRHKxEwOkAAWQmBDMiDACZRzkyC6IAXt4k5fMsxKtqw7AY8txt9AzMSAB5mtevX0c45MX776zD4vmP4MUFj+blR3iJcaTPPgIDwB9h/XOPiGyY/xheW/g4Nix8HMuffkR6Ax7e8aWEU7Gg7AgAJ4qEKQAYlT4J7P+X9tXgZJOGW91eIxxtOgCaISyAMtqloODjOB546vF7A2B+I0laXucrrfXUSonCvkQ1Mv5a+Ji87DCqB9wNgNSA3ITJ5XKjr765R+5fNsS9mluWuqgsL8Xq5S9g8fzHsH7VYryy6EmsX/I01s1/DKufehgrn3wI6559FBvmPyGydsFP8MK8R7F+1Qs4uHsbQj6j0Yh53TL8i83mlMNidIn1weWNQfPExO8V1F2IuWvQGq3FqRablBNkGb9hDUJNYt4RHY4FHRsUwqc2U8YeFWhqnOz1heBsFaRd0G5KyxWPKjOegd3lQFc50FkGdNXgRpeG1ogdEd0Jj1MbASB3Nt0uTTSg0oJSWcAzck3I57gTyk0Y5gTOATg2ETNWAxaf7smTJ6S70evrlmP5889g7aKnsXbBU1jz7ONYPe8xGdc99wQoq+Y/icXzHse6VUuxf882KcY0XMWrePduGD6COBaAft2FoLMaaV8VerIWXOhw4k6/c7hvQ+FiN0E4LmBK840NngJNgadG9fi4owJPjYVzKgaP9y0Y6mMtGItR3InwdRwBOsqkrdqldg2pgEsatGhc/zkcpmz46QFIP+AcgMVX8/D9bw2A6pQH+vtwcM8uvLp8GZb8hBXYfozFj/0j1sx/UsAjfMsXPo3F836M9atfwYE9O41qaF7VinkkcGbtNxLACDRPRDQgAfQ5qxDRykQLsmLZnT4N6MlfxGKOFl3oph1Ns2k5fKwANGlD01pRgafGccFToCvw1DgdAHsqBD50VkkGf3/aIom4mtMFEc1Y/xnlKKYPICNhHvRW0+r6nO74rQOQH5CpLexZX11ehtdXvoy1LyzEyvnzRJYvmIdXFs7D888+ifWrV2D/XgNAScbNZ8SrkDOOYwPogeYNQPOGJORKAHTUIOSsRNZbIz0U7vTpQC/NUGXKFQNIwJS2G2tUAJrGcQCcFD5CqMBT40QA9tVhqE+dN83lKunoy5IZ1O6ZQCUCbqvAR18ezU7CZ8jEAKoSFfwb+gJVWYo5AMdG81sJoPmjXL58GU67DW9v2ICVS17AiiXPY+miBVjy3Dy8+dp67N65A7V11YULyFz7RdV/GRtII7bR43WDAPo1i8SUJrUadIbqcbXFVqQB1QWdB1FpplGjgtEAT2m44nHEzqkJzNEwqvcrGicCUJ5T52v0G7zeWiW9KjozdYiF6qUYr6z1uN7LiwEiYRy9BjR2SbVCjZg5AM1X6fjH33oA1Ue7evUqsukMdm7bjrWrVmDZ4sVYvfJlVNdUCnzDa0Aj6qVY842lDT1el9QSZX1M7oQGHfWIOurQ6q3DuUy1ZMUPa0B1QecBVNBMBmBPvdEhKR/rqUD82gCUJp8W3Blw42SbA/FIDdzuaqP2pwm+Ygi5ySJStPlS2NzSdTAelJswLEsxpwHVlTpyfGAA5MdisxiapxcvXEQiHsfmTZuwe/dOKYwbCrE/XQDBsCH+kB9KfEEfWDFbIPS5oOfF43XA53VIPZmg7kDAZUPEYUPGWYWjoSO4wfKArFZdMEMJ4TQBLALvawdQzteGW0c9aIqWw+uthFWrK5ibZq1nPlYAKpMzFAljhIRYWzUhFdFYliKbzY688ubuyQw8UAAWf6esR2m329DQkJUGLGzCEk0Ywrqf4VioIATTG/DKmtDtdeYhdEAg9LjEDA1pToScDsTtdWjzluFsthYsPTjU6xLfGXsrSDlAXtTjakC1NryfJmixIz6/O9vHH4wKgKM0+OQuqE3O/2jOgrBeCt1vQ63UATVMTTN0PCZ4auSxApCt3sxC/x+ri9MBzxL1mUym+OuZuw/MfD/gV/mWent7UVp6GI2NueEegCwnnzTKzvMXWgkvGG6ZK204rAVphrqlQWVA0xBwugTCmGZDY9CB/qwHFzt8uNnrw+0+B1jOQUo+qHVWDy9ykygNWVyrUz1eGJVJmx/VexSeV1AV137J1wM178wSuP4yYOAQcHQf0HcIaKPvzwb0+3Gjw48GXzUCWp0ULra6VeQLdz81OPIbMfSjsq8iNV0ilRQZXZo/LVqPc8womLa2NrBMfXNz81f5Kh/Yv32gNeDAwAAqKsoEwHQmCZF02ujpMAaEvGCoIUORoIDIdSI3YSiMpGE4m9flFv+YT9NBB30m7EJf1oMrfWEM9rvBorYCoTJLFThqVAB9LQDmTWIF4NEDwNE9wMABoJutzpy4nLOhN1KPqLMKHocFDhfjPr1gDVC1scKR8MmuZiQsmm4qAHL9197eLiFpc7GgY/+GPNAAMgu7srpyXAD5K62koAmTCbnA+CvPX3tG9VMYlE3hhSiaQIB0IqxbkAvbpPz81YGAAWGf0WvPcHSbtB8hHAVgXoOpxwvjvdCA6v/VAP1KCx4B+iuAAV3g6/GXIe0sRdBOAG1SglABKD0UJQZUgy8YEM0XSyYKDWkI4UQaUAHIuqBdXV1jX4Gz/NEHGkDWIamrr502gLzIuJ4hhPzV93qZgjMMoMohpG/Rp1sR9tSgu8GDi31xXO2PiDmKXkJYBN/XAiCBVj5JE8QFjVsjUTA3Or2i+Qifv+YQAvY6eFxOaC62bzNauCkAOXIuOC+pTLogEwHIHzSa9dSABJDLgbnb6Bl4oAFkVx72p+OvL/sTmEVai5k0oNKE5pEXEc1SbqcHfEZqErUfAWTpQpfPCd1rhddTLxC2JtkLPoxLnUHc7mbuoG2kjABQrd1UD4dxNKEyXc2jaMn86/urMFQkRtlBQkgAGa3DHwMH0OPCnW4nrrY50R2zIa7VwG8th89WI0HXbgIoUS901RjrvUA0jGhqWOspAJXmU6N5bnmsLAom4tbW1oLLgbnb6Bl4oAG8cuWK7MDxYii+QKYCoIKRfx8NhUUTGvAxO5z9I5xw+ewCodtRI+YoOyWdag1jsMNp9HUvhlBtjhTqdt4FgArkvppR8BkwKi2YB7DHyORnLuONFg0DEQti7jq4bbXQ7RbRfAZ8BoDc2fT4vAiGQ4gk4ohnUgWtN10A2aKaveJPnDgx+uqbe+TB3gWlT5AasBg+3ieAZlGwjTdSE3KXlP5C1TtiGEIn2MLL7bDIxkxHzINLDfmutl3MhDdpwlEAKk04DQ04LQCp+dy40+nHjWYvToYsaHBUwW2rh93pkjKNbLRCzWcWmpw0wxPZNNINOaSz2REQKs2nxuI55tzSBOWPV2VlJc6ePTuH2xgz8EBrQH5e+qCYFjPWBTIdAAkmIeQOqZsQ+t15LagZnYM0B1wOG9x2B+ii6IvVCYQ3253S08EwA40d0qF+paHUWs00Fvxz+fWjtCFjM5YikQgWw+UhldUKGpVrPKOo0mCfD4N9AQz2RnCpNYi+iEPgC9VWyHmyNo5bClN5R8BHEAkf4SJ8Da3NI+CjFlTgqXGs+eUPFs13akBaI3O30TPwwAPIHczii4P3zfBN9ZgQciMiFI/BF/bDG/JJ+hLNUvGXORxyYdNZn3DWo1GvQ0/EKpn0FzrsuNxXj+vHanDzKH14BMqkGdn6jNJJsRo+OvrpOseRrjyQ1IZ0+lPTUhgg3u/D5YE0TnY3or81BTYTDWv1CGtWhF12KTPh9xpuBdlg8nrBvveUTCohPtMCWEWaT5mgY82p+THOKc1PzhmzIeZ6Q4yGj4888AByK5z96YovjqlCV/w6Xpjc/WP3XEbTcJ3EnVJuzjB1hxrQZ3MhaNMRsbsQc9ZLBkVHsgb9zdU43VOLy301UogXbHfG/u8UwkPwlBBOAjiemOEV6Nz5TH0nBnv8Ah5hCvp94PqOfkyzEEA+x5bcFDOAAiEDFtKj135TBZDzzSgYasG59mRjwzcrAORFwF24YgDN93lcDNqk99MJiTHlGicejYGddJk9rtsc0G0u+KwB+Kw+BO0aQk4b4notsuFqtKVqcLSpFufbanGlq0aqY7MqtiH5wGx20JW1osmNUHSfZibldj/FhjtH2buiFucaj6AvWY6Y3ybgscgVTWPN6RgBIgGMhAIFSSfjoBA+BSDnYNQ85d0QxY8X32cGPOM/+ePHJcDcbewZeOA1IHffzBsxNImKLxbenxS4ok2bVNow1TLJlGiPiD8oETK6wwXd6oZuCYp4bD7RiH6nVczAqKcWuWAtOlJVAuKZdjsudWm42uvBtT4vrvd6cb1Px2C/C4MDDrBJSrHwuev9Hlzv9+HqgCEnm+vRnSxDRt8Bn2U7XJZy2K31UmWOACoI2ZuDmpAARsPBgtwPADmvBHAuE2Js+PjoAw/g0NCQNImkQ5i/yNxI4TgWhNN5zAwsIaQWDPoDRs1Muwduq39YbG547G54HA7xt4U0KyJuCyJ6nbgD6BJojnrQoiTmwIlOD051OkROtNtwvM2Co631hrQ40ZHUkAu5kPBY5X3CWi0oIVeNxHR6NYeUYvRqNIttcNgsAiHho8mZiscQi4QKogBUo/nzjaUJpzJXjAPlDuhcX4hZDCA/OtdnNIPUpgB/kadyAU30muILlPcTsTjCgaBA6HZ6QdEcHrjsbrjsLhFV5oHrMkaeEBDGmPp1N0JsZuL1SlvocKAK0UAZYsEKkXioEslwFVKRaiRDdYj6maHhlr+nVhtL+N4Ump/UgHwN130EjwDGo5GCKPDUWPz5JpqLsZ7jjxx/9JgLOHcbfwYeeA3Ij07guBXOiBiuTbguHOuimc5jxReoum9Ezvjh93sliJs9CVnKweVyiNhdNlAcmgMOzQan2y6iMvXl9W47NLcVLq0OLmeNiOaywK1Z4XbXG895HJC/8TjgNImLj3sc0g1YQcn3ZEJyIOAT4AqQxWMCImFUj6lRfR41Tmdu1GtV6tL4l9/cM7MCwDNnzsg6sL+/X7Tg/QBQbdsn04wjjSIcC8Af1uENapJbyBxDwmZzO0aIQ3eKH9HpcRd616v+9ezSRBeHRN+42dfCU8i/4+udHteYYoZZwccfhFgsUthkIWgET4kCT40KPDUqqKY60tqgD7anp2eOsglmYFYAyM/P4kL8ReaFQZN0qhfSVF9nBpAQJtJRROJM+CWIRqIvwWBxW0P7OSTPTlJ+NF2yEJyabkDm9hQc5MpRPvY4DKgCVY0qUVaZ3zQ7CVc2bfj6JgNQ7YaqkX83kdCc7e5sRzjoFxOX800A524Tz8CsAZC/xIcOHQK14L3YhCkGsxjAZCYmEBLEaMIIYWPJCwUgL1CpOObSJQNBc3lBcWs+Q/IRKmODx76GI4WgmYUAEkaufRkSpuArBm88DajAU+NE8PE5Nl1tymVFwxJEi8UylwU/MXvy7KwBkJ+WIVa86GmCKtNKjcVATfe+ckuMNSaTzKjwF60J7x+A1PRK8zEQgZ+RkIwH31hrQAWeGqcCIF9LCKltWQdmLvplcluIc0sAAAoTSURBVAJnFYCXLl2SXTn6AhV44433EkBCyfWX16fLZoixKXP/ACR8jM5R8PEzEg6l7cYaCadZFHhqnAxAQkctSKmpqZ7L/5ucvdmnAfmJuRPKHVECxh1RbpUzHpJQmqUYzEmBVCUvxhmpAQme3WGFw2krFDcKhSII+FkA2I+ysiocOVyGQwePYP+BgyivqERtXT3q6i04fKQUhw4fQVlZBQ6XlqO8shIWmwO+QEiEmp3diAgezU5qQe7I8rw5EqT7pQEJNMFrb22B260hFo1O8fKbe9ms0oDq6yZ4DE8jcFwPEjaGlFHMEPJYgfhVAaQWTCRi4goggFyX8Rx279qNysoqBPxB2SC6cOEiGDxA820s4XPMLGDFt0AwiNq6Ouzcs0fiLQkazWuCyCB0nj/Pm5pQabKxtB8fM2s/HqvXq3E8Dcjn+fc0Pa3WegTnws7UZTalcVYCyJnJZLNwaJoEVvtDQclyYKZDodhQXiPeLYCpbBJmYUEolkekGVpWTk1WJhr48uUrAhxrmlKmelOv53jt2jWpOsaoE0LNcvAU/tDQB0owE7HoiHUgfwzMwnWqWYrXsoWiVkUanu/B11LjMuxs7ja9GZi1AHKaqP1sdrskmxK+SCwmomqdKPg4TqoBWfLCdHGa4eNxLpeB5nbi0KGDaGoymlVOB7jJvlb1Xn19fSgvL5fNJrpcWA7QCBg3tKAyQw34hssyjtT8jI3NjJB0muF7ZjHiZ/nekqjs8Ux2inPPjzEDsxpAzofP74PNYUNTa2OhanamIYNEKj5Cht0MKk2HGeIjs8RVqg7Hts4O0ap8n2Mnj8Hn0+HWNbCE/v2+DQ4OIhqNSmNMmqT8oYlFIiLDWo61UVNIxDMiyUQDhqUJqWTzCEmnWjBS+JpGZDOMMqq73x/pgX3/WQ/grVu3ZFMkkQwhFg8gEvMhnYkbPjwThHSumyE04DMDqLSDUfyJJiA3RHp6umC11iGT/forQ9P3SbOU2ru5oVFM0GGzk2s3SgqpWAbpeBbpeENBMolGZBLNBckmW2CWhkwr0oksykorwEijudvdzcCsB5DT1t7eCk2rR0MuhmwmjFjUh3QyjHQyWpBMKmZsTCRTYPZDNpUdW9JpZPPS2tyMmpoqJJOJu/t27sFfdXd3C4TcpezqaEEum0QsEkAqEUE6riSGTCJuSDyJTDyJLD8jJZERaUhmUZBUGt3tbQjoOiLh0D04y9n7FnMA5r97h7UGjWk/2puiiPodyCX9hiSCyCWCaEiG0JCMoCEZE2lk3wOTNKSSMEtTNoOAV5feFN/05cV1Wm1VlcDX3JhBIuJDOuFDNj4sY39e9ZkjaExFhyUdRntTHOVH9oK+1bnb3c/ArAaQ5ufZM6dx8sQxeFwWBFxl6Mx5kfbXi2QCFjRGnWiOudAcc6MxohekOeoDpTEaQC7sQzrsQSYSEEhbMgm0ZBOw1FXNmGJEFks94mE/Whsb5Acll3Ahl7ShMWFIS8KOloSzIK1JF1jnVElbSodZ4r4qWKsP4tzZM2D7cK47527Tn4FZCeCVy5cRDug4tGczHDXb4anfgbRejpRejrSnDDHnfqQ8B5H2HkIuUGqIvxxZX0VBcv5K5HzVyPirkfJUIalXIuGtQjZkRUNUQyLshkd3T/8buU9/wZ1Xp60ebbkcol4nor5SJL37C5L2HZDPy89MyfqOIOsrK0jOXw6zJPUD8NdvQ8y9D/bqT1FxcDM0ewVOnz51nz7Bg/m2sw7AowMDKDu0H3rdHjT4DyOl7UXatRfN/iNo8BxAS7AUPclqNAf3oNG/FVnvl8h6OW5FRt9WkKxnO7KenSJp93akXDuQdO9Ezr8PuXA5bPVlGBjonzFXzbmzZ1FdUY4cSyu66xF170HCvQUp1zYRfgYRbSfS2k5k3LvysgcZ9x5k9b0iGc9eZDy70Ro9iKxvF7K+HQhYPkZX6ggSnq2wVnyCpobUjPncM/1EZhWABnz70Bh3oytWiyb3brT5DyBW+zlavfvRFTqMZn0PwlUfo9m7BS3+z9Ea+BLN3s/Q5Pl8hPB5JQ3uL2DIFrR4t6M5dBiVZftn1Hd/48YNWGqrEfe7kA7Uyg9Fk2+7nC/PudW/0xDfbrT6OC978rIPbf59aA/sF2kL7keLfzcavTvQHNyFlvBuZDxbELFugq/mfbRH98JW8TlymeSM+vwz9WRmDYCMFrFUH0Rc24dG3wEBrUXfBSXN7p0Ylu1odm9Fi74Nbd7tMvJ4IjFevwNtnp1o9B7CkUO7Z9R3fvPmTViqK+C17EVTuAwNOj8vP6chLfoOmEU9PtbYpG8HpcEzjui7YT2yHSePH5tRczATT2bWAEiXgr3iCynZ1+j6Em3uHSOkVdsOsxQ/P537jfoBlB3aM6O+bwJorS6D17oVLZEDAtBEn9f8nPlYATkRhE3uncjY98Jrr51RczATT2ZWAMiLr67yIJLaPhzP1aBJ2zICPsJlvsh4PB3gil9LAMsP751R3zfnwFZTDp9lK1rDB0Tzyed0bUebazs6tB0jhI8VC18/VQDbPQdRf2i7xLnOqImYYSczKwC8cP48qg/tQtS6PW96bR0F2L0GsLJ0Zq0B6XJx1lchZN2O9tDdAUggFYSTacC+cAW8Vftw7OhcW7KJmJ8VAJ4+dQrl+7agO1GDlGMLMrZP7ymACt52fSc6vLtBDVhXVTrRvH/tzzFY22Gphq92Kzojh9CkbUOLaxtanYaM0nb5x9XzauTf8G8b3Ibk3NtQLA3aDpxKW2A7sAUd7W1f+2f9Nv3DWQHgpUsXRQPSzdARPohQxXtocm4dIY2OLTBL8fOT3e+PHJK/P5Eog79yCzyaY8ZdB+lEFFrVFjR5d993APsjlbAd2o4zp0/PuHmYSSc0KwDkhDdmU7Ad+RQD6Up0BnbjeLx0hByLHYFZip+f7D61YLd/L1q0nag/sgOXLl6cSd+znAtdER5HFfy1n6M/dhgD0cM4FjHkePQIzKIeLx75N/zb3rz0xA+jWHpjpdAOfwy/s37GzcFMO6FZAyBNsK6OVnic1XDWH4a95iDsNYeGpfoQ7GYxPzeFY2ftEXhslcglw7hy5fJM+54L58OQsZbGDPzOGrjrS01SBne9WczPDR9r9aWguPLitJSiWLzOGjTnUuC6c+428QzMGgA5DYSQJR3up6jE2Imn/Zt9dm4evtn5N//3WQWg+YPPHc/NwEyYgTkAZ8K3MHcOs3YG5gCctV/93AefCTMwB+BM+BbmzmHWzsAcgLP2q5/74DNhBuYAnAnfwtw5zNoZmANw1n71cx98JszAHIAz4VuYO4dZOwNzAM7ar37ug8+EGZgDcCZ8C3PnMGtnYA7AWfvVz33wmTADcwDOhG9h7hxm7QzMAThrv/q5Dz4TZmAOwJnwLcydw6ydgTkAZ+1XP/fBZ8IMzAE4E76FuXOYtTPw/wPTj027vkqfggAAAABJRU5ErkJggg==;" parent="1" vertex="1">
          <mxGeometry x="188" y="-753.5" width="93.04" height="130" as="geometry" />
        </mxCell>
        <mxCell id="zaps4cjW03-3NY5ab2HI-3" value="&lt;font face=&quot;Verdana&quot; style=&quot;font-size: 14px;&quot;&gt;CloudFormation&lt;/font&gt;" style="points=[[0,0,0],[0.25,0,0],[0.5,0,0],[0.75,0,0],[1,0,0],[0,1,0],[0.25,1,0],[0.5,1,0],[0.75,1,0],[1,1,0],[0,0.25,0],[0,0.5,0],[0,0.75,0],[1,0.25,0],[1,0.5,0],[1,0.75,0]];points=[[0,0,0],[0.25,0,0],[0.5,0,0],[0.75,0,0],[1,0,0],[0,1,0],[0.25,1,0],[0.5,1,0],[0.75,1,0],[1,1,0],[0,0.25,0],[0,0.5,0],[0,0.75,0],[1,0.25,0],[1,0.5,0],[1,0.75,0]];outlineConnect=0;fontColor=#232F3E;gradientColor=#F34482;gradientDirection=north;fillColor=#BC1356;strokeColor=#ffffff;dashed=0;verticalLabelPosition=bottom;verticalAlign=top;align=center;html=1;fontSize=12;fontStyle=0;aspect=fixed;shape=mxgraph.aws4.resourceIcon;resIcon=mxgraph.aws4.cloudformation;rounded=1;" parent="1" vertex="1">
          <mxGeometry x="110" y="-727.5" width="78" height="78" as="geometry" />
        </mxCell>
        <mxCell id="AVf4P4smUIYxYuXkA1tG-6" style="edgeStyle=orthogonalEdgeStyle;rounded=0;orthogonalLoop=1;jettySize=auto;html=1;" parent="1" source="6KN9IARSyBrbfhyJogQy-1" target="AVf4P4smUIYxYuXkA1tG-4" edge="1">
          <mxGeometry relative="1" as="geometry" />
        </mxCell>
        <mxCell id="6KN9IARSyBrbfhyJogQy-1" value="&lt;font style=&quot;font-size: 14px;&quot; face=&quot;Verdana&quot;&gt;task-files-bucket&lt;/font&gt;" style="sketch=0;points=[[0,0,0],[0.25,0,0],[0.5,0,0],[0.75,0,0],[1,0,0],[0,1,0],[0.25,1,0],[0.5,1,0],[0.75,1,0],[1,1,0],[0,0.25,0],[0,0.5,0],[0,0.75,0],[1,0.25,0],[1,0.5,0],[1,0.75,0]];outlineConnect=0;fontColor=#232F3E;fillColor=#7AA116;strokeColor=#ffffff;dashed=0;verticalLabelPosition=bottom;verticalAlign=top;align=center;html=1;fontSize=12;fontStyle=0;aspect=fixed;shape=mxgraph.aws4.resourceIcon;resIcon=mxgraph.aws4.s3;" parent="1" vertex="1">
          <mxGeometry x="629" y="-236" width="78" height="78" as="geometry" />
        </mxCell>
        <mxCell id="6KN9IARSyBrbfhyJogQy-6" value="" style="group;rounded=1;" parent="1" vertex="1" connectable="0">
          <mxGeometry x="487" y="-236" width="98" height="90" as="geometry" />
        </mxCell>
        <mxCell id="6KN9IARSyBrbfhyJogQy-7" value="&lt;font face=&quot;Verdana&quot;&gt;&lt;span style=&quot;font-size: 14px;&quot;&gt;UploadFileTask&lt;/span&gt;&lt;/font&gt;" style="outlineConnect=0;fontColor=#232F3E;gradientColor=none;fillColor=#D05C17;strokeColor=none;dashed=0;verticalLabelPosition=bottom;verticalAlign=top;align=center;html=1;fontSize=12;fontStyle=0;aspect=fixed;pointerEvents=1;shape=mxgraph.aws4.lambda_function;rounded=1;" parent="6KN9IARSyBrbfhyJogQy-6" vertex="1">
          <mxGeometry x="20" width="78" height="78" as="geometry" />
        </mxCell>
        <mxCell id="6KN9IARSyBrbfhyJogQy-8" value="" style="outlineConnect=0;fontColor=#232F3E;gradientColor=none;fillColor=#C7131F;strokeColor=none;dashed=0;verticalLabelPosition=bottom;verticalAlign=top;align=center;html=1;fontSize=12;fontStyle=0;aspect=fixed;pointerEvents=1;shape=mxgraph.aws4.role;labelBackgroundColor=#ffffff;shadow=0;rounded=1;" parent="6KN9IARSyBrbfhyJogQy-6" vertex="1">
          <mxGeometry y="55" width="62.04" height="35" as="geometry" />
        </mxCell>
        <mxCell id="zaps4cjW03-3NY5ab2HI-28" value="" style="group;rounded=1;" parent="1" vertex="1" connectable="0">
          <mxGeometry x="613" y="-354" width="98" height="90" as="geometry" />
        </mxCell>
        <mxCell id="zaps4cjW03-3NY5ab2HI-29" value="&lt;font face=&quot;Verdana&quot;&gt;&lt;span style=&quot;font-size: 14px;&quot;&gt;DeleteTask&lt;/span&gt;&lt;/font&gt;" style="outlineConnect=0;fontColor=#232F3E;gradientColor=none;fillColor=#D05C17;strokeColor=none;dashed=0;verticalLabelPosition=bottom;verticalAlign=top;align=center;html=1;fontSize=12;fontStyle=0;aspect=fixed;pointerEvents=1;shape=mxgraph.aws4.lambda_function;rounded=1;" parent="zaps4cjW03-3NY5ab2HI-28" vertex="1">
          <mxGeometry x="20" width="78" height="78" as="geometry" />
        </mxCell>
        <mxCell id="zaps4cjW03-3NY5ab2HI-30" value="" style="outlineConnect=0;fontColor=#232F3E;gradientColor=none;fillColor=#C7131F;strokeColor=none;dashed=0;verticalLabelPosition=bottom;verticalAlign=top;align=center;html=1;fontSize=12;fontStyle=0;aspect=fixed;pointerEvents=1;shape=mxgraph.aws4.role;labelBackgroundColor=#ffffff;shadow=0;rounded=1;" parent="zaps4cjW03-3NY5ab2HI-28" vertex="1">
          <mxGeometry y="55" width="62.04" height="35" as="geometry" />
        </mxCell>
        <mxCell id="6KN9IARSyBrbfhyJogQy-21" style="edgeStyle=orthogonalEdgeStyle;rounded=0;orthogonalLoop=1;jettySize=auto;html=1;curved=1;" parent="1" source="zaps4cjW03-3NY5ab2HI-5" target="zaps4cjW03-3NY5ab2HI-29" edge="1">
          <mxGeometry relative="1" as="geometry">
            <Array as="points">
              <mxPoint x="556" y="-487" />
              <mxPoint x="556" y="-315" />
            </Array>
          </mxGeometry>
        </mxCell>
        <mxCell id="AVf4P4smUIYxYuXkA1tG-1" style="edgeStyle=orthogonalEdgeStyle;rounded=0;orthogonalLoop=1;jettySize=auto;html=1;curved=1;" parent="1" source="zaps4cjW03-3NY5ab2HI-5" target="6KN9IARSyBrbfhyJogQy-7" edge="1">
          <mxGeometry relative="1" as="geometry">
            <Array as="points">
              <mxPoint x="550" y="-487" />
            </Array>
          </mxGeometry>
        </mxCell>
        <mxCell id="zaps4cjW03-3NY5ab2HI-5" value="&lt;font face=&quot;Verdana&quot; style=&quot;font-size: 14px;&quot;&gt;TaskRestApi&lt;/font&gt;" style="points=[[0,0,0],[0.25,0,0],[0.5,0,0],[0.75,0,0],[1,0,0],[0,1,0],[0.25,1,0],[0.5,1,0],[0.75,1,0],[1,1,0],[0,0.25,0],[0,0.5,0],[0,0.75,0],[1,0.25,0],[1,0.5,0],[1,0.75,0]];outlineConnect=0;fontColor=#232F3E;gradientColor=#FF4F8B;gradientDirection=north;fillColor=#BC1356;strokeColor=#ffffff;dashed=0;verticalLabelPosition=bottom;verticalAlign=top;align=center;html=1;fontSize=12;fontStyle=0;aspect=fixed;shape=mxgraph.aws4.resourceIcon;resIcon=mxgraph.aws4.api_gateway;rounded=1;" parent="1" vertex="1">
          <mxGeometry x="416" y="-526" width="78" height="78" as="geometry" />
        </mxCell>
        <mxCell id="UEzPUAAOIrF-is8g5C7q-149" value="&lt;font face=&quot;Verdana&quot; style=&quot;font-size: 14px;&quot;&gt;TaskTable&lt;/font&gt;" style="outlineConnect=0;fontColor=#232F3E;gradientColor=#4D72F3;gradientDirection=north;fillColor=#3334B9;strokeColor=#ffffff;dashed=0;verticalLabelPosition=bottom;verticalAlign=top;align=center;html=1;fontSize=12;fontStyle=0;aspect=fixed;shape=mxgraph.aws4.resourceIcon;resIcon=mxgraph.aws4.dynamodb;rounded=1;" parent="1" vertex="1">
          <mxGeometry x="816" y="-526" width="78" height="78" as="geometry" />
        </mxCell>
        <mxCell id="6KN9IARSyBrbfhyJogQy-25" style="edgeStyle=orthogonalEdgeStyle;rounded=0;orthogonalLoop=1;jettySize=auto;html=1;curved=1;" parent="1" source="zaps4cjW03-3NY5ab2HI-29" target="UEzPUAAOIrF-is8g5C7q-149" edge="1">
          <mxGeometry relative="1" as="geometry">
            <mxPoint x="810" y="-484" as="targetPoint" />
            <Array as="points">
              <mxPoint x="766" y="-315" />
              <mxPoint x="766" y="-484" />
            </Array>
          </mxGeometry>
        </mxCell>
        <mxCell id="AVf4P4smUIYxYuXkA1tG-2" style="edgeStyle=orthogonalEdgeStyle;rounded=0;orthogonalLoop=1;jettySize=auto;html=1;entryX=0;entryY=0.5;entryDx=0;entryDy=0;entryPerimeter=0;" parent="1" source="6KN9IARSyBrbfhyJogQy-7" target="6KN9IARSyBrbfhyJogQy-1" edge="1">
          <mxGeometry relative="1" as="geometry" />
        </mxCell>
        <mxCell id="AVf4P4smUIYxYuXkA1tG-3" value="" style="group;rounded=1;" parent="1" vertex="1" connectable="0">
          <mxGeometry x="730" y="-236" width="98" height="90" as="geometry" />
        </mxCell>
        <mxCell id="AVf4P4smUIYxYuXkA1tG-4" value="&lt;font face=&quot;Verdana&quot;&gt;&lt;span style=&quot;font-size: 14px;&quot;&gt;FinishTask&lt;/span&gt;&lt;/font&gt;" style="outlineConnect=0;fontColor=#232F3E;gradientColor=none;fillColor=#D05C17;strokeColor=none;dashed=0;verticalLabelPosition=bottom;verticalAlign=top;align=center;html=1;fontSize=12;fontStyle=0;aspect=fixed;pointerEvents=1;shape=mxgraph.aws4.lambda_function;rounded=1;" parent="AVf4P4smUIYxYuXkA1tG-3" vertex="1">
          <mxGeometry x="20" width="78" height="78" as="geometry" />
        </mxCell>
        <mxCell id="AVf4P4smUIYxYuXkA1tG-5" value="" style="outlineConnect=0;fontColor=#232F3E;gradientColor=none;fillColor=#C7131F;strokeColor=none;dashed=0;verticalLabelPosition=bottom;verticalAlign=top;align=center;html=1;fontSize=12;fontStyle=0;aspect=fixed;pointerEvents=1;shape=mxgraph.aws4.role;labelBackgroundColor=#ffffff;shadow=0;rounded=1;" parent="AVf4P4smUIYxYuXkA1tG-3" vertex="1">
          <mxGeometry y="55" width="62.04" height="35" as="geometry" />
        </mxCell>
        <mxCell id="AVf4P4smUIYxYuXkA1tG-7" style="edgeStyle=orthogonalEdgeStyle;rounded=0;orthogonalLoop=1;jettySize=auto;html=1;curved=1;" parent="1" source="AVf4P4smUIYxYuXkA1tG-4" target="UEzPUAAOIrF-is8g5C7q-149" edge="1">
          <mxGeometry relative="1" as="geometry">
            <Array as="points">
              <mxPoint x="855" y="-197" />
            </Array>
          </mxGeometry>
        </mxCell>
      </root>
    </mxGraphModel>
  </diagram>
</mxfile>
